<svg width="64" height="64" viewBox="0 0 64 64" fill="none" xmlns="http://www.w3.org/2000/svg">
<circle cx="32" cy="32" r="32" fill="#FFEDF5"/>
<g clip-path="url(#clip0_958_46730)">
<mask id="mask0_958_46730" style="mask-type:luminance" maskUnits="userSpaceOnUse" x="0" y="8" width="64" height="48">
<path d="M64 8H0V56H64V8Z" fill="white"/>
</mask>
<g mask="url(#mask0_958_46730)">
<path d="M22.5525 26.0194L22.5774 26.0647C22.6185 26.1397 22.5493 26.2569 22.423 26.3262L20.2096 27.5402C20.0832 27.6095 19.9472 27.6049 19.906 27.5299L19.8812 27.4846C19.84 27.4095 19.9092 27.2924 20.0356 27.223L22.249 26.009C22.3754 25.9397 22.5114 25.9444 22.5525 26.0194Z" fill="white"/>
<path d="M29.9746 23.9199C29.4806 23.9199 29.0801 24.3194 29.0801 24.8122V35.7598H45.3474C45.7002 34.5171 45.8796 33.2318 45.88 31.9402C45.8877 29.0729 45.0105 26.2726 43.3674 23.9199H29.9746Z" fill="url(#paint0_linear_958_46730)"/>
<path d="M43.7718 25.3045C43.3144 25.9964 41.7109 27.0136 39.8008 27.68C39.8008 27.68 41.8466 27.09 44.5208 25.9964C44.37 25.6708 44.1991 25.3554 44.0181 25.04C43.9234 25.1152 43.8404 25.2044 43.7718 25.3045Z" fill="url(#paint1_linear_958_46730)"/>
<path d="M44.5546 27.7299C43.9652 28.1562 43.2886 28.431 42.5801 28.5334C43.5012 28.4198 44.416 28.2555 45.3206 28.041C45.261 27.8439 45.1979 27.6435 45.1315 27.4395C44.9194 27.4859 44.7214 27.5856 44.5546 27.7299Z" fill="url(#paint2_linear_958_46730)"/>
<path d="M31.2931 29.284C31.1978 29.4286 31.0187 29.4247 30.8163 29.4207C30.6248 29.4168 30.4123 29.4129 30.2294 29.5348C29.8141 29.7062 29.3676 29.7847 28.9199 29.765C28.9199 29.765 31.7698 30.6912 37.5599 28.8644C36.6789 29.0372 35.7776 29.0752 34.8857 28.977C34.4157 28.8788 34.0557 28.922 33.7378 28.9652C33.377 29.0142 33.0702 29.0632 32.7181 28.9053C32.5627 28.834 32.3988 28.7998 32.2367 28.7998C31.8739 28.7997 31.5204 28.9715 31.2931 29.284Z" fill="url(#paint3_linear_958_46730)"/>
<path d="M31.4365 27.2282C31.2895 27.2765 31.169 27.3833 31.1035 27.5232C31.0572 27.6209 30.9567 27.6183 30.8434 27.6156C30.7361 27.6132 30.6173 27.6106 30.5222 27.6932C30.2997 27.8076 30.0508 27.8612 29.8008 27.8484C29.8008 27.8484 31.4693 28.4584 34.6008 27.2332C34.1089 27.3519 33.5993 27.379 33.0977 27.3132C32.8329 27.2478 32.6349 27.2776 32.4592 27.3072C32.2593 27.341 32.0881 27.3748 31.8801 27.2683C31.797 27.2232 31.7047 27.2002 31.6119 27.2002C31.5529 27.2002 31.4937 27.2095 31.4365 27.2282Z" fill="url(#paint4_linear_958_46730)"/>
<path d="M34.9185 25.0252C34.84 25.1401 34.7615 25.1178 34.6787 25.0954C34.5965 25.0732 34.51 25.0512 34.4148 25.1624C34.2587 25.3335 34.0789 25.4809 33.8809 25.5998C33.8809 25.5998 35.8101 25.5337 36.6009 24.9742C36.3297 24.9882 36.0582 24.952 35.8 24.8675C35.6961 24.822 35.5863 24.7998 35.4773 24.7998C35.2733 24.7998 35.0723 24.8776 34.9185 25.0252Z" fill="url(#paint5_linear_958_46730)"/>
<path d="M30.7345 24.6864C30.6937 24.7219 30.6586 24.7065 30.6218 24.6912C30.5887 24.6774 30.5543 24.6637 30.513 24.6864C30.4432 24.7426 30.3651 24.7895 30.2812 24.8256C30.6818 24.8704 31.0877 24.8509 31.4813 24.768C31.3609 24.7569 31.2429 24.7295 31.131 24.6864C31.0692 24.6552 31.001 24.6396 30.9328 24.6396C30.8645 24.6396 30.7964 24.6552 30.7345 24.6864Z" fill="url(#paint6_linear_958_46730)"/>
<path d="M44.8565 30.5467V31.8876H44.2342V33.9039H39.4961L39.3204 35.8396H45.3434C45.6971 34.5918 45.8778 33.301 45.8804 32.0035C45.8804 31.225 45.8166 30.4478 45.6897 29.6797C45.2259 29.6986 44.8589 30.0805 44.8565 30.5467Z" fill="url(#paint7_linear_958_46730)"/>
<path d="M31.3745 25.3604V33.4617H29.0801V35.8403H45.403C45.4888 35.5286 45.5745 35.2067 45.6401 34.8848H43.6584V29.5242C43.6584 29.377 43.5387 29.2576 43.3911 29.2576H39.8965C39.7489 29.2576 39.6293 29.377 39.6293 29.5242V32.8985H39.0242C38.871 32.8985 38.7468 33.0224 38.7468 33.1751V33.7535H36.6088V32.2448C36.6088 32.0753 36.471 31.938 36.3011 31.938H34.6169V28.5688C34.6169 26.7968 33.1765 25.3604 31.3997 25.3604H31.3745Z" fill="url(#paint8_linear_958_46730)"/>
<path d="M25.294 22.3949L18.1792 26.3273C17.9749 26.4413 17.8244 26.6321 17.7612 26.8575C17.698 27.0828 17.7272 27.324 17.8426 27.5276L21.611 34.1518C21.7276 34.3563 21.9216 34.5056 22.1492 34.5659C22.3768 34.6263 22.6192 34.593 22.822 34.4733L29.8111 30.32C30.2207 30.0759 30.3611 29.5502 30.1277 29.1347L26.4798 22.7313C26.318 22.4471 26.0209 22.2871 25.7148 22.2871C25.5723 22.2871 25.4278 22.3218 25.294 22.3949Z" fill="url(#paint9_linear_958_46730)"/>
<path d="M28.9818 26.6735C28.5045 28.0345 29.5545 29.3454 29.5545 29.3454L29.7857 29.7823C29.7857 29.7823 30.9413 29.1244 30.3333 28.2756C29.7253 27.4269 29.5445 27.2008 29.5545 26.8643C29.5611 26.6433 29.518 26.0429 29.3521 26.043C29.2656 26.043 29.1456 26.2066 28.9818 26.6735Z" fill="#FFC599"/>
<path d="M36.7106 28.2256C36.7106 28.2256 33.7562 33.5692 30.3395 28.2808L29.6411 29.7875C29.3791 30.3577 29.4628 31.0269 29.8572 31.5151C30.8621 32.7656 33.3743 34.7795 38.4843 34.0815C49.3323 32.62 36.7106 28.2256 36.7106 28.2256Z" fill="url(#paint10_linear_958_46730)"/>
<path d="M38.0715 19.0303C36.7463 19.2232 35.6859 20.2287 35.4236 21.5413C35.4236 21.5413 34.8005 24.0876 35.2326 24.1028H35.3833C35.589 24.1054 35.7787 24.2136 35.8858 24.3889C36.3164 25.1012 37.0031 25.6223 37.8052 25.8454C37.9382 25.8808 38.0474 25.9755 38.1014 26.102C38.1553 26.2285 38.148 26.3728 38.0816 26.4933C37.8705 26.8448 37.5792 27.0306 37.6344 27.3872C38.192 30.5312 42.4026 29.2204 42.885 27.7338C42.265 27.3176 41.7714 26.739 41.458 26.0614C41.1404 25.3455 41.1188 24.5332 41.3978 23.8014C41.5903 23.2611 41.6557 22.6836 41.5887 22.1139C41.3817 20.3316 39.9852 19.0118 38.3975 19.0117C38.2896 19.0117 38.1808 19.0178 38.0715 19.0303Z" fill="#FFC599"/>
<path d="M33.354 43.4329C33.1228 44.578 32.9621 45.3916 32.8516 46.0394C39.2348 45.5549 44.4859 40.8243 45.6289 34.5284C45.1768 33.1524 44.7044 31.8616 44.2824 30.7618C44.197 30.5107 43.9156 29.6921 43.5288 28.7529C43.4734 28.5972 43.4081 28.4466 43.3428 28.306C42.6192 26.6235 41.6344 24.7904 40.8305 24.9964C38.3584 25.7246 37.3636 27.196 37.2179 27.4271L37.1525 27.5276C37.0822 27.6329 37.0068 27.7334 36.9315 27.8339C36.3772 28.6486 35.9059 29.5168 35.5246 30.4253C35.5246 30.4253 37.032 29.23 36.2532 32.3288C35.3739 36.0352 34.1931 39.2745 33.354 43.4329Z" fill="url(#paint11_linear_958_46730)"/>
<path d="M35.6651 30.2252C33.9417 33.5248 29.8768 39.6669 23.4303 33.9115L22.3952 35.0867C22.0601 35.4659 22.0733 36.0389 22.4253 36.4024C24.7617 38.8232 33.5648 46.2411 42.2573 31.4255C44.5736 27.473 41.3027 27.4629 38.8506 27.91C37.4882 28.1489 36.3126 29.0034 35.6651 30.2252Z" fill="#DD8E9E"/>
<path d="M38.4302 17.9199C36.228 17.9259 35.2138 19.3238 34.8324 20.0715C34.69 20.3364 34.7623 20.6652 35.0027 20.8463C35.4958 21.2464 36.1228 21.4447 36.7569 21.4011C37.6742 21.2611 37.8899 22.3259 37.9851 22.8258C38.009 22.9477 38.116 23.0355 38.2407 23.0356C38.3771 23.036 38.4907 22.9314 38.5013 22.7958C38.5121 22.3224 38.8216 21.9074 39.2731 21.7611C40.1754 21.4612 40.431 22.9457 39.8395 23.8604C39.4693 24.433 39.8453 24.3435 40.3492 24.2542C40.6504 24.2008 40.9975 24.1474 41.2581 24.2353C41.659 24.3702 43.5085 18.737 39.5539 18.0272C39.1603 17.9542 38.7961 17.9209 38.4595 17.9199H38.4302Z" fill="#250D06"/>
<path d="M37.9841 20.3652C37.9677 20.8914 37.5921 21.3357 37.0801 21.4345C37.7594 21.5504 37.9392 22.4482 38.0491 22.897C38.0879 23.0083 38.1957 23.0796 38.3122 23.0714C38.4286 23.0631 38.5254 22.9773 38.5486 22.8618C38.5594 22.3841 38.8678 21.9654 39.3178 21.8178C40.217 21.5152 40.4717 23.013 39.8822 23.936C39.5133 24.5138 39.888 24.4236 40.3902 24.3334C40.6904 24.2795 41.0361 24.2256 41.2958 24.3142C41.4706 24.3748 41.9153 23.3056 42.0401 22.07C41.8453 23.1946 40.7914 23.0484 40.8063 21.3739C40.8158 20.3095 39.7452 19.5997 38.9178 19.5996C38.4438 19.5995 38.0496 19.8325 37.9841 20.3652Z" fill="url(#paint12_linear_958_46730)"/>
<path d="M37.8809 39.6C37.8809 39.8652 38.0957 40.08 38.3609 40.08C38.6259 40.08 38.8409 39.8652 38.8409 39.6C38.8409 39.335 38.6259 39.1201 38.3609 39.1201C38.0957 39.1201 37.8809 39.335 37.8809 39.6Z" fill="white"/>
<path d="M20.1687 33.4541C20.4551 35.4631 22.8016 35.4933 22.8016 35.4933L23.4297 33.9313C23.4297 33.9313 23.1734 32.7863 22.3695 32.9269C21.8459 33.0298 21.3702 32.7722 20.9897 32.5146C20.6682 32.2969 20.4146 32.0792 20.2578 32.0791C20.0659 32.0791 20.0189 32.4046 20.1687 33.4541Z" fill="#FFC599"/>
<path d="M25.2618 24.5348L25.2866 24.5801C25.3278 24.6552 25.2586 24.7723 25.1322 24.8416L20.2469 27.5197C20.1205 27.589 19.9845 27.5843 19.9433 27.5093L19.9185 27.464C19.8773 27.389 19.9465 27.2719 20.0729 27.2026L24.9582 24.5245C25.0846 24.4552 25.2206 24.4598 25.2618 24.5348Z" fill="white"/>
<g opacity="0.861362">
<path d="M23.6728 26.6092L23.6976 26.6545C23.7388 26.7295 23.6696 26.8467 23.5432 26.916L20.6959 28.4777C20.5695 28.547 20.4335 28.5424 20.3924 28.4674L20.3675 28.4221C20.3264 28.347 20.3956 28.2299 20.5219 28.1605L23.3692 26.5989C23.4956 26.5295 23.6316 26.5342 23.6728 26.6092Z" fill="white"/>
</g>
<g opacity="0.786272">
<path d="M22.9437 28.206L22.9685 28.2513C23.0097 28.3263 22.9405 28.4435 22.8141 28.5128L21.2115 29.3918C21.0852 29.4611 20.9491 29.4564 20.908 29.3814L20.8831 29.3361C20.842 29.2611 20.9112 29.1439 21.0376 29.0746L22.6402 28.1956C22.7665 28.1263 22.9025 28.1309 22.9437 28.206Z" fill="white"/>
</g>
<path d="M27.2004 25.2335C26.3459 25.2335 25.6467 24.5343 25.6467 23.6798C25.6467 22.8252 26.3459 22.126 27.2004 22.126C28.055 22.126 28.7542 22.8252 28.7542 23.6798C28.7542 24.5343 28.055 25.2335 27.2004 25.2335Z" fill="#F7B500"/>
</g>
</g>
<defs>
<linearGradient id="paint0_linear_958_46730" x1="37.4838" y1="29.8398" x2="45.4838" y2="29.8398" gradientUnits="userSpaceOnUse">
<stop stop-color="#FFEDF6"/>
<stop offset="0.5" stop-color="#FFEDF6"/>
<stop offset="1" stop-color="#FFEDF6"/>
</linearGradient>
<linearGradient id="paint1_linear_958_46730" x1="32.0008" y1="32" x2="40.0008" y2="32" gradientUnits="userSpaceOnUse">
<stop stop-color="#FFEDF6"/>
<stop offset="0.5" stop-color="#FFEDF6"/>
<stop offset="1" stop-color="#FFEDF6"/>
</linearGradient>
<linearGradient id="paint2_linear_958_46730" x1="32.0006" y1="31.9995" x2="40.0006" y2="31.9995" gradientUnits="userSpaceOnUse">
<stop stop-color="#FFEDF6"/>
<stop offset="0.5" stop-color="#FFEDF6"/>
<stop offset="1" stop-color="#FFEDF6"/>
</linearGradient>
<linearGradient id="paint3_linear_958_46730" x1="33.2399" y1="29.7454" x2="41.2399" y2="29.7454" gradientUnits="userSpaceOnUse">
<stop stop-color="#FFEDF6"/>
<stop offset="0.5" stop-color="#FFEDF6"/>
<stop offset="1" stop-color="#FFEDF6"/>
</linearGradient>
<linearGradient id="paint4_linear_958_46730" x1="32.2008" y1="27.8293" x2="40.2008" y2="27.8293" gradientUnits="userSpaceOnUse">
<stop stop-color="#FFEDF6"/>
<stop offset="0.5" stop-color="#FFEDF6"/>
<stop offset="1" stop-color="#FFEDF6"/>
</linearGradient>
<linearGradient id="paint5_linear_958_46730" x1="35.2409" y1="25.1998" x2="43.2409" y2="25.1998" gradientUnits="userSpaceOnUse">
<stop stop-color="#FFF8FB"/>
<stop offset="0.5" stop-color="#FFEDF6"/>
<stop offset="1" stop-color="#FFEDF6"/>
</linearGradient>
<linearGradient id="paint6_linear_958_46730" x1="30.8813" y1="24.7551" x2="38.8813" y2="24.7551" gradientUnits="userSpaceOnUse">
<stop stop-color="#FFF8FB"/>
<stop offset="0.5" stop-color="#FFF8FB"/>
<stop offset="1" stop-color="#FFF8FB"/>
</linearGradient>
<linearGradient id="paint7_linear_958_46730" x1="32.0004" y1="31.9997" x2="40.0004" y2="31.9997" gradientUnits="userSpaceOnUse">
<stop stop-color="#EAC9A8"/>
<stop offset="0.5" stop-color="#E6B6A1"/>
<stop offset="1" stop-color="#FFEDF6"/>
</linearGradient>
<linearGradient id="paint8_linear_958_46730" x1="32.0001" y1="32.0004" x2="40.0001" y2="32.0004" gradientUnits="userSpaceOnUse">
<stop stop-color="#FFEDF6"/>
<stop offset="0.5" stop-color="#FFF8FB"/>
<stop offset="1" stop-color="#FFF8FB"/>
</linearGradient>
<linearGradient id="paint9_linear_958_46730" x1="24.0408" y1="28.4567" x2="32.0408" y2="28.4567" gradientUnits="userSpaceOnUse">
<stop stop-color="#FF3090"/>
<stop offset="0.5" stop-color="#E2136E"/>
<stop offset="1" stop-color="#E2136E"/>
</linearGradient>
<linearGradient id="paint10_linear_958_46730" x1="37.8302" y1="31.5025" x2="45.8302" y2="31.5025" gradientUnits="userSpaceOnUse">
<stop stop-color="#F1AFAF"/>
<stop offset="0.5" stop-color="#FBE0DD"/>
<stop offset="1" stop-color="#FBE0DD"/>
</linearGradient>
<linearGradient id="paint11_linear_958_46730" x1="39.2403" y1="35.4149" x2="47.2403" y2="35.4149" gradientUnits="userSpaceOnUse">
<stop stop-color="#F1AFAF"/>
<stop offset="0.5" stop-color="#DD8E9E"/>
<stop offset="1" stop-color="#8F4D6E"/>
</linearGradient>
<linearGradient id="paint12_linear_958_46730" x1="39.5601" y1="22.0566" x2="47.5601" y2="22.0566" gradientUnits="userSpaceOnUse">
<stop stop-color="#40262D"/>
<stop offset="0.5" stop-color="#3A202A"/>
<stop offset="1" stop-color="#341B27"/>
</linearGradient>
<clipPath id="clip0_958_46730">
<rect width="64" height="48" fill="white" transform="translate(0 8)"/>
</clipPath>
</defs>
</svg>
