<svg width="64" height="65" viewBox="0 0 64 65" fill="none" xmlns="http://www.w3.org/2000/svg">
<circle cx="32" cy="32.5" r="32" fill="#E8E0CE"/>
<g clip-path="url(#clip0_958_47574)">
<mask id="mask0_958_47574" style="mask-type:luminance" maskUnits="userSpaceOnUse" x="-5" y="-7" width="74" height="57">
<path d="M68.6673 -6.5H-4.66602V49.3462H68.6673V-6.5Z" fill="white"/>
</mask>
<g mask="url(#mask0_958_47574)">
<mask id="mask1_958_47574" style="mask-type:luminance" maskUnits="userSpaceOnUse" x="-5" y="-7" width="74" height="57">
<path d="M-4.66602 -6.5H68.6673V49.3462H-4.66602V-6.5Z" fill="white"/>
</mask>
<g mask="url(#mask1_958_47574)">
<path d="M31.9937 20.9204C34.9587 20.9196 37.3624 23.3576 37.3632 26.364C37.364 29.3703 34.9616 31.8096 31.9966 31.8104C29.0376 31.8112 26.6389 29.3737 26.6381 26.3669C26.6374 23.36 29.0347 20.9212 31.9937 20.9204ZM32.6916 27.0977C32.6916 27.3193 32.6358 27.5185 32.5231 27.6949C32.4108 27.8717 32.2463 28.01 32.03 28.1101C31.8132 28.2102 31.5561 28.2601 31.2591 28.2602C30.903 28.2603 30.6092 28.1919 30.3781 28.0556C30.2136 27.9575 30.0802 27.8263 29.9779 27.662C29.8752 27.4978 29.8238 27.3382 29.8238 27.1832C29.8238 27.0934 29.8545 27.0161 29.9159 26.9519C29.9777 26.8881 30.0561 26.856 30.151 26.856C30.2284 26.8559 30.2935 26.8806 30.3467 26.9308C30.4003 26.9806 30.4457 27.0551 30.4833 27.1532C30.5296 27.2696 30.5792 27.3673 30.6324 27.4455C30.686 27.5241 30.7612 27.5883 30.8579 27.6395C30.9546 27.6902 31.0821 27.7153 31.2393 27.7152C31.4561 27.7152 31.632 27.6639 31.7672 27.5615C31.9029 27.4591 31.9707 27.3311 31.9706 27.178C31.9706 27.056 31.9339 26.9574 31.861 26.8816C31.7877 26.8057 31.6932 26.748 31.5777 26.708C31.4617 26.668 31.3073 26.6257 31.1134 26.5806C30.8544 26.5193 30.6371 26.4472 30.4625 26.3644C30.2874 26.2821 30.1489 26.1695 30.0462 26.0271C29.9435 25.8848 29.8922 25.7079 29.8921 25.4962C29.892 25.2947 29.9465 25.1155 30.0547 24.9586C30.1628 24.8022 30.3195 24.6816 30.5248 24.5973C30.7297 24.5131 30.9712 24.4711 31.2485 24.471C31.4699 24.471 31.6615 24.4988 31.8233 24.5546C31.9851 24.6104 32.1189 24.6844 32.2258 24.777C32.3326 24.8691 32.4105 24.9664 32.4596 25.0678C32.5091 25.1697 32.5339 25.2688 32.5339 25.3652C32.5339 25.4536 32.5028 25.5332 32.4414 25.6044C32.38 25.6751 32.303 25.7105 32.2113 25.7106C32.1275 25.7106 32.0642 25.6892 32.0206 25.6468C31.9771 25.6045 31.9299 25.5347 31.879 25.4379C31.8134 25.2997 31.7345 25.1918 31.6424 25.1146C31.5507 25.0369 31.4026 24.9983 31.1991 24.9983C31.0108 24.9984 30.8586 25.0403 30.7427 25.1246C30.6272 25.2088 30.569 25.3103 30.569 25.4285C30.5691 25.5016 30.5888 25.5653 30.6282 25.6184C30.6676 25.6719 30.7217 25.7175 30.791 25.7556C30.8597 25.7942 30.9294 25.824 31 25.8458C31.0706 25.8672 31.1875 25.8988 31.3497 25.9407C31.5532 25.989 31.7375 26.042 31.9025 26.1006C32.0675 26.1588 32.2078 26.2295 32.3233 26.3127C32.4393 26.396 32.5296 26.5016 32.5943 26.6291C32.6594 26.7561 32.6915 26.9125 32.6916 27.0977ZM34.1256 24.9775L33.437 27.8598C33.4141 27.9548 33.394 28.0297 33.377 28.0846C33.3596 28.1395 33.3335 28.1828 33.2982 28.2136C33.263 28.2443 33.2116 28.2596 33.1443 28.2597C32.977 28.2597 32.8931 28.1867 32.893 28.0401C32.893 28.0014 32.9095 27.9056 32.9425 27.7525L33.6283 24.8702C33.6644 24.717 33.6988 24.6118 33.7318 24.5551C33.7643 24.4987 33.8285 24.4703 33.9238 24.4703C34.0058 24.4703 34.0686 24.4903 34.1122 24.5303C34.1553 24.5703 34.1773 24.6252 34.1773 24.695C34.1773 24.7467 34.1599 24.8407 34.1256 24.9775Z" fill="#C19025"/>
<path d="M31.9937 20.9204C34.9585 20.9196 37.3624 23.3575 37.3632 26.364C37.364 29.3704 34.9614 31.8096 31.9966 31.8104C29.0376 31.8112 26.6389 29.3736 26.6381 26.3669C26.6374 23.3602 29.0348 20.9212 31.9937 20.9204Z" stroke="#E5B831" stroke-width="9" stroke-miterlimit="10"/>
<path d="M32.6929 27.097C32.6929 27.3187 32.6367 27.5178 32.5243 27.6945C32.412 27.8711 32.2475 28.0095 32.0309 28.1095C31.8143 28.2095 31.5574 28.2596 31.2604 28.2597C30.9043 28.2598 30.6105 28.1916 30.379 28.055C30.2149 27.9567 30.0815 27.8255 29.9789 27.6614C29.8762 27.4973 29.825 27.3377 29.8249 27.1828C29.8249 27.0928 29.8556 27.0157 29.9171 26.9515C29.9787 26.8874 30.057 26.8553 30.1522 26.8552C30.2294 26.8552 30.2946 26.8802 30.348 26.9301C30.4013 26.9802 30.4469 27.0543 30.4846 27.1526C30.5306 27.2692 30.5803 27.3667 30.6336 27.445C30.687 27.5233 30.7621 27.5879 30.859 27.6387C30.9558 27.6895 31.083 27.7149 31.2406 27.7148C31.4572 27.7148 31.6332 27.6635 31.7686 27.5609C31.9039 27.4584 31.9716 27.3305 31.9715 27.1772C31.9715 27.0555 31.935 26.9568 31.8619 26.881C31.7888 26.8052 31.6945 26.7473 31.5788 26.7074C31.4631 26.6674 31.3084 26.625 31.1147 26.58C30.8554 26.5185 30.6383 26.4464 30.4635 26.364C30.2887 26.2815 30.1499 26.1691 30.0474 26.0266C29.9448 25.8842 29.8935 25.7072 29.8934 25.4955C29.8934 25.2939 29.9474 25.1148 30.0558 24.958C30.164 24.8014 30.3207 24.681 30.5258 24.5967C30.731 24.5126 30.9722 24.4704 31.2496 24.4703C31.4711 24.4703 31.6627 24.4981 31.8244 24.5539C31.9861 24.6097 32.1203 24.6838 32.227 24.7762C32.3337 24.8687 32.4117 24.9658 32.4609 25.0674C32.5102 25.169 32.5348 25.2682 32.5348 25.3648C32.5349 25.4532 32.5041 25.5327 32.4426 25.6036C32.381 25.6744 32.3043 25.7098 32.2124 25.7098C32.1287 25.7098 32.0651 25.6886 32.0216 25.6462C31.9781 25.6037 31.9309 25.5341 31.88 25.4375C31.8144 25.2992 31.7355 25.1913 31.6436 25.1138C31.5517 25.0364 31.404 24.9977 31.2005 24.9977C31.0117 24.9978 30.8595 25.04 30.7438 25.1241C30.6282 25.2083 30.5703 25.3095 30.5704 25.4278C30.5704 25.5012 30.5901 25.5645 30.6295 25.6178C30.6689 25.6712 30.7231 25.7169 30.792 25.7552C30.861 25.7935 30.9307 25.8235 31.0013 25.8452C31.0719 25.8668 31.1884 25.8984 31.3509 25.9401C31.5544 25.9884 31.7386 26.0416 31.9036 26.0999C32.0685 26.1582 32.2089 26.229 32.3246 26.3122C32.4403 26.3955 32.5306 26.5009 32.5955 26.6284C32.6604 26.7558 32.6928 26.912 32.6929 27.097Z" fill="#E5B831"/>
<path d="M34.1261 24.9767L33.4376 27.8591C33.4146 27.954 33.3945 28.029 33.3772 28.084C33.3601 28.139 33.3338 28.182 33.2985 28.2128C33.2632 28.2436 33.212 28.259 33.1447 28.259C32.9773 28.259 32.8935 28.1858 32.8935 28.0392C32.8935 28.0009 32.9098 27.905 32.9427 27.7517L33.6287 24.8694C33.6648 24.7161 33.6992 24.6111 33.7321 24.5544C33.7649 24.4978 33.8289 24.4695 33.9241 24.4694C34.0061 24.4694 34.0689 24.4894 34.1124 24.5294C34.1559 24.5693 34.1777 24.6243 34.1777 24.6943C34.1777 24.746 34.1605 24.8401 34.1261 24.9767Z" fill="#E5B831"/>
<path d="M36.0484 31.9961C36.0484 30.4134 37.3236 29.1184 38.8823 29.1184H42.3379V26.0301C42.3379 24.704 41.2694 23.6191 39.9634 23.6191H22.7123C21.4064 23.6191 20.3379 24.704 20.3379 26.0301V37.962C20.3379 39.288 21.4064 40.373 22.7123 40.373H31.4241H39.9634C41.2694 40.373 42.3379 39.288 42.3379 37.962V34.8737H38.8823C37.3236 34.8737 36.0484 33.5787 36.0484 31.9961Z" stroke="#67432B" stroke-width="19" stroke-miterlimit="10"/>
<path d="M36.0484 31.9961C36.0484 30.4134 37.3236 29.1184 38.8823 29.1184H42.3379V26.0301C42.3379 24.704 41.2694 23.6191 39.9634 23.6191H22.7123C21.4064 23.6191 20.3379 24.704 20.3379 26.0301V37.962C20.3379 39.288 21.4064 40.373 22.7123 40.373H31.4241H39.9634C41.2694 40.373 42.3379 39.288 42.3379 37.962V34.8737H38.8823C37.3236 34.8737 36.0484 33.5787 36.0484 31.9961Z" fill="#67432A"/>
<path d="M42.6894 29.1182H42.3384H38.8828C37.3241 29.1182 36.0488 30.4132 36.0488 31.9959C36.0488 33.5786 37.3241 34.8735 38.8828 34.8735H42.3384H42.6894C43.1957 34.8735 43.6061 34.4567 43.6061 33.9427V30.0489C43.6061 29.535 43.1957 29.1182 42.6894 29.1182Z" stroke="#573420" stroke-width="20" stroke-miterlimit="10"/>
<path d="M42.6894 29.1182H42.3384H38.8828C37.3241 29.1182 36.0488 30.4132 36.0488 31.9959C36.0488 33.5786 37.3241 34.8735 38.8828 34.8735H42.3384H42.6894C43.1957 34.8735 43.6061 34.4567 43.6061 33.9427V30.0489C43.6061 29.535 43.1957 29.1182 42.6894 29.1182Z" fill="#56351F"/>
<path d="M40.0072 31.9962C40.0072 32.5103 39.5968 32.927 39.0905 32.927C38.5843 32.927 38.1738 32.5103 38.1738 31.9962C38.1738 31.4821 38.5843 31.0654 39.0905 31.0654C39.5968 31.0654 40.0072 31.4821 40.0072 31.9962Z" stroke="#C19125" stroke-width="10" stroke-miterlimit="10"/>
<path d="M40.0072 31.9962C40.0072 32.5103 39.5968 32.927 39.0905 32.927C38.5843 32.927 38.1738 32.5103 38.1738 31.9962C38.1738 31.4821 38.5843 31.0654 39.0905 31.0654C39.5968 31.0654 40.0072 31.4821 40.0072 31.9962Z" fill="#C19125"/>
</g>
</g>
</g>
<defs>
<clipPath id="clip0_958_47574">
<rect width="40" height="33" fill="white" transform="translate(12 15.5)"/>
</clipPath>
</defs>
</svg>
