<svg width="64" height="65" viewBox="0 0 64 65" fill="none" xmlns="http://www.w3.org/2000/svg">
<circle cx="32" cy="32.5" r="32" fill="#EFEDFE"/>
<g clip-path="url(#clip0_958_47261)">
<mask id="mask0_958_47261" style="mask-type:luminance" maskUnits="userSpaceOnUse" x="-14" y="-12" width="94" height="95">
<path d="M80 -11.3164H-14V82.6836H80V-11.3164Z" fill="white"/>
</mask>
<g mask="url(#mask0_958_47261)">
<path d="M42.3874 28.2529C42.3874 28.2529 40.0194 33.477 37.5129 34.4948C35.88 35.1558 35.733 37.0046 32.9656 37.0321C32.4821 37.0366 32.1113 36.4997 32.1113 36.4997C32.5915 35.8353 35.9973 31.9271 36.4865 31.4812C36.6425 31.3368 39.3918 22.4113 40.5285 21.5014C41.6587 20.6009 42.3874 28.2529 42.3874 28.2529Z" fill="#FF505C"/>
<path d="M35.4337 35.4558C37.5348 35.0876 38.9387 33.8476 39.8874 31.9338C40.3164 31.0682 40.3856 30.129 40.3266 29.1777C40.2653 28.1862 40.2198 27.1379 39.6223 26.3099C39.473 26.1031 39.1715 26.3588 39.3193 26.5641C39.3471 26.6017 39.3674 26.6438 39.3922 26.6833C39.3888 26.6953 39.3824 26.7047 39.3805 26.7183C39.1659 28.4298 39.1012 30.8347 37.9213 32.2C36.9941 33.2723 35.8104 33.8374 35.2137 35.1944C35.1528 35.3324 35.2949 35.4798 35.4337 35.4558Z" fill="#FB3B4B"/>
<path d="M43.068 28.0403C42.3325 28.4358 41.5933 28.6927 40.8304 28.7679C40.6762 28.7874 40.5221 28.7953 40.3675 28.7953C39.6719 28.7994 38.0213 28.3697 37.2501 28.0414C37.1911 27.6301 37.7859 25.1462 38.6955 23.5054C38.8891 23.1576 39.2211 22.6199 39.6246 22.1927C40.0118 21.7739 40.4706 21.4577 40.9214 21.5325C40.9962 21.5449 41.0677 21.5641 41.1425 21.5998C42.7081 22.3274 42.9811 25.6328 43.068 28.0403Z" fill="#B0A6FF"/>
<path d="M41.746 27.9531C41.5283 28.123 41.1365 28.4787 40.8286 28.7675C40.674 28.9138 40.5436 29.0442 40.4609 29.1273C40.4372 29.0322 40.4056 28.9217 40.3657 28.7949C39.9348 27.4391 38.6854 24.5014 39.002 23.4896C39.1362 23.0583 39.346 22.6037 39.6228 22.1928C40.01 21.7735 40.4688 21.4577 40.9192 21.5325C40.6819 21.916 40.2668 22.7146 40.0416 23.0425C39.7649 23.9757 39.828 25.0552 40.1642 25.9528C40.2589 26.1227 41.675 27.7749 41.746 27.9531Z" fill="#9E89FF"/>
<path d="M32.5762 55.7227V57.2146C32.5762 57.3838 33.1037 57.5207 33.7546 57.5207C34.4054 57.5207 34.9329 57.3838 34.9329 57.2146V55.7227H32.5762Z" fill="#354D5E"/>
<path d="M34.9329 55.7582C34.9329 55.9469 34.4054 56.1003 33.7546 56.1003C33.1037 56.1003 32.5762 55.9469 32.5762 55.7582C32.5762 55.569 33.1037 55.416 33.7546 55.416C34.4054 55.416 34.9329 55.569 34.9329 55.7582Z" fill="#04293B"/>
<path d="M34.572 55.7225H32.9395V42.8701H34.572V55.7225Z" fill="#AED2D9"/>
<path d="M34.572 55.7142C34.572 55.8067 34.2062 55.8815 33.7557 55.8815C33.3049 55.8815 32.9395 55.8067 32.9395 55.7142C32.9395 55.6217 33.3049 55.5469 33.7557 55.5469C34.2062 55.5469 34.572 55.6217 34.572 55.7142Z" fill="#AED2D9"/>
<path d="M21.5013 42.8695L14.2479 35.0878C13.9839 34.8043 13.9685 34.37 14.2114 34.0684L15.559 32.5889L25.3775 42.8695H21.5013Z" fill="#EDF1F6"/>
<path d="M24.4587 42.8695L15.5915 33.3559C15.2395 32.9784 15.5069 32.3633 16.0227 32.3633H28.0062C28.8338 32.3633 29.6242 32.7069 30.1885 33.3123L39.0964 42.8695H24.4587Z" fill="#D2E7EA"/>
<path d="M32.5761 36.9023H24.3567L24.0273 38.6244L31.9628 38.5861C32.3016 38.5861 32.5761 38.3112 32.5761 37.9728V36.9023Z" fill="#EDF1F6"/>
<path d="M24.599 38.323C24.1997 38.746 23.5248 38.74 23.133 38.3102L17.7216 32.3728C17.5577 32.1968 17.5479 31.9268 17.6987 31.7392L18.4533 30.9116C18.4984 30.8624 18.5755 30.8612 18.6217 30.9098L25.0829 37.6507C25.1258 37.695 25.1258 37.765 25.0837 37.8097L24.599 38.323Z" fill="#EDF1F6"/>
<path d="M23.5719 36.6758L18.5583 31.2967C18.3395 31.0625 18.506 30.6797 18.8264 30.6797H26.2723C26.7863 30.6797 27.2777 30.8933 27.6285 31.2696L32.4553 36.449C32.7245 36.7378 32.5196 37.2086 32.1251 37.2086H24.7954C24.3314 37.2086 23.8881 37.0149 23.5719 36.6758Z" fill="#D2E7EA"/>
<path d="M51.3875 42.8694H21.5V40.3193H51.3875V42.8694Z" fill="#EDF1F6"/>
<path d="M58.2573 42.8694H48.0992C47.395 42.8694 46.8242 42.2982 46.8242 41.594C46.8242 40.8897 47.395 40.3193 48.0992 40.3193H58.2573C58.9615 40.3193 59.5323 40.8897 59.5323 41.594C59.5323 42.2982 58.9615 42.8694 58.2573 42.8694Z" fill="#D2E7EA"/>
<path d="M21.1387 55.7227V57.2146C21.1387 57.3838 21.6662 57.5207 22.3171 57.5207C22.9679 57.5207 23.4954 57.3838 23.4954 57.2146V55.7227H21.1387Z" fill="#354D5E"/>
<path d="M23.4954 55.7582C23.4954 55.9469 22.9679 56.1003 22.3171 56.1003C21.6662 56.1003 21.1387 55.9469 21.1387 55.7582C21.1387 55.569 21.6662 55.416 22.3171 55.416C22.9679 55.416 23.4954 55.569 23.4954 55.7582Z" fill="#04293B"/>
<path d="M23.1326 55.7225H21.5V42.8701H23.1326V55.7225Z" fill="#AED2D9"/>
<path d="M23.1326 55.7142C23.1326 55.8067 22.7671 55.8815 22.3167 55.8815C21.8658 55.8815 21.5 55.8067 21.5 55.7142C21.5 55.6217 21.8658 55.5469 22.3167 55.5469C22.7671 55.5469 23.1326 55.6217 23.1326 55.7142Z" fill="#AED2D9"/>
<path d="M44.4902 55.7227V57.2146C44.4902 57.3838 45.0181 57.5207 45.6694 57.5207C46.3199 57.5207 46.8478 57.3838 46.8478 57.2146V55.7227H44.4902Z" fill="#354D5E"/>
<path d="M46.849 55.7582C46.849 55.9469 46.3214 56.1003 45.6706 56.1003C45.0197 56.1003 44.4922 55.9469 44.4922 55.7582C44.4922 55.569 45.0197 55.416 45.6706 55.416C46.3214 55.416 46.849 55.569 46.849 55.7582Z" fill="#04293B"/>
<path d="M46.4859 55.7225H44.8533V42.8701H46.4859V55.7225Z" fill="#AED2D9"/>
<path d="M46.4859 55.7142C46.4859 55.8067 46.1201 55.8815 45.6696 55.8815C45.2188 55.8815 44.8533 55.8067 44.8533 55.7142C44.8533 55.6217 45.2188 55.5469 45.6696 55.5469C46.1201 55.5469 46.4859 55.6217 46.4859 55.7142Z" fill="#AED2D9"/>
<path d="M55.9297 55.7227V57.2146C55.9297 57.3838 56.4572 57.5207 57.1084 57.5207C57.7589 57.5207 58.2868 57.3838 58.2868 57.2146V55.7227H55.9297Z" fill="#354D5E"/>
<path d="M58.2865 55.7582C58.2865 55.9469 57.7589 56.1003 57.1081 56.1003C56.4572 56.1003 55.9297 55.9469 55.9297 55.7582C55.9297 55.569 56.4572 55.416 57.1081 55.416C57.7589 55.416 58.2865 55.569 58.2865 55.7582Z" fill="#04293B"/>
<path d="M57.9239 55.7225H56.2913V42.8701H57.9239V55.7225Z" fill="#AED2D9"/>
<path d="M57.9239 55.7142C57.9239 55.8067 57.558 55.8815 57.1076 55.8815C56.6567 55.8815 56.2913 55.8067 56.2913 55.7142C56.2913 55.6217 56.6567 55.5469 57.1076 55.5469C57.558 55.5469 57.9239 55.6217 57.9239 55.7142Z" fill="#AED2D9"/>
<path d="M30.8347 52.983C31.0411 52.8499 32.5632 53.5294 32.5474 53.6294C32.4985 53.9347 32.2011 55.0695 32.0014 55.1661C31.8085 55.2593 30.2391 54.7273 30.3027 54.4359C30.3572 54.1844 30.6354 53.1116 30.8347 52.983Z" fill="#FF505C"/>
<path d="M44.9272 38.9356C43.9271 40.9134 40.3513 41.7176 37.6968 42.4174C36.1063 42.8385 34.8467 43.2216 34.6775 43.8007C34.0157 46.0646 33.5495 52.0166 32.9216 54.0997C32.696 54.3591 32.226 54.3629 31.7372 54.2726C30.9476 54.1298 30.1016 53.735 30.1016 53.735C30.2444 49.0951 29.8609 44.7674 30.6054 41.5488C31.8537 36.1419 40.0392 33.6716 40.0392 33.6716C41.4756 32.0999 46.6794 35.4689 44.9272 38.9356Z" fill="#5E40D4"/>
<path d="M41.2054 34.8593C41.0889 34.8254 41.0137 34.9082 41.0024 35.0022C40.9873 35.0093 40.9685 35.0134 40.9535 35.0244C39.3405 36.1373 37.1672 36.5923 35.9414 38.2204C35.4564 38.8712 35.2646 39.6382 35.1067 40.4162C34.8623 41.6122 34.3773 42.5632 33.8772 43.6614C32.9861 45.6204 32.3393 47.8538 31.9182 49.9632C31.7077 51.0194 31.5911 52.1023 31.64 53.1814C31.6588 53.5273 31.6625 53.915 31.7377 54.2722C32.2265 54.3624 32.6965 54.3583 32.9221 54.0992C33.5501 52.0162 34.0163 46.0641 34.6781 43.8002C34.8473 43.2212 36.1069 42.838 37.6973 42.4169C38.2877 41.6912 38.9156 40.9952 39.5849 40.3372C40.4534 39.4803 41.4611 38.7659 42.3071 37.8861C43.5404 36.5964 42.7771 35.2992 41.2054 34.8593Z" fill="#31177C"/>
<path d="M39.206 54.7126C39.3064 54.4885 40.9526 54.2264 40.9939 54.3189C41.1199 54.6013 41.4902 55.7142 41.3759 55.9037C41.265 56.0876 39.6599 56.4989 39.5538 56.2203C39.4625 55.9793 39.1094 54.9291 39.206 54.7126Z" fill="#FF505C"/>
<path d="M49.9243 39.1352C48.3263 42.3011 42.0847 41.3987 41.6335 42.9399C40.9717 45.2038 40.5431 53.3968 41.3966 54.7128C41.3214 54.7952 41.2349 54.8741 41.1334 54.9497C40.4265 55.4682 39.1895 55.7318 39.1895 55.7318C37.7494 52.5772 36.3131 46.422 36.095 42.8538C35.7566 37.3191 45.0363 33.8712 45.0363 33.8712C46.2094 32.589 49.8942 34.6002 50.2514 37.2661C50.3341 37.868 50.2439 38.4997 49.9243 39.1352Z" fill="#5E40D4"/>
<path d="M50.2507 37.2662C49.965 37.1233 49.6303 37.0526 49.2769 37.0865C49.0814 37.1049 49.0701 37.3493 49.1979 37.4317C48.3482 39.8531 45.6109 40.4776 43.3586 40.9175C41.7606 41.2296 40.471 41.6993 40.125 43.4477C39.9182 44.4783 39.922 45.5687 39.8468 46.6139C39.7754 47.6446 39.6776 48.6744 39.6738 49.7084C39.6701 51.5926 40.1551 53.3665 41.1327 54.9495C41.2342 54.8743 41.3207 54.7957 41.3959 54.713C40.5424 53.397 40.971 45.2039 41.6328 42.9404C42.084 41.3988 48.3256 42.3012 49.9236 39.1353C50.2432 38.4995 50.3334 37.8682 50.2507 37.2662Z" fill="#31177C"/>
<path d="M32.2289 54.8681C32.2289 54.8681 32.4906 56.1805 31.6429 56.7495C31.6429 56.7495 27.9085 55.3181 26.8791 54.6619C26.8791 54.6619 27.4414 53.2998 28.439 53.6001C29.4362 53.9008 30.3698 54.3495 30.3698 54.3495C30.3698 54.3495 31.2138 55.3129 32.2289 54.8681Z" fill="#1F0D52"/>
<path d="M41.4203 55.5339C41.4203 55.5339 42.2037 56.6195 41.6683 57.4894C41.6683 57.4894 37.6762 57.7378 36.4672 57.5678C36.4672 57.5678 36.4133 56.0961 37.4458 55.9548C38.4774 55.8138 39.5133 55.8347 39.5133 55.8347C39.5133 55.8347 40.6814 56.36 41.4203 55.5339Z" fill="#1F0D52"/>
<path d="M38.5 34.1844C38.5564 34.3611 41.0128 35.7689 42.3837 36.284C44.7612 37.177 48.7813 37.8718 49.8116 37.6763C50.2327 37.5973 50.5038 37.4845 50.5677 37.3492C50.767 36.9205 50.0804 32.7488 50.1631 29.9736C50.1782 29.4359 50.1895 28.8903 50.1895 28.3564C50.2045 25.5665 50.009 22.9536 49.3773 22.4686C49.2344 22.3558 49.069 22.2392 48.8847 22.1152C48.6103 21.9272 48.2907 21.7316 47.9297 21.5436C47.3657 21.2466 46.7039 20.9721 45.9632 20.7841C44.8239 20.4871 43.4967 20.3897 42.0378 20.724C42.0378 20.724 42.0378 20.7277 42.034 20.7277C41.6806 20.8067 41.3196 20.912 40.9511 21.0511C40.8647 21.0812 40.7782 21.115 40.6879 21.1488C39.4547 21.6452 39.6314 24.3298 39.8307 26.582C39.9209 27.6277 40.0149 28.5786 39.9773 29.1727C39.9623 29.372 39.9397 29.5709 39.9021 29.7664C39.6239 31.4245 38.7068 32.9774 38.5 34.1844Z" fill="#B0A6FF"/>
<path d="M43.1209 19.3429V20.5491C43.1209 20.5491 42.8359 21.0721 43.1209 21.1289C43.7477 21.2545 44.6519 20.5503 44.6519 20.5503V18.709L43.1209 19.3429Z" fill="#FF505C"/>
<path d="M44.653 19.6168V18.8027C44.653 18.8027 43.9747 19.6653 43.2227 19.7078C43.2227 19.7078 44.028 20.0338 44.653 19.6168Z" fill="#FB3B4B"/>
<path d="M48.7954 32.4326C48.9458 33.5835 49.4403 36.5332 49.8125 37.6763C50.2336 37.5973 50.5044 37.4849 50.5683 37.3491C50.7676 36.9209 50.0814 32.7488 50.1641 29.9735C50.1791 29.4359 50.1904 28.8907 50.1904 28.3567C49.9798 27.8755 49.7166 27.4096 49.397 26.9167C48.5097 25.548 47.9261 24.5719 47.2155 23.1055C47.1591 22.9931 47.8291 22.0437 47.9043 22.0136C47.8141 21.9798 47.2978 22.0854 46.7162 22.5588C44.6523 24.2384 44.2033 27.628 45.4629 29.4479C46.324 30.6849 48.5849 30.8271 48.7954 32.4326Z" fill="#9E89FF"/>
<path d="M49.2802 35.6086C47.2649 36.7103 44.7156 35.9466 42.9371 35.1194C42.5197 34.9277 42.1475 34.7284 41.8313 34.5517C41.1733 34.1757 40.7676 33.8865 40.7676 33.8865L40.8653 32.6457C40.8653 32.6457 45.336 33.9805 46.7535 32.5363C47.9078 31.3594 46.7836 26.4192 46.6106 25.4152C46.4414 24.4523 48.2537 21.8395 48.9828 22.4336C50.3853 23.5766 50.4868 26.5996 50.5135 26.6861C50.6865 27.2576 50.8369 27.8442 50.9534 28.4345C50.9797 28.5695 51.0061 28.7015 51.0249 28.8365C51.5249 31.7204 51.2204 34.5483 49.2802 35.6086Z" fill="#FF505C"/>
<path d="M51.0254 28.8361C50.7585 28.5954 50.405 28.4796 49.935 28.5736C49.7771 28.6075 49.7696 28.7688 49.8485 28.8665V28.8853C50.4501 30.5206 50.2509 32.3554 49.262 33.7993C49.0251 34.1452 48.7356 34.4802 48.4122 34.7472C47.8745 35.1871 47.1526 35.1044 46.4984 35.0743C45.3704 35.0295 44.2461 34.9803 43.1181 34.9314C42.9941 34.9239 42.9339 35.0179 42.9377 35.1194C44.7161 35.9466 47.2654 36.7099 49.2808 35.6086C51.2209 34.5479 51.5255 31.72 51.0254 28.8361Z" fill="#FB3B4B"/>
<path d="M45.7596 28.9906C45.6678 28.5589 45.1181 25.8002 45.9671 24.0105C46.3533 23.196 47.793 21.5762 48.8529 21.9891C50.5513 22.6501 51.0581 26.1157 51.3138 28.645C49.738 29.6211 47.7091 29.6715 45.7596 28.9906Z" fill="#B0A6FF"/>
<path d="M40.5409 32.3826C39.9009 32.1379 38.8695 32.0536 38.3258 32.5887C38.0638 32.8466 38.2273 33.0199 38.542 32.9023C39.1485 32.6744 39.6362 32.7041 38.7109 32.9884C38.5244 33.0463 38.1676 33.2561 38.2104 33.3956C38.3018 33.6915 38.9402 33.4001 39.2365 33.3113C39.5012 33.3625 38.841 33.6855 38.7676 33.8141C38.4349 34.3961 39.6794 33.8253 39.7535 33.8904C39.9611 34.0731 39.0602 34.3258 39.4681 34.5025C39.7742 34.6349 40.4912 34.0664 40.7706 34.0239C41 33.9893 41.1801 34.1231 41.332 33.9013C41.6711 33.4061 40.8112 32.486 40.5409 32.3826Z" fill="#FF505C"/>
<path d="M40.7863 32.5558C40.6213 32.3494 40.2126 31.8474 39.9486 31.7651C39.8042 31.72 39.6049 31.7463 39.6974 31.9414C39.7535 32.0606 39.8824 32.1603 39.9877 32.2317C40.0832 32.2964 40.1671 32.393 40.2656 32.449C40.3663 32.5062 40.8081 32.5833 40.7863 32.5558Z" fill="#FF505C"/>
<path d="M43.1419 16.0754C43.1419 16.0754 42.4375 17.1381 42.1626 18.1772C41.9675 18.9149 43.215 20.0807 44.4689 19.1671C45.7228 18.2534 45.6183 16.5972 45.6183 16.5972L43.1419 16.0754Z" fill="#FF505C"/>
<path d="M45.1007 18.4044C45.1207 18.3873 45.1422 18.3733 45.1615 18.3557C45.3419 18.19 45.0779 17.9118 44.8971 18.0782C44.682 18.2751 44.4487 18.4189 44.1548 18.4795C43.7663 18.5595 43.6045 18.4282 43.3798 18.1576C43.3145 18.0784 43.1771 18.0802 43.105 18.146C42.846 18.3813 42.2462 17.9313 42.1139 18.3291C42.0091 18.6443 42.2962 19.2606 42.6752 19.4334C43.6839 19.8928 44.523 19.2942 45.1818 18.7218C45.3051 18.6144 45.229 18.4443 45.1007 18.4044Z" fill="#D2E7EB"/>
<path d="M42.2747 15.6227C42.6756 16.4809 43.9671 16.721 44.9421 16.8596C44.9107 16.9572 44.8924 17.0621 44.8693 17.1414C44.7681 17.495 44.5125 17.9081 44.5962 18.288C44.6518 18.5411 44.8815 18.7134 45.1438 18.6574C45.3144 18.6213 45.3896 18.5198 45.4422 18.3984C45.9492 17.8419 46.1509 16.7085 45.8148 16.0966C45.6016 15.7089 45.2281 15.5554 44.829 15.4188C44.5051 15.3076 44.2401 15.2218 43.9653 14.9991C43.8022 14.8668 43.689 14.7382 43.4891 14.6589C42.7445 14.3602 41.863 14.7415 42.2747 15.6227Z" fill="#D2E7EB"/>
<path d="M32.4162 35.9146C32.7614 35.5777 33.3829 35.2295 33.7773 35.6604C33.8273 35.6834 33.8725 35.7198 33.8901 35.7864C34.0326 36.3102 34.112 36.8095 33.8067 37.2889C33.6995 37.4573 33.428 37.3517 33.4468 37.1596C33.4739 36.8828 33.4893 36.6065 33.5002 36.3297C33.3393 36.4843 33.1896 36.6504 33.1205 36.8467C32.9855 37.2306 33.1547 37.6397 33.3148 37.9852C33.378 38.1221 33.2648 38.2751 33.1178 38.2646C32.9937 38.2556 32.8994 38.1819 32.8245 38.08C32.8463 38.1815 32.8708 38.2823 32.9005 38.3816C32.9535 38.5602 32.723 38.6526 32.5933 38.5774C32.464 38.5022 32.3756 38.3936 32.3162 38.2646C32.2105 38.3541 32.0154 38.3361 31.9925 38.1593C31.9744 38.0187 31.9597 37.8698 31.9507 37.7198C31.874 37.7126 31.8056 37.6645 31.7962 37.563C31.7371 36.9403 31.9688 36.3508 32.4162 35.9146Z" fill="#FF505C"/>
<path d="M15.7633 56.2803C15.7633 56.2803 15.0876 57.3267 15.5704 58.149C15.5704 58.149 19.0886 58.328 20.1508 58.149C20.1508 58.149 20.1786 56.7435 19.268 56.6239C18.3573 56.5047 17.3312 56.522 17.3312 56.522C17.3312 56.522 16.4247 57.0575 15.7633 56.2803Z" fill="#B0A6FF"/>
<path d="M17.4516 55.0017C17.3166 54.8186 15.8551 54.9716 15.8408 55.0668C15.7957 55.3578 15.7265 56.4737 15.866 56.6219C16.0013 56.7644 17.2632 57.0761 17.2914 56.7937C17.3162 56.5489 17.582 55.1784 17.4516 55.0017Z" fill="#FF505C"/>
<path d="M15.8026 41.4541C15.968 43.6958 15.8157 48.2153 15.6503 50.457C15.6401 50.6078 15.6398 55.815 15.6398 55.815L17.5856 56.0162C18.6444 52.5938 20.6665 44.9193 20.6665 41.512C20.6665 38.1047 20.3947 32.4267 19.2392 29.7334C18.1402 27.1728 13.8041 30.7099 13.2943 31.3378C13.0593 31.6281 13.5045 34.2206 14.12 35.9385C14.8355 37.9291 15.7131 40.249 15.8026 41.4541Z" fill="#11B1D7"/>
<path d="M15.6409 55.8152L16.8411 55.9392C16.7317 55.1214 16.8396 53.2975 16.8829 52.4654C16.9622 51.0163 17.2935 49.5999 17.6044 48.1936C18.0943 45.9628 18.5613 43.5993 17.9785 41.3324C17.6774 40.1672 17.0186 39.3565 16.482 38.327C16.1245 37.6314 15.9459 36.8497 15.9989 36.053C16.0286 35.6194 16.2768 35.0705 16.141 34.6366C15.9722 34.088 14.4577 32.2332 14.07 32.5129C13.6034 32.854 13.8388 34.1711 13.6504 34.7843C14.3652 36.7749 15.7139 40.2495 15.8034 41.4546C15.9688 43.6963 15.6266 48.197 15.5135 50.4425C15.4007 52.6778 15.6409 55.8152 15.6409 55.8152Z" fill="#0091C1"/>
<path d="M9.46397 55.0081C9.32898 54.8253 8.07578 54.972 8.06111 55.0671C8.01637 55.3585 7.94681 56.4741 8.0863 56.6222C8.22166 56.7651 9.32146 57.2295 9.34966 56.9471C9.37448 56.7031 9.59444 55.1848 9.46397 55.0081Z" fill="#FF505C"/>
<path d="M7.9114 55.8152L9.63836 56.0163C10.5393 52.7884 12.9479 47.2739 13.3021 43.8884C13.8518 38.6305 14.5155 33.0002 14.5452 31.6158C14.5485 31.3936 14.5519 31.2748 14.5519 31.2748C13.3634 29.7076 11.3488 29.0684 10.4513 28.9537C10.0971 28.9071 9.83877 28.983 9.72635 29.1838C9.362 29.8437 9.07737 30.4528 8.85553 31.0266C7.40868 34.7498 8.62692 36.9982 8.6006 41.84C8.6006 42.1197 8.59722 42.4074 8.59045 42.6905C8.5442 44.6919 9.0424 47.1566 8.51149 49.2472C7.4696 53.3478 7.9114 55.8152 7.9114 55.8152Z" fill="#11B1D7"/>
<path d="M7.91184 55.8149L8.30514 55.8563C8.29536 54.7587 8.31943 53.2059 8.42884 52.1151C8.60105 50.3938 9.04473 48.78 9.59444 47.159C10.475 44.5477 11.0676 41.9691 10.8988 39.1608C10.8059 37.6331 10.3592 36.2163 10.1637 34.7172C10.0381 33.7486 10.2231 32.8203 10.3656 31.8806C10.4419 31.346 10.5081 30.8075 10.495 30.2552C10.4814 29.8032 8.85673 30.1657 8.85673 30.9098C7.40988 34.6326 8.62737 36.998 8.60105 41.8398C8.60105 42.1195 8.59767 42.4071 8.5909 42.6903C8.54803 44.6917 8.48111 46.9684 8.18068 49.1127C7.45876 54.2684 7.91184 55.8149 7.91184 55.8149Z" fill="#0091C1"/>
<path d="M7.98397 56.2803C7.98397 56.2803 7.3083 57.3267 7.79108 58.149C7.79108 58.149 11.3093 58.328 12.3715 58.149C12.3715 58.149 12.3993 56.7435 11.4887 56.6239C10.5784 56.5047 9.41014 56.4514 9.41014 56.4514C9.41014 56.4514 8.64535 57.0575 7.98397 56.2803Z" fill="#B0A6FF"/>
<path d="M21.2205 21.5218C20.8978 21.8256 20.0728 21.464 19.7696 21.3747C19.0988 21.1769 18.4489 20.8817 17.955 20.3752C16.9726 19.3677 17.084 17.9155 17.9457 16.8652C18.3615 16.3574 18.9991 15.8304 19.617 15.5918C20.1919 15.3686 20.4934 15.6849 21.0076 15.9192C21.0204 15.9249 21.0273 15.934 21.0376 15.9408C21.1266 15.9491 21.2134 16.0094 21.2179 16.1239C21.2617 17.2808 21.2929 18.4381 21.3054 19.5959C21.3098 19.9979 21.5402 21.2208 21.2205 21.5218Z" fill="#231368"/>
<path d="M26.7061 23.106C26.7061 23.106 27.6186 23.1228 27.6265 23.2321C27.6265 23.2321 26.7896 30.5699 23.9889 31.6056C21.5898 32.493 18.0918 28.2928 19.1637 25.3869C19.1636 25.375 22.9485 26.1674 22.7568 26.5534C22.6881 26.6944 23.1747 28.4918 23.3911 28.5375C23.5894 28.577 26.6183 23.1182 26.7061 23.106Z" fill="#FF505C"/>
<path d="M19.234 27.6358C19.9931 27.868 20.7308 27.9703 21.4564 27.8991C21.6038 27.8885 21.7489 27.8676 21.893 27.8389C22.5429 27.7135 23.1939 27.4421 23.8521 26.9929C23.8311 26.5986 23.624 23.9563 22.471 22.5944C22.2258 22.3061 21.816 21.8659 21.3608 21.5426C20.9216 21.2237 20.4352 21.0136 20.0288 21.1671C19.9608 21.1925 19.8984 21.224 19.8346 21.2709C18.5095 22.2401 18.8683 25.3736 19.234 27.6358Z" fill="#EDF9FA"/>
<path d="M19.6831 27.9022C19.9176 28.0202 21.8798 27.9646 21.8932 27.8393C22.0435 26.4946 22.6639 23.5232 22.1813 22.6376C21.976 22.2606 21.6958 21.8755 21.3614 21.5432C20.9221 21.2243 20.4357 21.0142 20.0292 21.168C20.3215 21.4815 20.8573 22.1496 21.1281 22.4138C21.5596 23.2327 21.701 24.2511 21.5539 25.1509C21.4972 25.327 19.7163 27.7232 19.6831 27.9022Z" fill="#D2E7EB"/>
<path d="M28.2897 21.6359C28.2851 21.7816 28.1597 21.8782 28.0422 21.9111C27.7882 21.9814 27.6285 21.8509 27.4371 22.1947C27.3825 22.2931 27.351 22.4055 27.2909 22.5012C27.1125 22.7844 26.7552 23.2651 26.6229 23.5089C26.4395 22.8146 26.7153 21.8459 26.891 21.5521C26.9778 21.4069 27.0885 21.3055 27.2541 21.276C27.4865 21.2336 27.7922 21.3037 28.0248 21.3645C28.1598 21.4003 28.295 21.4626 28.2897 21.6359Z" fill="#FF505C"/>
<path d="M26.9338 20.8026L26.6757 20.8605L26.5231 20.1835L27.0057 19.5549L27.2161 19.716L26.8084 20.2464L26.9338 20.8026Z" fill="#0080A7"/>
<path d="M26.6602 18.1499L26.6049 19.4552C26.6015 19.5365 26.6422 19.6137 26.7113 19.6563L27.8182 20.3401C27.9574 20.4261 28.1388 20.3396 28.1597 20.1775L28.3175 18.945C28.3288 18.8578 28.2881 18.7721 28.2137 18.7255L27.0043 17.9689C26.8577 17.8779 26.6676 17.9778 26.6602 18.1499Z" fill="#4AACD4"/>
<path d="M26.8816 18.4282L26.8411 19.3713C26.8389 19.4297 26.8681 19.4855 26.9182 19.5166L27.718 20.0106C27.8186 20.0726 27.9495 20.0103 27.9647 19.8932L28.0791 19.0023C28.0873 18.9394 28.058 18.8771 28.0041 18.8439L27.1297 18.2976C27.0243 18.2311 26.8868 18.3038 26.8816 18.4282Z" fill="#7EC4EB"/>
<path d="M27.2116 18.3491L27.1107 19.6358L27.2451 19.7191L27.3257 18.4202L27.2116 18.3491Z" fill="#B1E1F4"/>
<path d="M27.4313 18.485L27.3427 19.7783L27.4156 19.8233L27.5236 18.5428L27.4313 18.485Z" fill="#B1E1F4"/>
<path d="M27.7289 18.6717L27.5586 19.9118L27.6805 19.9874L27.872 18.7612L27.7289 18.6717Z" fill="#B1E1F4"/>
<path d="M27.7652 25.0099C27.5154 25.0662 27.2676 24.9091 27.2116 24.6599L26.4128 21.1174C26.3753 20.9515 26.4793 20.7866 26.645 20.7494L26.9491 20.6809C27.1145 20.6437 27.2794 20.7476 27.3166 20.913L28.1153 24.4559C28.1715 24.706 28.0149 24.9536 27.7652 25.0099Z" fill="#35A4C7"/>
<path d="M28.1395 24.5293C28.0127 24.5158 27.7822 24.4331 27.7954 24.2905C27.7969 24.2731 27.8026 24.2578 27.8112 24.2435C27.727 24.2568 27.6399 24.2602 27.5501 24.2468C27.3609 24.2195 27.0707 24.0916 27.1944 23.8934C27.2434 23.8149 27.3228 23.7539 27.4161 23.703C27.2483 23.6816 27.0928 23.6085 26.9918 23.4544C26.8438 23.229 27.0175 23.1143 27.229 23.0449C27.0011 23.0147 26.6649 22.9259 26.7908 22.6969C26.8614 22.5682 27.0622 22.4771 27.1931 22.4076C27.3838 22.307 27.5876 22.2317 27.8019 22.174C27.81 22.172 27.8186 22.1716 27.827 22.1719C27.8464 22.1539 27.8794 22.1439 27.9192 22.1538C28.1632 22.2153 28.4407 22.4243 28.2635 22.6454C28.2187 22.7013 28.1618 22.7546 28.0975 22.8034C28.3047 22.7808 28.4941 22.8125 28.5668 22.9865C28.6438 23.1707 28.498 23.3329 28.3098 23.454C28.3149 23.4556 28.3194 23.4558 28.3243 23.458C28.426 23.5049 28.5618 23.5646 28.5773 23.679C28.5895 23.768 28.519 23.8463 28.443 23.9111C28.469 23.9134 28.4934 23.9215 28.5082 23.9383C28.7606 24.2207 28.518 24.5697 28.1395 24.5293Z" fill="#FF505C"/>
<path d="M21.9523 44.8862C21.9523 44.8862 19.1028 46.661 17.2327 46.2692C17.0664 43.7648 16.6973 41.1506 16.388 41.0805C16.003 40.9926 16.3146 43.8119 16.0172 46.2249C13.7992 45.6604 11.096 45.1391 8.70391 43.9511C8.06059 43.6314 7.43729 43.2865 6.83875 42.9141C6.83875 42.9141 7.0074 32.3483 9.40754 29.9258C9.57041 29.7652 12.0209 28.0272 13.3472 25.2717C13.3999 25.1583 13.4099 25.0311 13.4336 24.9083C13.4805 24.6666 13.5155 24.4131 13.5456 24.1501L13.5469 24.1461C13.8135 21.8532 13.7016 18.9976 16.4568 19.023C16.7969 19.0228 17.1836 19.0737 17.6183 19.1715L17.6219 19.1727C17.7625 19.2025 17.9127 19.2391 18.0639 19.2847C18.4154 19.3831 18.7958 19.5142 19.2098 19.676C19.2098 19.676 19.6498 20.013 20.2066 20.526C20.3383 20.644 20.4737 20.7749 20.6114 20.9106C20.8594 21.1572 21.1183 21.4311 21.3571 21.7183C22.0747 22.5761 22.1363 23.652 21.8531 24.414C21.6574 24.9434 21.0511 25.5683 20.6406 26.6369C20.4996 26.9978 20.4049 32.8621 20.4049 32.8621C20.4049 32.8621 20.7327 36.9965 21.9523 44.8862Z" fill="#EDF9FA"/>
<path d="M19.7775 23.3117C19.7775 23.3117 19.8519 22.0166 18.6784 20.8672C18.1846 20.3829 18.0799 19.6052 18.0656 19.2843C18.4171 19.3827 18.7974 19.5142 19.2112 19.6763C19.2112 19.6763 19.6514 20.0131 20.2082 20.5261C20.5658 21.8283 19.7775 23.3117 19.7775 23.3117Z" fill="#11B1D7"/>
<path d="M18.1748 25.7695C17.1241 26.8604 13.9513 25.0649 13.3499 25.2732C13.3847 25.154 13.4126 25.0326 13.4367 24.91C13.4837 24.6679 13.5183 24.4142 13.5486 24.1517C13.7963 23.9115 14.151 23.6472 14.6627 23.4106C16.0181 22.7678 15.4522 19.1776 15.4522 19.1776C17.4194 19.7302 18.7862 25.1347 18.1748 25.7695Z" fill="#D2E7EB"/>
<path d="M20.0547 19.0978L19.727 20.1062C19.727 20.1062 19.8365 20.6917 19.5478 20.6577C18.913 20.583 18.355 19.3742 18.355 19.3742L18.7945 18.0214L20.0547 19.0978Z" fill="#FF505C"/>
<path d="M18.5165 18.8809L18.7666 18.1113C18.7666 18.1113 19.2778 19.0591 19.9798 19.3322C19.9798 19.3322 18.9821 19.4702 18.5165 18.8809Z" fill="#FB3B4B"/>
<path d="M15.2827 23.9358C13.8325 25.5521 12.9405 28.6196 11.5022 30.1784C9.97024 31.8392 9.22088 33.0906 8.22756 35.066C7.40772 36.6961 8.95683 43.5899 8.70548 43.951C8.06215 43.6313 7.43873 43.2868 6.84019 42.9144C6.84019 42.9144 7.00896 32.3481 9.40863 29.9259C9.57197 29.7651 12.0226 28.0268 13.3488 25.2715C13.4014 25.1582 13.411 25.0312 13.4347 24.9085C13.4821 24.6665 13.5172 24.4126 13.5471 24.1499L13.5484 24.146C13.9447 24.0459 15.3877 23.8197 15.2827 23.9358Z" fill="#D2E7EB"/>
<path d="M9.12704 29.3629C8.96024 30.8375 10.2655 34.2548 10.2655 34.2548C10.3172 34.1565 11.9322 34.6481 11.9322 34.6481C11.6608 33.2042 12.0656 30.9937 12.3165 29.905C12.3649 29.6953 14.8933 26.5737 15.7029 25.7614C15.7324 25.7314 15.7571 25.7039 15.7845 25.6815C15.9392 25.5341 16.0858 25.4114 16.2194 25.3287C16.5789 25.0972 15.5924 21.2343 13.7264 22.5968C13.6968 22.6149 13.6708 22.6341 13.644 22.657C13.6334 22.6654 13.6227 22.6738 13.6153 22.6833C13.5408 22.7421 13.4651 22.8049 13.3932 22.8681C11.1366 24.8 9.37787 27.1466 9.12704 29.3629Z" fill="#FF505C"/>
<path d="M13.4817 22.6089C13.5407 22.549 13.6321 22.5233 13.7169 22.5908C13.7205 22.592 13.7228 22.5971 13.7264 22.5983C14.5325 23.2077 15.0208 24.3939 15.4947 25.2595C15.5935 25.4422 15.6661 25.6081 15.7029 25.7624C14.8934 26.5747 12.365 29.696 12.3167 29.9057C12.0657 30.9944 11.8167 32.7439 11.6914 34.249C11.6033 34.2402 11.1269 34.155 11.1096 34.0624C10.9772 33.2045 11.1389 31.9793 11.1501 31.1053C11.1604 30.2705 13.4696 27.3065 13.6973 26.8977C14.0771 26.2032 14.0247 25.5615 13.7459 24.8498C13.4948 24.1993 13.3496 23.5631 13.3932 22.8691C13.3917 22.8252 13.3972 22.7839 13.3994 22.7407C13.4048 22.6752 13.4378 22.6346 13.4817 22.6089Z" fill="#FB3B4B"/>
<path d="M16.1135 26.4359C16.3759 26.1369 17.4817 24.166 17.6054 22.3848C17.6616 21.5752 17.6538 19.7414 16.6387 19.5974C15.0133 19.3666 13.0847 21.8648 11.7669 23.7388C12.5736 25.2008 14.2815 26.1099 16.1135 26.4359Z" fill="#EDF9FA"/>
<path d="M19.597 25.1623C19.5382 25.3432 19.3439 25.4422 19.1634 25.3835C18.9828 25.3249 18.8838 25.1306 18.9426 24.9497C19.0013 24.7691 19.1954 24.6705 19.376 24.7291C19.5566 24.7878 19.6557 24.9817 19.597 25.1623Z" fill="#D2E7EB"/>
<path d="M17.8294 32.9133C17.7706 33.0942 17.5764 33.1932 17.3958 33.1345C17.2152 33.0758 17.1162 32.8816 17.175 32.7006C17.2337 32.5201 17.4278 32.4214 17.6084 32.4801C17.789 32.5388 17.8881 32.7327 17.8294 32.9133Z" fill="#D2E7EB"/>
<path d="M17.3236 35.1545C17.2648 35.3354 17.0705 35.4344 16.8899 35.3757C16.7093 35.317 16.6104 35.1228 16.6691 34.9419C16.7278 34.7613 16.922 34.6626 17.1025 34.7213C17.2831 34.78 17.3822 34.9739 17.3236 35.1545Z" fill="#D2E7EB"/>
<path d="M19.1241 27.1493C19.0654 27.3299 18.8713 27.4285 18.6907 27.3699C18.5101 27.3112 18.411 27.1173 18.4697 26.9367C18.5285 26.7558 18.7227 26.6568 18.9033 26.7155C19.0839 26.7741 19.1829 26.9684 19.1241 27.1493Z" fill="#D2E7EB"/>
<path d="M13.4956 34.6331C13.4956 34.6331 10.8026 34.3626 9.23591 33.5021C9.23591 33.5021 7.54541 37.6013 10.4034 38.2168C12.29 38.6235 13.4956 34.6331 13.4956 34.6331Z" fill="#D2E7EB"/>
<path d="M21.2797 16.2981C21.2797 16.2981 21.4626 17.5602 21.2676 18.6169C21.1293 19.3674 19.5034 19.8888 18.7599 18.5268C18.0163 17.1651 18.8179 15.7125 18.8179 15.7125L21.2797 16.2981Z" fill="#FF505C"/>
<path d="M21.7583 17.0923C21.5145 17.2795 21.1898 17.1507 20.9834 16.9733C20.8502 16.8588 20.744 16.7172 20.6698 16.5587C20.6201 16.4524 20.5907 16.308 20.5356 16.2C20.212 16.0972 19.859 16.2055 19.5544 16.4252C19.4972 16.5426 19.4578 16.6796 19.418 16.8438C19.3086 17.291 19.2185 17.6816 18.8824 18.0235C18.6273 18.283 18.391 18.222 18.2099 18.0335C18.1314 18.6911 18.1411 19.3608 18.1507 19.834C18.1704 20.8549 18.9403 21.5285 19.0706 22.5098C19.0881 22.642 18.9476 22.7106 18.8404 22.6987C17.0749 22.4974 13.4879 21.9269 14.5211 19.2679C14.9932 18.0534 15.9881 16.9613 17.0539 16.2472C17.8965 15.6821 18.7614 14.7921 19.8353 15.0873C19.8625 15.0692 19.8946 15.0567 19.9388 15.0596C20.3641 15.0926 20.8338 15.1828 21.1778 15.4551C21.3111 15.5608 21.3884 15.6733 21.4591 15.8291C21.5406 16.009 21.4282 16.046 21.6011 16.2584C21.6563 16.3257 21.751 16.3593 21.8092 16.4284C21.9772 16.6281 21.9774 16.9242 21.7583 17.0923Z" fill="#31177C"/>
<path d="M18.5904 15.1659C18.5904 15.1659 17.9709 15.1729 17.922 15.5413C17.922 15.5413 19.9832 16.4506 22.2795 16.5575C22.2795 16.5575 22.4666 16.2446 22.4044 15.9773C22.4044 15.9773 19.6592 16.0014 18.5904 15.1659Z" fill="#444F6E"/>
<path d="M22.6957 15.7535C22.6589 15.672 22.613 15.5954 22.5574 15.5244C22.451 15.387 22.3132 15.2723 22.1487 15.1943C22.1052 15.1738 22.0595 15.155 22.0116 15.1395C21.5975 15.0049 21.1613 15.121 20.8689 15.4051C20.8543 15.4185 20.8393 15.4342 20.8254 15.4491C20.7177 15.5651 20.6334 15.7065 20.5814 15.8664C20.4723 16.2022 20.5286 16.5521 20.7042 16.8294C20.7523 16.9028 20.8086 16.9728 20.8731 17.0361C20.9939 17.1521 21.1413 17.2423 21.3105 17.2972C21.3584 17.3128 21.4064 17.3244 21.4537 17.3335C21.7709 17.3926 22.09 17.3121 22.3369 17.1278C22.3537 17.1151 22.3696 17.1025 22.3854 17.0894C22.5446 16.9569 22.6703 16.7795 22.7392 16.5675C22.8298 16.2885 22.8062 16.001 22.6957 15.7535ZM21.7424 16.3851C21.7333 16.3889 21.7254 16.3926 21.7156 16.3946C21.681 16.4063 21.6414 16.4065 21.6042 16.3944C21.5166 16.3659 21.4655 16.2798 21.4782 16.1933C21.4791 16.1821 21.4814 16.1714 21.4847 16.1611C21.4923 16.1378 21.5041 16.1172 21.5192 16.0987C21.5336 16.0824 21.5497 16.0683 21.5685 16.0578C21.6056 16.0362 21.6498 16.0277 21.6943 16.037C21.7033 16.0372 21.7105 16.0395 21.7187 16.0422C21.8152 16.0735 21.8685 16.1786 21.837 16.2755C21.834 16.2848 21.8307 16.2924 21.8268 16.3007C21.818 16.3192 21.8065 16.3352 21.7919 16.3486C21.778 16.3635 21.7613 16.3758 21.7424 16.3851Z" fill="#469FD4"/>
<path d="M21.5193 16.0985L20.8247 15.4486C20.8386 15.4337 20.854 15.4181 20.8686 15.4047L21.5686 16.0575C21.5497 16.068 21.5337 16.0822 21.5193 16.0985Z" fill="#7EC4EB"/>
<path d="M21.7159 16.3937L21.4535 17.3327C21.4058 17.3236 21.3582 17.3121 21.3103 17.2965L21.5336 16.4949L20.8733 17.0351C20.8085 16.9718 20.7525 16.9022 20.704 16.8287L21.478 16.1926C21.4658 16.2788 21.5165 16.3649 21.6038 16.3932C21.6413 16.4054 21.6812 16.4057 21.7159 16.3937Z" fill="#7EC4EB"/>
<path d="M21.7183 16.0415C21.71 16.0388 21.7032 16.0366 21.6942 16.0364L22.0115 15.1389C22.0594 15.1545 22.1049 15.1728 22.1487 15.1937L21.882 15.9464L22.557 15.5237C22.6126 15.5947 22.6588 15.6714 22.6956 15.753L21.8265 16.2996C21.8303 16.2918 21.8343 16.2844 21.8374 16.2747C21.8688 16.1781 21.8152 16.073 21.7183 16.0415Z" fill="#7EC4EB"/>
<path d="M22.3856 17.0884C22.3699 17.1015 22.3538 17.1144 22.3371 17.1271L21.7424 16.384C21.7608 16.3746 21.7779 16.3623 21.7918 16.3475L22.3856 17.0884Z" fill="#7EC4EB"/>
</g>
</g>
<defs>
<clipPath id="clip0_958_47261">
<rect width="57" height="53" fill="white" transform="translate(3 5.5)"/>
</clipPath>
</defs>
</svg>
