<svg width="74" height="75" viewBox="0 0 74 75" fill="none" xmlns="http://www.w3.org/2000/svg">
<mask id="mask0_958_47170" style="mask-type:luminance" maskUnits="userSpaceOnUse" x="0" y="0" width="74" height="75">
<path d="M74 0.5H0V74.5H74V0.5Z" fill="white"/>
</mask>
<g mask="url(#mask0_958_47170)">
<path d="M67.334 29.9505V51.9552C67.334 52.0491 67.2579 52.1251 67.164 52.1251H62.1903H61.8504H57.5035H57.1644H53.326H49.5074H49.1675H46.8427H39.1282H38.7883H31.0155H30.6764H26.838H23.0193H22.6795H19.6982H14.9068H14.5676H10.7292C10.6354 52.1251 10.5592 52.0491 10.5592 51.9551V39.5301C10.5592 39.4361 10.4839 39.3601 10.3901 39.3601H6.83601C6.74214 39.3601 6.66602 39.2841 6.66602 39.1902V35.8006C6.66602 35.7067 6.74214 35.6306 6.83601 35.6306H14.5676C14.6608 35.6306 14.7368 35.7067 14.7368 35.8006V28.4259C14.7368 28.3321 14.8129 28.256 14.9068 28.256H18.6233C18.7171 28.256 18.7931 28.18 18.7931 28.0861V21.2109C18.7931 21.1171 18.8692 21.041 18.9631 21.041H22.6795C22.7733 21.041 22.8495 21.1171 22.8495 21.2109V31.6895H24.6508C24.7447 31.6895 24.8207 31.7655 24.8207 31.8594V33.1647C24.8207 33.2586 24.8967 33.3346 24.9907 33.3346H25.4415C25.5354 33.3346 25.6114 33.2586 25.6114 33.1647V31.8594C25.6114 31.7655 25.6875 31.6895 25.7814 31.6895H27.5827V21.2109C27.5827 21.1171 27.6588 21.041 27.7527 21.041H31.469C31.563 21.041 31.639 21.1171 31.639 21.2109V28.0861C31.639 28.18 31.7151 28.256 31.8089 28.256H34.732C34.8259 28.256 34.9019 28.18 34.9019 28.0861V21.2109C34.9019 21.1171 34.9779 21.041 35.0718 21.041H38.7883C38.8822 21.041 38.9582 21.1171 38.9582 21.2109V33.5045C38.9582 33.4107 39.0343 33.3346 39.1282 33.3346H41.2248V28.4259C41.2248 28.3321 41.301 28.256 41.3948 28.256H45.1113C45.2051 28.256 45.2811 28.18 45.2811 28.0861V21.2109C45.2811 21.1171 45.3573 21.041 45.4511 21.041H49.1675C49.2614 21.041 49.3375 21.1171 49.3375 21.2109V33.5045C49.3375 33.4107 49.4136 33.3346 49.5074 33.3346H51.9296C52.0234 33.3346 52.0994 33.2586 52.0994 33.1647V31.8594C52.0994 31.7655 52.1755 31.6895 52.2694 31.6895H55.0025C55.0964 31.6895 55.1725 31.6134 55.1725 31.5196V29.9505C55.1725 29.8566 55.2485 29.7806 55.3424 29.7806L57.2219 29.7806C57.2649 29.7806 57.3037 29.7971 57.3337 29.8234V28.4259C57.3337 28.3321 57.4097 28.2561 57.5035 28.2561H59.1645C59.2584 28.2561 59.3344 28.18 59.3344 28.0861V21.2109C59.3344 21.1171 59.4104 21.041 59.5043 21.041H61.8504C61.9443 21.041 62.0203 21.1171 62.0203 21.2109V33.5045C62.0203 33.4107 62.0964 33.3346 62.1903 33.3346H63.242C63.3358 33.3346 63.4119 33.2586 63.4119 33.1647V31.8594C63.4119 31.7655 63.488 31.6895 63.5818 31.6895H64.9447C65.0386 31.6895 65.1146 31.6135 65.1146 31.5196V29.9505C65.1146 29.8566 65.1907 29.7806 65.2846 29.7806H67.164C67.2579 29.7806 67.334 29.8566 67.334 29.9505Z" fill="#F4F4F4"/>
<path d="M22.0562 51.9531H18.2184C18.0989 51.9531 18.0021 51.8562 18.0021 51.7368V47.8989C18.0021 47.7795 18.0989 47.6826 18.2184 47.6826H22.0562C22.1757 47.6826 22.2726 47.7795 22.2726 47.8989V51.7368C22.2726 51.8562 22.1757 51.9531 22.0562 51.9531Z" fill="#F1A313"/>
<path d="M22.1441 51.8385C21.7806 51.5269 21.4292 51.2031 21.0821 50.875C20.9074 50.7122 20.7372 50.5446 20.5648 50.3795L20.1152 49.9371L19.667 50.3808C19.4951 50.5466 19.3254 50.7144 19.1512 50.8778C18.8052 51.2071 18.455 51.5321 18.0926 51.8452C18.4045 51.4819 18.7284 51.1305 19.0564 50.7835C19.2194 50.6088 19.3867 50.4384 19.5519 50.266L19.9942 49.8164L19.5504 49.368C19.3846 49.1963 19.2168 49.0265 19.0534 48.8524C18.7241 48.5063 18.3991 48.1561 18.0861 47.7938C18.4493 48.1057 18.8007 48.4295 19.1478 48.7575C19.3225 48.9205 19.4928 49.0878 19.6652 49.2531L20.1148 49.6953L20.5629 49.2514C20.7348 49.0857 20.9045 48.9177 21.0787 48.7542C21.4247 48.425 21.775 48.1 22.1375 47.7871C21.8257 48.1506 21.502 48.502 21.1738 48.8491C21.011 49.0239 20.8435 49.194 20.6784 49.3665L20.236 49.8159L20.6798 50.2641C20.8455 50.436 21.0135 50.6056 21.177 50.7798C21.5062 51.1258 21.8313 51.4761 22.1441 51.8385Z" fill="#1E1E1E"/>
<path d="M17.5308 51.9531H13.693C13.5735 51.9531 13.4767 51.8562 13.4767 51.7368V47.8989C13.4767 47.7795 13.5735 47.6826 13.693 47.6826H17.5308C17.6503 47.6826 17.747 47.7795 17.747 47.8989V51.7368C17.747 51.8562 17.6503 51.9531 17.5308 51.9531Z" fill="#F1A313"/>
<path d="M17.6187 51.8385C17.2553 51.5269 16.9039 51.2031 16.5568 50.875C16.3821 50.7122 16.2119 50.5446 16.0394 50.3795L15.5899 49.9371L15.1417 50.3808C14.9699 50.5466 14.8001 50.7144 14.6259 50.8778C14.2799 51.2071 13.9296 51.5321 13.5672 51.8452C13.8791 51.4819 14.203 51.1305 14.531 50.7835C14.694 50.6088 14.8614 50.4384 15.0266 50.266L15.4688 49.8164L15.025 49.368C14.8593 49.1963 14.6915 49.0265 14.528 48.8524C14.1988 48.5063 13.8737 48.1561 13.5607 47.7938C13.924 48.1057 14.2753 48.4295 14.6224 48.7575C14.7971 48.9205 14.9674 49.0878 15.1398 49.2531L15.5894 49.6953L16.0375 49.2514C16.2095 49.0857 16.3791 48.9177 16.5534 48.7542C16.8993 48.425 17.2496 48.1 17.6121 47.7871C17.3004 48.1506 16.9766 48.502 16.6485 48.8491C16.4856 49.0239 16.3182 49.194 16.153 49.3665L15.7106 49.8159L16.1545 50.2641C16.3202 50.436 16.4882 50.6056 16.6516 50.7798C16.9808 51.1258 17.3059 51.4761 17.6187 51.8385Z" fill="#1E1E1E"/>
<path d="M13.0015 51.9511H9.1637C9.0442 51.9511 8.94739 51.8543 8.94739 51.7348V47.897C8.94739 47.7775 9.0442 47.6807 9.1637 47.6807H13.0015C13.121 47.6807 13.2179 47.7775 13.2179 47.897V51.7348C13.2179 51.8543 13.121 51.9511 13.0015 51.9511Z" fill="#F1A313"/>
<path d="M13.0894 51.8366C12.726 51.5249 12.3745 51.2011 12.0274 50.8731C11.8527 50.7101 11.6826 50.5427 11.5101 50.3776L11.0606 49.9351L10.6123 50.3789C10.4405 50.5447 10.2707 50.7124 10.0966 50.8759C9.75061 51.2051 9.40028 51.5302 9.03795 51.8432C9.34978 51.4799 9.67366 51.1286 10.0017 50.7815C10.1647 50.6068 10.332 50.4364 10.4973 50.2641L10.9395 49.8144L10.4957 49.3661C10.3299 49.1943 10.1621 49.0246 9.99872 48.8504C9.66942 48.5044 9.34436 48.1541 9.03137 47.7918C9.39466 48.1037 9.74602 48.4275 10.0931 48.7556C10.2678 48.9185 10.4381 49.0858 10.6105 49.251L11.0601 49.6933L11.5082 49.2494C11.6802 49.0837 11.8498 48.9157 12.024 48.7523C12.37 48.4231 12.7203 48.098 13.0828 47.7852C12.771 48.1486 12.4473 48.5001 12.1192 48.8471C11.9563 49.0219 11.7888 49.192 11.6237 49.3645L11.1813 49.814L11.6251 50.2621C11.7908 50.434 11.9588 50.6037 12.1223 50.7778C12.4515 51.1239 12.7766 51.4741 13.0894 51.8366Z" fill="#1E1E1E"/>
<path d="M15.1363 47.5058H11.2985C11.179 47.5058 11.0822 47.409 11.0822 47.2895V43.4517C11.0822 43.3322 11.179 43.2354 11.2985 43.2354H15.1363C15.2558 43.2354 15.3526 43.3322 15.3526 43.4517V47.2895C15.3526 47.409 15.2558 47.5058 15.1363 47.5058Z" fill="#F1A313"/>
<path d="M15.2242 47.3913C14.8607 47.0796 14.5094 46.7558 14.1623 46.4278C13.9876 46.2648 13.8173 46.0974 13.6449 45.9322L13.1954 45.4898L12.7472 45.9335C12.5754 46.0994 12.4056 46.2671 12.2314 46.4306C11.8854 46.7598 11.535 47.0849 11.1727 47.3979C11.4845 47.0346 11.8084 46.6833 12.1366 46.3362C12.2994 46.1615 12.4668 45.9911 12.632 45.8188L13.0743 45.3691L12.6305 44.9208C12.4648 44.749 12.297 44.5793 12.1335 44.4051C11.8043 44.0591 11.4792 43.7088 11.1661 43.3465C11.5295 43.6584 11.8808 43.9822 12.2279 44.3103C12.4026 44.4732 12.5729 44.6405 12.7453 44.8057L13.1949 45.248L13.643 44.8041C13.815 44.6384 13.9846 44.4704 14.1588 44.307C14.5048 43.9778 14.8551 43.6527 15.2176 43.3398C14.9059 43.7033 14.5821 44.0548 14.2539 44.4018C14.0911 44.5766 13.9237 44.7467 13.7585 44.9192L13.316 45.3687L13.76 45.8168C13.9257 45.9887 14.0937 46.1584 14.2571 46.3325C14.5863 46.6785 14.9114 47.0288 15.2242 47.3913Z" fill="#1E1E1E"/>
<path d="M19.6656 47.459H15.8278C15.7083 47.459 15.6115 47.3621 15.6115 47.2426V43.4049C15.6115 43.2854 15.7083 43.1885 15.8278 43.1885H19.6656C19.7851 43.1885 19.8819 43.2854 19.8819 43.4049V47.2426C19.8819 47.3621 19.7851 47.459 19.6656 47.459Z" fill="#F1A313"/>
<path d="M19.7535 47.3444C19.39 47.0327 19.0386 46.709 18.6915 46.3809C18.5168 46.218 18.3466 46.0505 18.1742 45.8854L17.7246 45.4429L17.2765 45.8867C17.1047 46.0525 16.9349 46.2203 16.7607 46.3837C16.4147 46.7129 16.0643 47.038 15.702 47.351C16.0138 46.9878 16.3377 46.6364 16.6658 46.2894C16.8287 46.1146 16.9961 45.9443 17.1613 45.7719L17.6036 45.3222L17.1598 44.8739C16.9941 44.7021 16.8263 44.5324 16.6628 44.3582C16.3335 44.0122 16.0084 43.6619 15.6954 43.2996C16.0588 43.6115 16.4101 43.9353 16.7572 44.2635C16.9319 44.4263 17.1022 44.5937 17.2746 44.7589L17.7242 45.2011L18.1723 44.7572C18.3443 44.5915 18.5139 44.4235 18.688 44.2601C19.0341 43.9309 19.3844 43.6058 19.7469 43.293C19.4352 43.6565 19.1114 44.0079 18.7832 44.3549C18.6204 44.5297 18.453 44.6999 18.2878 44.8723L17.8453 45.3218L18.2892 45.77C18.4549 45.9418 18.623 46.1114 18.7864 46.2857C19.1156 46.6316 19.4407 46.9819 19.7535 47.3444Z" fill="#1E1E1E"/>
<path d="M46.2424 36.8262L22.6212 36.8336V40.2274" stroke="#1E1E1E" stroke-width="20" stroke-linecap="round" stroke-linejoin="round"/>
<path d="M46.2424 36.8262L22.6212 36.8336V40.2274" stroke="#F1782F" stroke-width="14" stroke-linecap="round" stroke-linejoin="round"/>
<path d="M58.5431 52.026H61.2027V50.8584H58.5431V52.026Z" fill="#505050"/>
<path d="M58.3615 52.0259V50.8582C58.3615 50.7575 58.4431 50.6758 58.5439 50.6758H61.2035C61.3043 50.6758 61.386 50.7575 61.386 50.8582V52.0259C61.386 52.1267 61.3043 52.2084 61.2035 52.2084H58.5439C58.4431 52.2084 58.3615 52.1267 58.3615 52.0259ZM61.021 51.0408H58.7264V51.8434H61.021V51.0408Z" fill="#1E1E1E"/>
<path d="M59.3224 50.8582H60.4251V48.4365H59.3224V50.8582Z" fill="#9F9F9F"/>
<path d="M59.1388 50.859V48.4373C59.1388 48.3366 59.2205 48.2549 59.3213 48.2549H60.4241C60.5249 48.2549 60.6066 48.3366 60.6066 48.4373V50.859C60.6066 50.9598 60.5249 51.0415 60.4241 51.0415H59.3213C59.2205 51.0415 59.1388 50.9598 59.1388 50.859ZM60.2415 48.6199H59.5037V50.6765H60.2415V48.6199Z" fill="#1E1E1E"/>
<path d="M61.2021 45.3232V46.8801V48.4369H58.5426V46.8801H41.0933V48.4369H38.4337V46.8801V45.3232H61.2021Z" fill="#F1CC0F"/>
<path d="M38.2521 48.4368V45.3231C38.2521 45.2224 38.3337 45.1406 38.4346 45.1406H61.203C61.3038 45.1406 61.3854 45.2224 61.3854 45.3231V48.4368C61.3854 48.5375 61.3038 48.6193 61.203 48.6193H58.5434C58.4426 48.6193 58.361 48.5375 58.361 48.4368V47.0624H41.2766V48.4368C41.2766 48.5375 41.1949 48.6193 41.0942 48.6193H38.4346C38.3337 48.6193 38.2521 48.5375 38.2521 48.4368ZM40.9116 46.88C40.9116 46.7792 40.9933 46.6974 41.0942 46.6974H58.5434C58.6442 46.6974 58.7259 46.7792 58.7259 46.88V48.2543H61.0204V45.5056H38.6171V48.2543H40.9116V46.88Z" fill="#1E1E1E"/>
<path d="M38.4337 52.026H41.0933V50.8584H38.4337V52.026Z" fill="#505050"/>
<path d="M38.2521 52.0259V50.8582C38.2521 50.7575 38.3337 50.6758 38.4345 50.6758H41.094C41.1948 50.6758 41.2765 50.7575 41.2765 50.8582V52.0259C41.2765 52.1267 41.1948 52.2084 41.094 52.2084H38.4345C38.3337 52.2084 38.2521 52.1267 38.2521 52.0259ZM40.9116 51.0408H38.6171V51.8434H40.9116V51.0408Z" fill="#1E1E1E"/>
<path d="M39.213 50.8582H40.3157V48.4365H39.213V50.8582Z" fill="#9F9F9F"/>
<path d="M39.0314 50.859V48.4373C39.0314 48.3366 39.1131 48.2549 39.2139 48.2549H40.3166C40.4175 48.2549 40.4992 48.3366 40.4992 48.4373V50.859C40.4992 50.9598 40.4175 51.0415 40.3166 51.0415H39.2139C39.1131 51.0415 39.0314 50.9598 39.0314 50.859ZM40.1341 48.6199H39.3963V50.6765H40.1341V48.6199Z" fill="#1E1E1E"/>
<path d="M47.7111 45.323H51.9274V43.9932H47.7111V45.323Z" fill="#9F9F9F"/>
<path d="M47.5275 45.3229V43.9931C47.5275 43.8924 47.6091 43.8105 47.71 43.8105H51.9264C52.0271 43.8105 52.1089 43.8924 52.1089 43.9931V45.3229C52.1089 45.4236 52.0271 45.5054 51.9264 45.5054H47.71C47.6091 45.5054 47.5275 45.4236 47.5275 45.3229ZM51.744 44.1755H47.8925V45.1404H51.744V44.1755Z" fill="#1E1E1E"/>
<path d="M45.8947 33.9637V43.3854C45.8947 43.7214 46.167 43.9937 46.503 43.9937H59.2653C59.6012 43.9937 59.8735 43.7214 59.8735 43.3854V39.9964C59.8735 39.6605 59.6012 39.3881 59.2653 39.3881H55.9491V33.9637C55.9491 33.6278 55.6768 33.3555 55.3408 33.3555H46.503C46.167 33.3555 45.8947 33.6278 45.8947 33.9637Z" fill="#F1CC0F"/>
<path d="M45.7111 43.3852V33.9636C45.7111 33.5276 46.0658 33.1729 46.5018 33.1729H55.3397C55.7757 33.1729 56.1305 33.5276 56.1305 33.9636V39.2055H59.2641C59.7001 39.2055 60.0549 39.5603 60.0549 39.9963V43.3852C60.0549 43.8212 59.7001 44.176 59.2641 44.176H46.5018C46.0658 44.176 45.7111 43.8212 45.7111 43.3852ZM55.9479 39.5704C55.8471 39.5704 55.7655 39.4888 55.7655 39.388V33.9636C55.7655 33.7289 55.5744 33.5378 55.3397 33.5378H46.5018C46.267 33.5378 46.076 33.7289 46.076 33.9636V43.3852C46.076 43.62 46.267 43.811 46.5018 43.811H59.2641C59.4989 43.811 59.6899 43.62 59.6899 43.3852V39.9963C59.6899 39.7615 59.4989 39.5704 59.2641 39.5704H55.9479Z" fill="#1E1E1E"/>
<path d="M47.7111 39.3556H54.36V34.2959H47.7111V39.3556Z" fill="#F1782F"/>
<path d="M47.5275 39.3554V34.2957C47.5275 34.1951 47.6091 34.1133 47.71 34.1133H54.3589C54.4597 34.1133 54.5414 34.1951 54.5414 34.2957V39.3554C54.5414 39.4561 54.4597 39.5379 54.3589 39.5379H47.71C47.6091 39.5379 47.5275 39.4561 47.5275 39.3554ZM54.1764 34.4782H47.8925V39.1729H54.1764V34.4782Z" fill="#1E1E1E"/>
<path d="M33.5952 51.9531H29.7575C29.638 51.9531 29.5411 51.8562 29.5411 51.7368V47.8989C29.5411 47.7795 29.638 47.6826 29.7575 47.6826H33.5952C33.7147 47.6826 33.8116 47.7795 33.8116 47.8989V51.7368C33.8116 51.8562 33.7147 51.9531 33.5952 51.9531Z" fill="#F1A313"/>
<path d="M33.6832 51.8385C33.3197 51.5269 32.9683 51.2031 32.6212 50.875C32.4465 50.7122 32.2763 50.5446 32.1038 50.3795L31.6543 49.9371L31.2062 50.3808C31.0343 50.5466 30.8645 50.7144 30.6903 50.8778C30.3443 51.2071 29.994 51.5321 29.6317 51.8452C29.9435 51.4819 30.2674 51.1305 30.5955 50.7835C30.7584 50.6088 30.9258 50.4384 31.091 50.266L31.5333 49.8164L31.0895 49.368C30.9238 49.1963 30.756 49.0265 30.5925 48.8524C30.2632 48.5063 29.9381 48.1561 29.6251 47.7938C29.9885 48.1057 30.3398 48.4295 30.6869 48.7575C30.8615 48.9205 31.0319 49.0878 31.2043 49.2531L31.6539 49.6953L32.102 49.2514C32.274 49.0857 32.4436 48.9177 32.6177 48.7542C32.9638 48.425 33.3141 48.1 33.6766 47.7871C33.3649 48.1506 33.041 48.502 32.7129 48.8491C32.55 49.0239 32.3826 49.194 32.2175 49.3665L31.775 49.8159L32.2189 50.2641C32.3846 50.436 32.5526 50.6056 32.7161 50.7798C33.0453 51.1258 33.3703 51.4761 33.6832 51.8385Z" fill="#1E1E1E"/>
<path d="M24.5113 46.1289H20.6735C20.554 46.1289 20.4572 46.032 20.4572 45.9126V42.0747C20.4572 41.9553 20.554 41.8584 20.6735 41.8584H24.5113C24.6308 41.8584 24.7276 41.9553 24.7276 42.0747V45.9126C24.7276 46.032 24.6308 46.1289 24.5113 46.1289Z" fill="#F1A313"/>
<path d="M24.5992 46.0143C24.2357 45.7026 23.8843 45.3789 23.5372 45.0508C23.3625 44.8879 23.1923 44.7204 23.0199 44.5553L22.5703 44.1129L22.1222 44.5566C21.9504 44.7224 21.7805 44.8901 21.6063 45.0536C21.2603 45.3829 20.91 45.7079 20.5477 46.021C20.8595 45.6577 21.1834 45.3063 21.5115 44.9593C21.6744 44.7846 21.8418 44.6142 22.007 44.4418L22.4493 43.9921L22.0055 43.5438C21.8398 43.372 21.672 43.2023 21.5085 43.0281C21.1793 42.6821 20.8541 42.3319 20.5411 41.9695C20.9045 42.2814 21.2558 42.6053 21.6029 42.9333C21.7776 43.0963 21.9479 43.2636 22.1203 43.4288L22.5699 43.8711L23.018 43.4271C23.19 43.2615 23.3596 43.0934 23.5338 42.93C23.8798 42.6008 24.2301 42.2757 24.5926 41.9629C24.2809 42.3264 23.9571 42.6778 23.6289 43.0249C23.4661 43.1996 23.2987 43.3698 23.1335 43.5422L22.691 43.9917L23.1349 44.4398C23.3007 44.6117 23.4686 44.7814 23.6321 44.9556C23.9613 45.3016 24.2864 45.6519 24.5992 46.0143Z" fill="#1E1E1E"/>
<path d="M19.7032 43.4254L19.7334 40.7676H25.3656L25.4646 43.4357" stroke="#1E1E1E" stroke-width="20" stroke-linecap="round" stroke-linejoin="round"/>
<path d="M19.7032 43.4254L19.7334 40.7676H25.3656L25.4646 43.4357" stroke="#9F9F9F" stroke-width="12" stroke-linecap="round" stroke-linejoin="round"/>
<path d="M6.09778 52.1465H67.9023" stroke="#1E1E1E" stroke-width="5" stroke-miterlimit="10" stroke-linecap="round"/>
</g>
</svg>
