<svg width="64" height="64" viewBox="0 0 64 64" fill="none" xmlns="http://www.w3.org/2000/svg">
<circle cx="32" cy="32" r="32" fill="#FFEFEA"/>
<g clip-path="url(#clip0_958_46805)">
<mask id="mask0_958_46805" style="mask-type:luminance" maskUnits="userSpaceOnUse" x="-45" y="-5" width="158" height="78">
<path d="M113 -5H-45V73H113V-5Z" fill="white"/>
</mask>
<g mask="url(#mask0_958_46805)">
<mask id="mask1_958_46805" style="mask-type:luminance" maskUnits="userSpaceOnUse" x="-6" y="-10" width="80" height="88">
<path d="M-5.13867 -9.12012H73.1375V77.121H-5.13867V-9.12012Z" fill="white"/>
</mask>
<g mask="url(#mask1_958_46805)">
<path d="M21.1026 23.3248C28.1676 16.4831 38.1704 15.3677 43.4446 20.8332C48.7188 26.2988 47.2671 36.2758 40.2022 43.1174C33.1373 49.959 23.1345 51.0745 17.8603 45.609C12.5861 40.1434 14.0376 30.1664 21.1026 23.3248Z" fill="#00DFAC"/>
<path d="M24.4351 45.3199C15.5133 41.1632 10.8641 32.2127 14.0507 25.3284C17.2373 18.4441 27.0529 16.2329 35.9746 20.3896C44.8964 24.5462 49.5455 33.4968 46.3591 40.381C43.1726 47.2654 33.3569 49.4766 24.4351 45.3199Z" fill="#36C6FF"/>
<path d="M8.49471 50.6629C8.95683 49.9463 9.90751 49.7391 10.6181 50.2C11.3287 50.6609 11.53 51.6155 11.0679 52.332C10.6059 53.0487 9.65522 53.2559 8.9446 52.7949C8.23397 52.334 8.03258 51.3794 8.49471 50.6629Z" fill="#00EABA"/>
<path d="M48.1907 10.9428C46.6568 11.3743 45.0671 10.4868 44.6399 8.96032C44.2128 7.43384 45.1099 5.84657 46.6438 5.41493C48.1778 4.98335 49.7676 5.87104 50.1946 7.39742C50.6219 8.92385 49.7246 10.5113 48.1907 10.9428Z" fill="#006DF8"/>
<path d="M11.6938 18.4524C11.9885 17.9955 12.5947 17.8634 13.0478 18.1573C13.5008 18.4512 13.6293 19.0599 13.3346 19.5167C13.0399 19.9736 12.4337 20.1057 11.9807 19.8118C11.5276 19.5179 11.3991 18.9094 11.6938 18.4524Z" fill="#39FF55"/>
<path d="M46.9377 28.9056C48.7213 38.5944 43.377 41.9743 35.9611 43.3383C28.545 44.7023 20.2729 40.4578 18.4893 30.769C16.7057 21.0801 22.669 14.6941 30.0851 13.33C37.501 11.966 45.1541 19.2168 46.9377 28.9056Z" fill="#00B499"/>
</g>
<mask id="mask2_958_46805" style="mask-type:luminance" maskUnits="userSpaceOnUse" x="-45" y="-5" width="158" height="78">
<path d="M-45 -5H113V73H-45V-5Z" fill="white"/>
</mask>
<g mask="url(#mask2_958_46805)">
<mask id="mask3_958_46805" style="mask-type:luminance" maskUnits="userSpaceOnUse" x="-45" y="-5" width="158" height="78">
<path d="M-45 -5H113V73H-45V-5Z" fill="white"/>
</mask>
<g mask="url(#mask3_958_46805)">
<path d="M44.123 17.669H41.6901V22.3736C41.6901 23.5175 40.7596 24.4482 39.6159 24.4482C38.4722 24.4482 37.542 23.5175 37.542 22.3736V17.669H24.9535V22.3736C24.9535 23.5175 24.0233 24.4482 22.8796 24.4482C21.7359 24.4482 20.8054 23.5175 20.8054 22.3736V17.669H18.3727C16.3943 17.669 14.7754 19.2882 14.7754 21.267V47.0204C14.7754 48.9992 16.3943 50.6182 18.3727 50.6182H44.123C46.1017 50.6182 47.7201 48.9992 47.7201 47.0204V21.267C47.7201 19.2882 46.1017 17.669 44.123 17.669Z" fill="#C74D28"/>
<mask id="mask4_958_46805" style="mask-type:luminance" maskUnits="userSpaceOnUse" x="-45" y="-20" width="158" height="79">
<path d="M-45 -19.625H113V58.375H-45V-19.625Z" fill="white"/>
</mask>
<g mask="url(#mask4_958_46805)">
<path d="M44.5142 52.6122H17.9813C16.2181 52.6122 14.7754 51.1653 14.7754 49.3974V29.5879C14.7754 27.8197 16.2181 26.373 17.9813 26.373H44.5142C46.2777 26.373 47.7201 27.8197 47.7201 29.5879V49.3974C47.7201 51.1653 46.2777 52.6122 44.5142 52.6122Z" fill="#DBDBDB"/>
<path d="M44.5795 51.5583H17.9164C16.1889 51.5583 14.7754 50.1409 14.7754 48.4085V29.5225C14.7754 27.79 16.1889 26.373 17.9164 26.373H44.5795C46.3071 26.373 47.7206 27.79 47.7206 29.5225V48.4085C47.7206 50.1409 46.3071 51.5583 44.5795 51.5583Z" fill="#EAEAEA"/>
<path d="M44.123 17.4678H41.6901V22.1853C41.6901 23.3322 40.7596 24.2647 39.6159 24.2647C38.4722 24.2647 37.542 23.3322 37.542 22.1853V17.4678H24.9535V22.1853C24.9535 23.3322 24.0233 24.2647 22.8796 24.2647C21.7359 24.2647 20.8054 23.3322 20.8054 22.1853V17.4678H18.3727C16.3943 17.4678 14.7754 19.0911 14.7754 21.0753V46.8967C14.7754 48.8808 16.3943 50.5042 18.3727 50.5042H44.123C46.1017 50.5042 47.7201 48.8808 47.7201 46.8967V21.0753C47.7201 19.0911 46.1017 17.4678 44.123 17.4678Z" fill="white"/>
<path d="M44.123 17.4678H41.6901V22.0798C41.6901 23.2264 40.7596 24.1594 39.6159 24.1594C38.4722 24.1594 37.542 23.2264 37.542 22.0798V17.4678H24.9535V22.0798C24.9535 23.2264 24.0233 24.1594 22.8796 24.1594C21.7359 24.1594 20.8054 23.2264 20.8054 22.0798V17.4678H18.3727C16.3943 17.4678 14.7754 19.0914 14.7754 21.0755V26.3724H47.7201V21.0755C47.7201 19.0914 46.1017 17.4678 44.123 17.4678Z" fill="#FF7348"/>
<path d="M44.123 17.4678H41.6901V22.0798C41.6901 23.2264 40.7596 24.1594 39.6159 24.1594C38.4722 24.1594 37.542 23.2264 37.542 22.0798V17.4678H24.9535V22.0798C24.9535 23.2264 24.0233 24.1594 22.8796 24.1594C21.7359 24.1594 20.8054 23.2264 20.8054 22.0798V17.4678H18.3727C16.3943 17.4678 14.7754 19.0914 14.7754 21.0755V26.3724H47.7201V21.0755C47.7201 19.0914 46.1017 17.4678 44.123 17.4678Z" fill="#FF7348"/>
<path d="M24.9176 33.3808C24.9176 34.1455 24.2995 34.7651 23.5369 34.7651C22.7744 34.7651 22.1562 34.1455 22.1562 33.3808C22.1562 32.6159 22.7744 31.9961 23.5369 31.9961C24.2995 31.9961 24.9176 32.6159 24.9176 33.3808Z" fill="#FF7348"/>
<path d="M30.0587 33.3808C30.0587 34.1455 29.4403 34.7651 28.6778 34.7651C27.9153 34.7651 27.2969 34.1455 27.2969 33.3808C27.2969 32.6159 27.9153 31.9961 28.6778 31.9961C29.4403 31.9961 30.0587 32.6159 30.0587 33.3808Z" fill="#FF7348"/>
<path d="M35.1995 33.3808C35.1995 34.1455 34.5808 34.7651 33.8183 34.7651C33.0558 34.7651 32.4376 34.1455 32.4376 33.3808C32.4376 32.6159 33.0558 31.9961 33.8183 31.9961C34.5808 31.9961 35.1995 32.6159 35.1995 33.3808Z" fill="#FF7348"/>
<path d="M40.3395 33.3808C40.3395 34.1455 39.7213 34.7651 38.9586 34.7651C38.1963 34.7651 37.5781 34.1455 37.5781 33.3808C37.5781 32.6159 38.1963 31.9961 38.9586 31.9961C39.7213 31.9961 40.3395 32.6159 40.3395 33.3808Z" fill="#FF7348"/>
<path d="M24.9176 38.1875C24.9176 38.9521 24.2995 39.5717 23.5369 39.5717C22.7744 39.5717 22.1562 38.9521 22.1562 38.1875C22.1562 37.4226 22.7744 36.8027 23.5369 36.8027C24.2995 36.8027 24.9176 37.4226 24.9176 38.1875Z" fill="#FF7348"/>
<path d="M30.0587 38.1875C30.0587 38.9521 29.4403 39.5717 28.6778 39.5717C27.9153 39.5717 27.2969 38.9521 27.2969 38.1875C27.2969 37.4226 27.9153 36.8027 28.6778 36.8027C29.4403 36.8027 30.0587 37.4226 30.0587 38.1875Z" fill="#FF7348"/>
<path d="M35.1995 38.1875C35.1995 38.9521 34.5808 39.5717 33.8183 39.5717C33.0558 39.5717 32.4376 38.9521 32.4376 38.1875C32.4376 37.4226 33.0558 36.8027 33.8183 36.8027C34.5808 36.8027 35.1995 37.4226 35.1995 38.1875Z" fill="#FF7348"/>
<path d="M40.3395 38.1875C40.3395 38.9521 39.7213 39.5717 38.9586 39.5717C38.1963 39.5717 37.5781 38.9521 37.5781 38.1875C37.5781 37.4226 38.1963 36.8027 38.9586 36.8027C39.7213 36.8027 40.3395 37.4226 40.3395 38.1875Z" fill="#FF7348"/>
<path d="M24.9176 42.9936C24.9176 43.7585 24.2995 44.3784 23.5369 44.3784C22.7744 44.3784 22.1562 43.7585 22.1562 42.9936C22.1562 42.229 22.7744 41.6094 23.5369 41.6094C24.2995 41.6094 24.9176 42.229 24.9176 42.9936Z" fill="#FF7348"/>
<path d="M30.0587 42.9936C30.0587 43.7585 29.4403 44.3784 28.6778 44.3784C27.9153 44.3784 27.2969 43.7585 27.2969 42.9936C27.2969 42.229 27.9153 41.6094 28.6778 41.6094C29.4403 41.6094 30.0587 42.229 30.0587 42.9936Z" fill="#FF7348"/>
<path d="M35.1993 42.9936C35.1993 43.7585 34.5807 44.3784 33.8182 44.3784C33.0556 44.3784 32.4375 43.7585 32.4375 42.9936C32.4375 42.229 33.0556 41.6094 33.8182 41.6094C34.5807 41.6094 35.1993 42.229 35.1993 42.9936Z" fill="#FF7348"/>
<path d="M20.8054 17.4678H19.9648V22.0795C19.9648 23.2261 20.8949 24.1592 22.0385 24.1592C22.1827 24.1592 22.3229 24.1446 22.4588 24.1163C21.6265 23.9437 20.9751 23.2698 20.8336 22.4244C20.8334 22.4225 20.8331 22.4208 20.8329 22.4188L20.8326 22.4186C20.8309 22.4076 20.8292 22.3966 20.8275 22.3857V22.3847C20.8273 22.3832 20.8273 22.3815 20.827 22.3798L20.8266 22.3788C20.8263 22.3774 20.8263 22.3759 20.8261 22.3742L20.8256 22.373C20.8256 22.3713 20.8253 22.3698 20.8251 22.3681V22.3676L20.8222 22.3462L20.8219 22.3452C20.8217 22.3437 20.8219 22.3423 20.8217 22.3408C20.8217 22.3408 20.8212 22.3396 20.8212 22.3391C20.821 22.3377 20.8212 22.3364 20.821 22.335C20.821 22.3345 20.8207 22.3333 20.8207 22.3333C20.8205 22.3318 20.8202 22.3303 20.82 22.3289V22.3274C20.82 22.326 20.8195 22.3245 20.8193 22.323C20.8193 22.323 20.8193 22.3218 20.819 22.3213C20.819 22.3199 20.819 22.3184 20.8188 22.3172C20.8188 22.3167 20.8188 22.316 20.8188 22.316C20.8183 22.3111 20.8173 22.3065 20.8168 22.3016C20.8168 22.3008 20.8171 22.3001 20.8168 22.2994L20.8166 22.296C20.8163 22.295 20.8161 22.294 20.8161 22.2933L20.8159 22.2896C20.8159 22.2889 20.8156 22.2879 20.8156 22.287C20.8156 22.286 20.8151 22.285 20.8151 22.2838L20.8149 22.2809C20.8146 22.2799 20.8146 22.2787 20.8146 22.2774C20.8144 22.2767 20.8146 22.276 20.8144 22.275C20.8144 22.2738 20.8142 22.2726 20.8139 22.2714C20.8139 22.2706 20.8139 22.2699 20.8137 22.2689C20.8134 22.2665 20.8132 22.264 20.8129 22.2616C20.8129 22.2609 20.8129 22.2604 20.8129 22.2594C20.8127 22.2584 20.8129 22.2572 20.8127 22.2562C20.8127 22.2553 20.8127 22.2545 20.8125 22.2536C20.8125 22.2523 20.8122 22.2511 20.812 22.2501C20.812 22.2492 20.812 22.2482 20.8117 22.2472C20.8117 22.2462 20.8117 22.245 20.8115 22.2441C20.8115 22.2431 20.8117 22.2421 20.8115 22.2409C20.8115 22.2399 20.8115 22.2389 20.8112 22.2377C20.8112 22.2367 20.811 22.236 20.8108 22.2348C20.8108 22.2338 20.8108 22.2326 20.8105 22.2316C20.8105 22.2306 20.8108 22.2294 20.8105 22.2285C20.8105 22.2275 20.8105 22.2263 20.8105 22.2255C20.8105 22.2243 20.8103 22.2231 20.8103 22.2221C20.8103 22.2204 20.8098 22.2189 20.8098 22.2172C20.8095 22.216 20.8095 22.2148 20.8095 22.2133C20.8093 22.2124 20.8095 22.2114 20.8095 22.2104C20.8095 22.2094 20.8093 22.2082 20.8093 22.207C20.8093 22.206 20.809 22.2053 20.8088 22.2043C20.8088 22.2031 20.8088 22.2019 20.8086 22.2009C20.8086 22.1999 20.8086 22.1987 20.8086 22.1977C20.8083 22.1968 20.8083 22.1955 20.8083 22.1948C20.8083 22.1936 20.8086 22.1926 20.8083 22.1916C20.8083 22.1904 20.8083 22.1892 20.8083 22.1882C20.8081 22.1873 20.8081 22.1863 20.8081 22.1853C20.8081 22.1843 20.8076 22.1831 20.8076 22.1819C20.8076 22.1809 20.8076 22.1799 20.8076 22.1792C20.8073 22.1775 20.8073 22.176 20.8073 22.1748C20.8073 22.1739 20.8073 22.1731 20.8073 22.1724C20.8073 22.1704 20.8073 22.1685 20.8071 22.1668C20.8071 22.1661 20.8071 22.1653 20.8071 22.1646C20.8071 22.1631 20.8069 22.1619 20.8066 22.1604C20.8066 22.1597 20.8066 22.1587 20.8066 22.158C20.8066 22.1568 20.8066 22.1553 20.8064 22.1544C20.8064 22.1534 20.8064 22.1524 20.8064 22.1517C20.8064 22.1505 20.8066 22.149 20.8064 22.1478V22.1451C20.8064 22.1441 20.8064 22.1429 20.8064 22.1414C20.8061 22.1407 20.8061 22.1397 20.8061 22.139C20.8061 22.1375 20.8061 22.1361 20.8061 22.1346V22.1329C20.8059 22.131 20.8056 22.129 20.8056 22.1271V22.1258C20.8056 22.1241 20.8056 22.1222 20.8054 22.1202V22.118C20.8054 22.1166 20.8054 22.1151 20.8054 22.1139V22.1115V22.1073C20.8052 22.1066 20.8054 22.1056 20.8054 22.1049V22.1012V22.0985C20.8054 22.0973 20.8054 22.0959 20.8054 22.0946V22.0922V22.0878V22.0859V22.0795V17.4678Z" fill="#C25F43"/>
<path d="M37.5422 17.4678H36.7014V22.0795C36.7014 23.2261 37.6319 24.1592 38.7756 24.1592C38.9195 24.1592 39.06 24.1446 39.1959 24.1163C38.3322 23.9374 37.6633 23.2183 37.557 22.3281C37.5558 22.3172 37.5544 22.3062 37.5534 22.2948L37.5532 22.2938C37.5529 22.2921 37.5529 22.2906 37.5527 22.2889C37.5527 22.2889 37.5527 22.2882 37.5524 22.2877C37.5524 22.2862 37.5522 22.2848 37.5522 22.2831L37.5519 22.2818C37.5517 22.2801 37.5517 22.2787 37.5515 22.277V22.2765C37.5507 22.2692 37.55 22.2621 37.5495 22.255L37.5493 22.2538C37.5493 22.2523 37.549 22.2509 37.549 22.2494C37.549 22.2487 37.5488 22.248 37.5488 22.2475C37.5488 22.2462 37.5485 22.2448 37.5485 22.2436C37.5485 22.2428 37.5483 22.2421 37.5483 22.2414C37.5483 22.2402 37.5481 22.2387 37.5481 22.2375C37.5481 22.2367 37.5481 22.236 37.5478 22.2353C37.5478 22.2341 37.5476 22.2326 37.5476 22.2314C37.5476 22.2306 37.5476 22.2299 37.5473 22.2292C37.5473 22.2277 37.5473 22.2265 37.5473 22.2255V22.2233L37.5466 22.2155V22.2136C37.5466 22.2124 37.5464 22.2111 37.5464 22.2102C37.5464 22.209 37.5464 22.2082 37.5461 22.2072C37.5461 22.206 37.5461 22.2051 37.5459 22.2041V22.2009C37.5456 22.1999 37.5456 22.1987 37.5456 22.1977C37.5456 22.1965 37.5454 22.1955 37.5454 22.1948V22.1916C37.5451 22.1904 37.5451 22.1895 37.5451 22.1882C37.5451 22.1873 37.5449 22.1863 37.5449 22.1853V22.1821C37.5446 22.1812 37.5446 22.1799 37.5446 22.179C37.5446 22.178 37.5444 22.1768 37.5444 22.1756C37.5444 22.1741 37.5444 22.1724 37.5442 22.1707V22.1668C37.5439 22.1661 37.5439 22.1651 37.5439 22.1641V22.1607C37.5437 22.1597 37.5437 22.1587 37.5437 22.1578V22.1544C37.5434 22.1534 37.5434 22.1524 37.5434 22.1514V22.148C37.5434 22.147 37.5432 22.1461 37.5432 22.1451V22.1417V22.1388C37.5429 22.1375 37.5429 22.1363 37.5429 22.1349V22.1327C37.5429 22.1312 37.5429 22.1295 37.5427 22.1278V22.1251V22.1202C37.5427 22.1195 37.5427 22.1185 37.5425 22.1178V22.1139V22.1115V22.1073V22.1049V22.1012C37.5422 22.1002 37.5422 22.0995 37.5422 22.0985V22.0946V22.0922V22.0878V22.0859V22.0795V17.4678Z" fill="#C25F43"/>
<path d="M40.3395 42.9936C40.3395 43.7585 39.7213 44.3784 38.9586 44.3784C38.1963 44.3784 37.5781 43.7585 37.5781 42.9936C37.5781 42.229 38.1963 41.6094 38.9586 41.6094C39.7213 41.6094 40.3395 42.229 40.3395 42.9936Z" fill="#FF7348"/>
<path d="M22.8803 12.0625C21.8574 12.0625 21.0254 12.8969 21.0254 13.9226V20.2393C21.0254 21.265 21.8574 22.0996 22.8803 22.0996C23.9032 22.0996 24.7352 21.265 24.7352 20.2393V13.9226C24.7352 12.8969 23.9032 12.0625 22.8803 12.0625Z" fill="#EAEAEA"/>
<path d="M39.6694 12.126C38.6465 12.126 37.8145 12.9606 37.8145 13.9863V20.3031C37.8145 21.3288 38.6465 22.1631 39.6694 22.1631C40.6922 22.1631 41.5243 21.3288 41.5243 20.3031V13.9863C41.5243 12.9606 40.6922 12.126 39.6694 12.126Z" fill="#EAEAEA"/>
<path d="M40.4164 15.436C40.1852 15.436 39.9961 15.2464 39.9961 15.0146V14.0132C39.9961 13.7812 40.1852 13.5918 40.4164 13.5918C40.6475 13.5918 40.8367 13.7812 40.8367 14.0132V15.0146C40.8367 15.2464 40.6475 15.436 40.4164 15.436Z" fill="white"/>
<path d="M40.4164 19.9398C40.1852 19.9398 39.9961 19.7504 39.9961 19.5186V16.9273C39.9961 16.6955 40.1852 16.5059 40.4164 16.5059C40.6475 16.5059 40.8367 16.6955 40.8367 16.9273V19.5186C40.8367 19.7504 40.6475 19.9398 40.4164 19.9398Z" fill="white"/>
<path d="M23.6058 15.436C23.3747 15.436 23.1855 15.2464 23.1855 15.0146V14.0132C23.1855 13.7812 23.3747 13.5918 23.6058 13.5918C23.837 13.5918 24.0261 13.7812 24.0261 14.0132V15.0146C24.0261 15.2464 23.837 15.436 23.6058 15.436Z" fill="white"/>
<path d="M23.6058 19.9398C23.3747 19.9398 23.1855 19.7504 23.1855 19.5186V16.9273C23.1855 16.6955 23.3747 16.5059 23.6058 16.5059C23.837 16.5059 24.0261 16.6955 24.0261 16.9273V19.5186C24.0261 19.7504 23.837 19.9398 23.6058 19.9398Z" fill="white"/>
</g>
</g>
</g>
<mask id="mask5_958_46805" style="mask-type:luminance" maskUnits="userSpaceOnUse" x="-45" y="-5" width="158" height="78">
<path d="M-45 -5H113V73H-45V-5Z" fill="white"/>
</mask>
<g mask="url(#mask5_958_46805)">
<mask id="mask6_958_46805" style="mask-type:luminance" maskUnits="userSpaceOnUse" x="-45" y="-5" width="158" height="78">
<path d="M-45 -5H113V73H-45V-5Z" fill="white"/>
</mask>
<g mask="url(#mask6_958_46805)">
<mask id="mask7_958_46805" style="mask-type:luminance" maskUnits="userSpaceOnUse" x="-45" y="-20" width="158" height="79">
<path d="M-45 -19.625H113V58.375H-45V-19.625Z" fill="white"/>
</mask>
<g mask="url(#mask7_958_46805)">
<path d="M44.5142 52.6122H17.9813C16.2181 52.6122 14.7754 51.1653 14.7754 49.3974V29.5879C14.7754 27.8197 16.2181 26.373 17.9813 26.373H44.5142C46.2777 26.373 47.7201 27.8197 47.7201 29.5879V49.3974C47.7201 51.1653 46.2777 52.6122 44.5142 52.6122Z" fill="#DBDBDB"/>
<path d="M44.5795 51.5583H17.9164C16.1889 51.5583 14.7754 50.1409 14.7754 48.4085V29.5225C14.7754 27.79 16.1889 26.373 17.9164 26.373H44.5795C46.3071 26.373 47.7206 27.79 47.7206 29.5225V48.4085C47.7206 50.1409 46.3071 51.5583 44.5795 51.5583Z" fill="#EAEAEA"/>
<path d="M44.123 17.4678H41.6901V22.1853C41.6901 23.3322 40.7596 24.2647 39.6159 24.2647C38.4722 24.2647 37.542 23.3322 37.542 22.1853V17.4678H24.9535V22.1853C24.9535 23.3322 24.0233 24.2647 22.8796 24.2647C21.7359 24.2647 20.8054 23.3322 20.8054 22.1853V17.4678H18.3727C16.3943 17.4678 14.7754 19.0911 14.7754 21.0753V46.8967C14.7754 48.8808 16.3943 50.5042 18.3727 50.5042H44.123C46.1017 50.5042 47.7201 48.8808 47.7201 46.8967V21.0753C47.7201 19.0911 46.1017 17.4678 44.123 17.4678Z" fill="white"/>
<path d="M44.123 17.4678H41.6901V22.0798C41.6901 23.2264 40.7596 24.1594 39.6159 24.1594C38.4722 24.1594 37.542 23.2264 37.542 22.0798V17.4678H24.9535V22.0798C24.9535 23.2264 24.0233 24.1594 22.8796 24.1594C21.7359 24.1594 20.8054 23.2264 20.8054 22.0798V17.4678H18.3727C16.3943 17.4678 14.7754 19.0914 14.7754 21.0755V26.3724H47.7201V21.0755C47.7201 19.0914 46.1017 17.4678 44.123 17.4678Z" fill="#FF7348"/>
<path d="M44.123 17.4678H41.6901V22.0798C41.6901 23.2264 40.7596 24.1594 39.6159 24.1594C38.4722 24.1594 37.542 23.2264 37.542 22.0798V17.4678H24.9535V22.0798C24.9535 23.2264 24.0233 24.1594 22.8796 24.1594C21.7359 24.1594 20.8054 23.2264 20.8054 22.0798V17.4678H18.3727C16.3943 17.4678 14.7754 19.0914 14.7754 21.0755V26.3724H47.7201V21.0755C47.7201 19.0914 46.1017 17.4678 44.123 17.4678Z" fill="#FF7348"/>
<path d="M24.9176 33.3808C24.9176 34.1455 24.2995 34.7651 23.5369 34.7651C22.7744 34.7651 22.1562 34.1455 22.1562 33.3808C22.1562 32.6159 22.7744 31.9961 23.5369 31.9961C24.2995 31.9961 24.9176 32.6159 24.9176 33.3808Z" fill="#FF7348"/>
<path d="M30.0587 33.3808C30.0587 34.1455 29.4403 34.7651 28.6778 34.7651C27.9153 34.7651 27.2969 34.1455 27.2969 33.3808C27.2969 32.6159 27.9153 31.9961 28.6778 31.9961C29.4403 31.9961 30.0587 32.6159 30.0587 33.3808Z" fill="#FF7348"/>
<path d="M35.1995 33.3808C35.1995 34.1455 34.5808 34.7651 33.8183 34.7651C33.0558 34.7651 32.4376 34.1455 32.4376 33.3808C32.4376 32.6159 33.0558 31.9961 33.8183 31.9961C34.5808 31.9961 35.1995 32.6159 35.1995 33.3808Z" fill="#FF7348"/>
<path d="M40.3395 33.3808C40.3395 34.1455 39.7213 34.7651 38.9586 34.7651C38.1963 34.7651 37.5781 34.1455 37.5781 33.3808C37.5781 32.6159 38.1963 31.9961 38.9586 31.9961C39.7213 31.9961 40.3395 32.6159 40.3395 33.3808Z" fill="#FF7348"/>
<path d="M24.9176 38.1875C24.9176 38.9521 24.2995 39.5717 23.5369 39.5717C22.7744 39.5717 22.1562 38.9521 22.1562 38.1875C22.1562 37.4226 22.7744 36.8027 23.5369 36.8027C24.2995 36.8027 24.9176 37.4226 24.9176 38.1875Z" fill="#FF7348"/>
<path d="M30.0587 38.1875C30.0587 38.9521 29.4403 39.5717 28.6778 39.5717C27.9153 39.5717 27.2969 38.9521 27.2969 38.1875C27.2969 37.4226 27.9153 36.8027 28.6778 36.8027C29.4403 36.8027 30.0587 37.4226 30.0587 38.1875Z" fill="#FF7348"/>
<path d="M35.1995 38.1875C35.1995 38.9521 34.5808 39.5717 33.8183 39.5717C33.0558 39.5717 32.4376 38.9521 32.4376 38.1875C32.4376 37.4226 33.0558 36.8027 33.8183 36.8027C34.5808 36.8027 35.1995 37.4226 35.1995 38.1875Z" fill="#FF7348"/>
<path d="M40.3395 38.1875C40.3395 38.9521 39.7213 39.5717 38.9586 39.5717C38.1963 39.5717 37.5781 38.9521 37.5781 38.1875C37.5781 37.4226 38.1963 36.8027 38.9586 36.8027C39.7213 36.8027 40.3395 37.4226 40.3395 38.1875Z" fill="#FF7348"/>
<path d="M24.9176 42.9936C24.9176 43.7585 24.2995 44.3784 23.5369 44.3784C22.7744 44.3784 22.1562 43.7585 22.1562 42.9936C22.1562 42.229 22.7744 41.6094 23.5369 41.6094C24.2995 41.6094 24.9176 42.229 24.9176 42.9936Z" fill="#FF7348"/>
<path d="M30.0587 42.9936C30.0587 43.7585 29.4403 44.3784 28.6778 44.3784C27.9153 44.3784 27.2969 43.7585 27.2969 42.9936C27.2969 42.229 27.9153 41.6094 28.6778 41.6094C29.4403 41.6094 30.0587 42.229 30.0587 42.9936Z" fill="#FF7348"/>
<path d="M35.1993 42.9936C35.1993 43.7585 34.5807 44.3784 33.8182 44.3784C33.0556 44.3784 32.4375 43.7585 32.4375 42.9936C32.4375 42.229 33.0556 41.6094 33.8182 41.6094C34.5807 41.6094 35.1993 42.229 35.1993 42.9936Z" fill="#FF7348"/>
<path d="M20.8054 17.4678H19.9648V22.0795C19.9648 23.2261 20.8949 24.1592 22.0385 24.1592C22.1827 24.1592 22.3229 24.1446 22.4588 24.1163C21.6265 23.9437 20.9751 23.2698 20.8336 22.4244C20.8334 22.4225 20.8331 22.4208 20.8329 22.4188L20.8326 22.4186C20.8309 22.4076 20.8292 22.3966 20.8275 22.3857V22.3847C20.8273 22.3832 20.8273 22.3815 20.827 22.3798L20.8266 22.3788C20.8263 22.3774 20.8263 22.3759 20.8261 22.3742L20.8256 22.373C20.8256 22.3713 20.8253 22.3698 20.8251 22.3681V22.3676L20.8222 22.3462L20.8219 22.3452C20.8217 22.3437 20.8219 22.3423 20.8217 22.3408C20.8217 22.3408 20.8212 22.3396 20.8212 22.3391C20.821 22.3377 20.8212 22.3364 20.821 22.335C20.821 22.3345 20.8207 22.3333 20.8207 22.3333C20.8205 22.3318 20.8202 22.3303 20.82 22.3289V22.3274C20.82 22.326 20.8195 22.3245 20.8193 22.323C20.8193 22.323 20.8193 22.3218 20.819 22.3213C20.819 22.3199 20.819 22.3184 20.8188 22.3172C20.8188 22.3167 20.8188 22.316 20.8188 22.316C20.8183 22.3111 20.8173 22.3065 20.8168 22.3016C20.8168 22.3008 20.8171 22.3001 20.8168 22.2994L20.8166 22.296C20.8163 22.295 20.8161 22.294 20.8161 22.2933L20.8159 22.2896C20.8159 22.2889 20.8156 22.2879 20.8156 22.287C20.8156 22.286 20.8151 22.285 20.8151 22.2838L20.8149 22.2809C20.8146 22.2799 20.8146 22.2787 20.8146 22.2774C20.8144 22.2767 20.8146 22.276 20.8144 22.275C20.8144 22.2738 20.8142 22.2726 20.8139 22.2714C20.8139 22.2706 20.8139 22.2699 20.8137 22.2689C20.8134 22.2665 20.8132 22.264 20.8129 22.2616C20.8129 22.2609 20.8129 22.2604 20.8129 22.2594C20.8127 22.2584 20.8129 22.2572 20.8127 22.2562C20.8127 22.2553 20.8127 22.2545 20.8125 22.2536C20.8125 22.2523 20.8122 22.2511 20.812 22.2501C20.812 22.2492 20.812 22.2482 20.8117 22.2472C20.8117 22.2462 20.8117 22.245 20.8115 22.2441C20.8115 22.2431 20.8117 22.2421 20.8115 22.2409C20.8115 22.2399 20.8115 22.2389 20.8112 22.2377C20.8112 22.2367 20.811 22.236 20.8108 22.2348C20.8108 22.2338 20.8108 22.2326 20.8105 22.2316C20.8105 22.2306 20.8108 22.2294 20.8105 22.2285C20.8105 22.2275 20.8105 22.2263 20.8105 22.2255C20.8105 22.2243 20.8103 22.2231 20.8103 22.2221C20.8103 22.2204 20.8098 22.2189 20.8098 22.2172C20.8095 22.216 20.8095 22.2148 20.8095 22.2133C20.8093 22.2124 20.8095 22.2114 20.8095 22.2104C20.8095 22.2094 20.8093 22.2082 20.8093 22.207C20.8093 22.206 20.809 22.2053 20.8088 22.2043C20.8088 22.2031 20.8088 22.2019 20.8086 22.2009C20.8086 22.1999 20.8086 22.1987 20.8086 22.1977C20.8083 22.1968 20.8083 22.1955 20.8083 22.1948C20.8083 22.1936 20.8086 22.1926 20.8083 22.1916C20.8083 22.1904 20.8083 22.1892 20.8083 22.1882C20.8081 22.1873 20.8081 22.1863 20.8081 22.1853C20.8081 22.1843 20.8076 22.1831 20.8076 22.1819C20.8076 22.1809 20.8076 22.1799 20.8076 22.1792C20.8073 22.1775 20.8073 22.176 20.8073 22.1748C20.8073 22.1739 20.8073 22.1731 20.8073 22.1724C20.8073 22.1704 20.8073 22.1685 20.8071 22.1668C20.8071 22.1661 20.8071 22.1653 20.8071 22.1646C20.8071 22.1631 20.8069 22.1619 20.8066 22.1604C20.8066 22.1597 20.8066 22.1587 20.8066 22.158C20.8066 22.1568 20.8066 22.1553 20.8064 22.1544C20.8064 22.1534 20.8064 22.1524 20.8064 22.1517C20.8064 22.1505 20.8066 22.149 20.8064 22.1478V22.1451C20.8064 22.1441 20.8064 22.1429 20.8064 22.1414C20.8061 22.1407 20.8061 22.1397 20.8061 22.139C20.8061 22.1375 20.8061 22.1361 20.8061 22.1346V22.1329C20.8059 22.131 20.8056 22.129 20.8056 22.1271V22.1258C20.8056 22.1241 20.8056 22.1222 20.8054 22.1202V22.118C20.8054 22.1166 20.8054 22.1151 20.8054 22.1139V22.1115V22.1073C20.8052 22.1066 20.8054 22.1056 20.8054 22.1049V22.1012V22.0985C20.8054 22.0973 20.8054 22.0959 20.8054 22.0946V22.0922V22.0878V22.0859V22.0795V17.4678Z" fill="#C25F43"/>
<path d="M37.5422 17.4678H36.7014V22.0795C36.7014 23.2261 37.6319 24.1592 38.7756 24.1592C38.9195 24.1592 39.06 24.1446 39.1959 24.1163C38.3322 23.9374 37.6633 23.2183 37.557 22.3281C37.5558 22.3172 37.5544 22.3062 37.5534 22.2948L37.5532 22.2938C37.5529 22.2921 37.5529 22.2906 37.5527 22.2889C37.5527 22.2889 37.5527 22.2882 37.5524 22.2877C37.5524 22.2862 37.5522 22.2848 37.5522 22.2831L37.5519 22.2818C37.5517 22.2801 37.5517 22.2787 37.5515 22.277V22.2765C37.5507 22.2692 37.55 22.2621 37.5495 22.255L37.5493 22.2538C37.5493 22.2523 37.549 22.2509 37.549 22.2494C37.549 22.2487 37.5488 22.248 37.5488 22.2475C37.5488 22.2462 37.5485 22.2448 37.5485 22.2436C37.5485 22.2428 37.5483 22.2421 37.5483 22.2414C37.5483 22.2402 37.5481 22.2387 37.5481 22.2375C37.5481 22.2367 37.5481 22.236 37.5478 22.2353C37.5478 22.2341 37.5476 22.2326 37.5476 22.2314C37.5476 22.2306 37.5476 22.2299 37.5473 22.2292C37.5473 22.2277 37.5473 22.2265 37.5473 22.2255V22.2233L37.5466 22.2155V22.2136C37.5466 22.2124 37.5464 22.2111 37.5464 22.2102C37.5464 22.209 37.5464 22.2082 37.5461 22.2072C37.5461 22.206 37.5461 22.2051 37.5459 22.2041V22.2009C37.5456 22.1999 37.5456 22.1987 37.5456 22.1977C37.5456 22.1965 37.5454 22.1955 37.5454 22.1948V22.1916C37.5451 22.1904 37.5451 22.1895 37.5451 22.1882C37.5451 22.1873 37.5449 22.1863 37.5449 22.1853V22.1821C37.5446 22.1812 37.5446 22.1799 37.5446 22.179C37.5446 22.178 37.5444 22.1768 37.5444 22.1756C37.5444 22.1741 37.5444 22.1724 37.5442 22.1707V22.1668C37.5439 22.1661 37.5439 22.1651 37.5439 22.1641V22.1607C37.5437 22.1597 37.5437 22.1587 37.5437 22.1578V22.1544C37.5434 22.1534 37.5434 22.1524 37.5434 22.1514V22.148C37.5434 22.147 37.5432 22.1461 37.5432 22.1451V22.1417V22.1388C37.5429 22.1375 37.5429 22.1363 37.5429 22.1349V22.1327C37.5429 22.1312 37.5429 22.1295 37.5427 22.1278V22.1251V22.1202C37.5427 22.1195 37.5427 22.1185 37.5425 22.1178V22.1139V22.1115V22.1073V22.1049V22.1012C37.5422 22.1002 37.5422 22.0995 37.5422 22.0985V22.0946V22.0922V22.0878V22.0859V22.0795V17.4678Z" fill="#C25F43"/>
<path d="M40.3395 42.9936C40.3395 43.7585 39.7213 44.3784 38.9586 44.3784C38.1963 44.3784 37.5781 43.7585 37.5781 42.9936C37.5781 42.229 38.1963 41.6094 38.9586 41.6094C39.7213 41.6094 40.3395 42.229 40.3395 42.9936Z" fill="#FF7348"/>
<path d="M22.8803 12.0625C21.8574 12.0625 21.0254 12.8969 21.0254 13.9226V20.2393C21.0254 21.265 21.8574 22.0996 22.8803 22.0996C23.9032 22.0996 24.7352 21.265 24.7352 20.2393V13.9226C24.7352 12.8969 23.9032 12.0625 22.8803 12.0625Z" fill="#EAEAEA"/>
<path d="M39.6694 12.126C38.6465 12.126 37.8145 12.9606 37.8145 13.9863V20.3031C37.8145 21.3288 38.6465 22.1631 39.6694 22.1631C40.6922 22.1631 41.5243 21.3288 41.5243 20.3031V13.9863C41.5243 12.9606 40.6922 12.126 39.6694 12.126Z" fill="#EAEAEA"/>
<path d="M40.4164 15.436C40.1852 15.436 39.9961 15.2464 39.9961 15.0146V14.0132C39.9961 13.7812 40.1852 13.5918 40.4164 13.5918C40.6475 13.5918 40.8367 13.7812 40.8367 14.0132V15.0146C40.8367 15.2464 40.6475 15.436 40.4164 15.436Z" fill="white"/>
<path d="M40.4164 19.9398C40.1852 19.9398 39.9961 19.7504 39.9961 19.5186V16.9273C39.9961 16.6955 40.1852 16.5059 40.4164 16.5059C40.6475 16.5059 40.8367 16.6955 40.8367 16.9273V19.5186C40.8367 19.7504 40.6475 19.9398 40.4164 19.9398Z" fill="white"/>
<path d="M23.6058 15.436C23.3747 15.436 23.1855 15.2464 23.1855 15.0146V14.0132C23.1855 13.7812 23.3747 13.5918 23.6058 13.5918C23.837 13.5918 24.0261 13.7812 24.0261 14.0132V15.0146C24.0261 15.2464 23.837 15.436 23.6058 15.436Z" fill="white"/>
<path d="M23.6058 19.9398C23.3747 19.9398 23.1855 19.7504 23.1855 19.5186V16.9273C23.1855 16.6955 23.3747 16.5059 23.6058 16.5059C23.837 16.5059 24.0261 16.6955 24.0261 16.9273V19.5186C24.0261 19.7504 23.837 19.9398 23.6058 19.9398Z" fill="white"/>
</g>
<g opacity="0.25">
<path d="M44.123 17.4678H41.6901V22.1853C41.6901 23.3322 40.7596 24.2647 39.6159 24.2647C38.4722 24.2647 37.542 23.3322 37.542 22.1853V17.4678H24.9535V22.1853C24.9535 23.3322 24.0233 24.2647 22.8796 24.2647C21.7359 24.2647 20.8054 23.3322 20.8054 22.1853V17.4678H18.3727C16.3943 17.4678 14.7754 19.0911 14.7754 21.0753V46.8967C14.7754 48.8808 16.3943 50.5042 18.3727 50.5042H44.123C46.1017 50.5042 47.7201 48.8808 47.7201 46.8967V21.0753C47.7201 19.0911 46.1017 17.4678 44.123 17.4678Z" fill="#222222"/>
</g>
<mask id="mask8_958_46805" style="mask-type:luminance" maskUnits="userSpaceOnUse" x="-45" y="-10" width="158" height="57">
<path d="M-45 -9.25H113V46.4671H-45V-9.25Z" fill="white"/>
</mask>
<g mask="url(#mask8_958_46805)">
<path d="M44.1229 17.2461H41.6901V20.6159C41.6901 21.4351 40.7595 22.1013 39.6158 22.1013C38.4721 22.1013 37.5418 21.4351 37.5418 20.6159V17.2461H24.9535V20.6159C24.9535 21.4351 24.023 22.1013 22.8793 22.1013C21.7357 22.1013 20.8052 21.4351 20.8052 20.6159V17.2461H18.3726C16.3941 17.2461 14.7753 18.4057 14.7753 19.823L12.0508 38.1927C12.0508 39.61 13.4601 40.6571 15.4385 40.6571L48 40.8072C49.9787 40.8072 50.916 39.7602 50.916 38.3429L47.72 19.823C47.72 18.4057 46.1016 17.2461 44.1229 17.2461Z" fill="white"/>
<path d="M44.1229 17.2461H41.69V20.5405C41.69 21.3596 40.7595 22.0261 39.6158 22.0261C38.4721 22.0261 37.5419 21.3596 37.5419 20.5405V17.2461H24.9534V20.5405C24.9534 21.3596 24.0231 22.0261 22.8795 22.0261C21.7358 22.0261 20.8053 21.3596 20.8053 20.5405V17.2461H18.3726C16.3942 17.2461 14.7753 18.4059 14.7753 19.8232L14.1465 23.7195L48.5059 23.8321L47.72 19.8232C47.72 18.4059 46.1016 17.2461 44.1229 17.2461Z" fill="#FF7348"/>
<path d="M20.8053 17.2461H19.9647V20.5404C19.9647 21.3594 20.8947 22.0259 22.0384 22.0259C22.1826 22.0259 22.3228 22.0155 22.4587 21.9953C21.6264 21.872 20.9749 21.3906 20.8335 20.7867C20.8332 20.7853 20.833 20.7841 20.8327 20.7827L20.8325 20.7826C20.8308 20.7747 20.8291 20.7669 20.8274 20.7591V20.7584C20.8272 20.7573 20.8272 20.7561 20.8269 20.7549L20.8264 20.7542C20.8262 20.7531 20.8262 20.7521 20.8259 20.7509L20.8255 20.75C20.8255 20.7488 20.8252 20.7477 20.825 20.7465V20.7462L20.8221 20.7309L20.8218 20.7302C20.8216 20.7291 20.8218 20.7281 20.8216 20.727C20.8216 20.727 20.8211 20.7261 20.8211 20.7258C20.8208 20.7248 20.8211 20.7239 20.8208 20.7228C20.8208 20.7225 20.8206 20.7216 20.8206 20.7216C20.8204 20.7206 20.8201 20.7195 20.8199 20.7185V20.7174C20.8199 20.7164 20.8194 20.7154 20.8191 20.7143C20.8191 20.7143 20.8191 20.7134 20.8189 20.7131C20.8189 20.712 20.8189 20.711 20.8187 20.7101C20.8187 20.7098 20.8187 20.7093 20.8187 20.7093C20.8182 20.7058 20.8172 20.7025 20.8167 20.699C20.8167 20.6985 20.8169 20.6979 20.8167 20.6974L20.8165 20.695C20.8162 20.6943 20.816 20.6936 20.816 20.6931L20.8157 20.6905C20.8157 20.6899 20.8155 20.6892 20.8155 20.6885C20.8155 20.6878 20.815 20.6871 20.815 20.6863L20.8148 20.6842C20.8145 20.6835 20.8145 20.6826 20.8145 20.6818C20.8143 20.6812 20.8145 20.6807 20.8143 20.68C20.8143 20.6791 20.814 20.6783 20.8138 20.6774C20.8138 20.6769 20.8138 20.6764 20.8135 20.6757C20.8133 20.6739 20.8131 20.6722 20.8128 20.6704C20.8128 20.6699 20.8128 20.6696 20.8128 20.6689C20.8126 20.6682 20.8128 20.6673 20.8126 20.6666C20.8126 20.6659 20.8126 20.6654 20.8123 20.6647C20.8123 20.6638 20.8121 20.6629 20.8118 20.6622C20.8118 20.6616 20.8118 20.6609 20.8116 20.6602C20.8116 20.6595 20.8116 20.6586 20.8114 20.6579C20.8114 20.6572 20.8116 20.6565 20.8114 20.6556C20.8114 20.6549 20.8114 20.6542 20.8111 20.6534C20.8111 20.6527 20.8109 20.6522 20.8106 20.6513C20.8106 20.6506 20.8106 20.6497 20.8104 20.649C20.8104 20.6483 20.8106 20.6474 20.8104 20.6468C20.8104 20.6461 20.8104 20.6452 20.8104 20.6447C20.8104 20.6438 20.8101 20.6429 20.8101 20.6422C20.8101 20.641 20.8097 20.64 20.8097 20.6387C20.8094 20.6379 20.8094 20.637 20.8094 20.636C20.8092 20.6353 20.8094 20.6346 20.8094 20.6339C20.8094 20.6332 20.8092 20.6323 20.8092 20.6314C20.8092 20.6307 20.8089 20.6302 20.8087 20.6295C20.8087 20.6286 20.8087 20.6278 20.8084 20.6271C20.8084 20.6264 20.8084 20.6255 20.8084 20.6248C20.8082 20.6241 20.8082 20.6232 20.8082 20.6227C20.8082 20.6219 20.8084 20.6212 20.8082 20.6205C20.8082 20.6196 20.8082 20.6187 20.8082 20.618C20.808 20.6173 20.808 20.6166 20.808 20.6159C20.808 20.6152 20.8075 20.6144 20.8075 20.6135C20.8075 20.6128 20.8075 20.6121 20.8075 20.6116C20.8072 20.6104 20.8072 20.6093 20.8072 20.6084C20.8072 20.6078 20.8072 20.6072 20.8072 20.6067C20.8072 20.6053 20.8072 20.6039 20.807 20.6027C20.807 20.6022 20.807 20.6017 20.807 20.6011C20.807 20.6001 20.8067 20.5992 20.8065 20.5982C20.8065 20.5977 20.8065 20.597 20.8065 20.5964C20.8065 20.5956 20.8065 20.5945 20.8063 20.5938C20.8063 20.5931 20.8063 20.5924 20.8063 20.5919C20.8063 20.591 20.8065 20.59 20.8063 20.5891V20.5872C20.8063 20.5865 20.8063 20.5856 20.8063 20.5846C20.806 20.5841 20.806 20.5834 20.806 20.5829C20.806 20.5818 20.806 20.5808 20.806 20.5797V20.5785C20.8058 20.5771 20.8055 20.5757 20.8055 20.5743V20.5735C20.8055 20.5722 20.8055 20.5708 20.8053 20.5694V20.5679C20.8053 20.5668 20.8053 20.5658 20.8053 20.5649V20.5632V20.5602C20.805 20.5597 20.8053 20.559 20.8053 20.5585V20.5559V20.5539C20.8053 20.5531 20.8053 20.552 20.8053 20.5512V20.5494V20.5463V20.5449V20.5404V17.2461Z" fill="#C25F43"/>
<path d="M37.5421 17.2461H36.7013V20.5404C36.7013 21.3594 37.6318 22.0259 38.7755 22.0259C38.9194 22.0259 39.0599 22.0155 39.1957 21.9953C38.3321 21.8675 37.6631 21.3538 37.5569 20.718C37.5557 20.7101 37.5543 20.7023 37.5533 20.6941L37.553 20.6934C37.5528 20.6922 37.5528 20.6912 37.5525 20.6899C37.5525 20.6899 37.5525 20.6894 37.5523 20.6891C37.5523 20.688 37.5521 20.687 37.5521 20.6858L37.5518 20.6849C37.5516 20.6837 37.5516 20.6826 37.5513 20.6814V20.6811C37.5506 20.6758 37.5499 20.6708 37.5494 20.6657L37.5491 20.6649C37.5491 20.6638 37.5489 20.6628 37.5489 20.6617C37.5489 20.6612 37.5487 20.6607 37.5487 20.6603C37.5487 20.6595 37.5484 20.6584 37.5484 20.6575C37.5484 20.657 37.5482 20.6565 37.5482 20.656C37.5482 20.6551 37.5479 20.6541 37.5479 20.6532C37.5479 20.6527 37.5479 20.6522 37.5477 20.6516C37.5477 20.6508 37.5474 20.6497 37.5474 20.6488C37.5474 20.6483 37.5474 20.6478 37.5472 20.6473C37.5472 20.6462 37.5472 20.6454 37.5472 20.6447V20.6431L37.5465 20.6375V20.6361C37.5465 20.6353 37.5462 20.6344 37.5462 20.6337C37.5462 20.6328 37.5462 20.6323 37.546 20.6316C37.546 20.6307 37.546 20.63 37.5457 20.6293V20.6271C37.5455 20.6264 37.5455 20.6255 37.5455 20.6248C37.5455 20.6239 37.5453 20.6232 37.5453 20.6227V20.6205C37.545 20.6196 37.545 20.6189 37.545 20.618C37.545 20.6173 37.5448 20.6166 37.5448 20.6159V20.6137C37.5445 20.613 37.5445 20.6121 37.5445 20.6114C37.5445 20.6107 37.5443 20.6098 37.5443 20.609C37.5443 20.6079 37.5443 20.6067 37.544 20.6055V20.6027C37.5438 20.6022 37.5438 20.6015 37.5438 20.6008V20.5983C37.5436 20.5977 37.5436 20.597 37.5436 20.5963V20.5938C37.5433 20.5931 37.5433 20.5924 37.5433 20.5917V20.5893C37.5433 20.5886 37.5431 20.5879 37.5431 20.5872V20.5848V20.5827C37.5428 20.5818 37.5428 20.5809 37.5428 20.5799V20.5783C37.5428 20.5773 37.5428 20.5761 37.5426 20.5748V20.5729V20.5694C37.5426 20.5689 37.5426 20.5682 37.5423 20.5677V20.5649V20.5632V20.5602V20.5585V20.5559C37.5421 20.5552 37.5421 20.5546 37.5421 20.5539V20.5512V20.5494V20.5463V20.5449V20.5404V17.2461Z" fill="#C25F43"/>
<path d="M23.8688 28.6132C23.8688 29.1594 23.2506 29.602 22.4881 29.602C21.7256 29.602 21.1074 29.1594 21.1074 28.6132C21.1074 28.0668 21.7256 27.624 22.4881 27.624C23.2506 27.624 23.8688 28.0668 23.8688 28.6132Z" fill="#FF7348"/>
<path d="M29.7443 28.6132C29.7443 29.1594 29.1259 29.602 28.3633 29.602C27.6008 29.602 26.9824 29.1594 26.9824 28.6132C26.9824 28.0668 27.6008 27.624 28.3633 27.624C29.1259 27.624 29.7443 28.0668 29.7443 28.6132Z" fill="#FF7348"/>
<path d="M35.0431 28.6132C35.0431 29.1594 34.4245 29.602 33.6619 29.602C32.8994 29.602 32.2812 29.1594 32.2812 28.6132C32.2812 28.0668 32.8994 27.624 33.6619 27.624C34.4245 27.624 35.0431 28.0668 35.0431 28.6132Z" fill="#FF7348"/>
<path d="M41.0212 28.6132C41.0212 29.1594 40.4031 29.602 39.6403 29.602C38.878 29.602 38.2599 29.1594 38.2599 28.6132C38.2599 28.0668 38.878 27.624 39.6403 27.624C40.4031 27.624 41.0212 28.0668 41.0212 28.6132Z" fill="#FF7348"/>
<path d="M23.3453 32.0468C23.3453 32.593 22.7272 33.0356 21.9647 33.0356C21.2021 33.0356 20.584 32.593 20.584 32.0468C20.584 31.5004 21.2021 31.0576 21.9647 31.0576C22.7272 31.0576 23.3453 31.5004 23.3453 32.0468Z" fill="#FF7348"/>
<path d="M29.6915 32.0468C29.6915 32.593 29.0731 33.0356 28.3106 33.0356C27.5481 33.0356 26.9297 32.593 26.9297 32.0468C26.9297 31.5004 27.5481 31.0576 28.3106 31.0576C29.0731 31.0576 29.6915 31.5004 29.6915 32.0468Z" fill="#FF7348"/>
<path d="M35.2521 32.0468C35.2521 32.593 34.6334 33.0356 33.8709 33.0356C33.1084 33.0356 32.4902 32.593 32.4902 32.0468C32.4902 31.5004 33.1084 31.0576 33.8709 31.0576C34.6334 31.0576 35.2521 31.5004 35.2521 32.0468Z" fill="#FF7348"/>
<path d="M41.7555 32.0468C41.7555 32.593 41.1373 33.0356 40.3746 33.0356C39.6123 33.0356 38.9941 32.593 38.9941 32.0468C38.9941 31.5004 39.6123 31.0576 40.3746 31.0576C41.1373 31.0576 41.7555 31.5004 41.7555 32.0468Z" fill="#FF7348"/>
<path d="M22.8219 35.48C22.8219 36.0264 22.2038 36.4692 21.4412 36.4692C20.6787 36.4692 20.0605 36.0264 20.0605 35.48C20.0605 34.9338 20.6787 34.4912 21.4412 34.4912C22.2038 34.4912 22.8219 34.9338 22.8219 35.48Z" fill="#FF7348"/>
<path d="M29.4825 35.48C29.4825 36.0264 28.8642 36.4692 28.1016 36.4692C27.3391 36.4692 26.7207 36.0264 26.7207 35.48C26.7207 34.9338 27.3391 34.4912 28.1016 34.4912C28.8642 34.4912 29.4825 34.9338 29.4825 35.48Z" fill="#FF7348"/>
<path d="M35.5665 35.48C35.5665 36.0264 34.9479 36.4692 34.1854 36.4692C33.4228 36.4692 32.8047 36.0264 32.8047 35.48C32.8047 34.9338 33.4228 34.4912 34.1854 34.4912C34.9479 34.4912 35.5665 34.9338 35.5665 35.48Z" fill="#FF7348"/>
<path d="M42.4352 35.48C42.4352 36.0264 41.817 36.4692 41.0543 36.4692C40.292 36.4692 39.6738 36.0264 39.6738 35.48C39.6738 34.9338 40.292 34.4912 41.0543 34.4912C41.817 34.4912 42.4352 34.9338 42.4352 35.48Z" fill="#FF7348"/>
</g>
</g>
</g>
</g>
</g>
<defs>
<clipPath id="clip0_958_46805">
<rect width="41" height="39" fill="white" transform="translate(11 12)"/>
</clipPath>
</defs>
</svg>
