<svg width="28" height="28" viewBox="0 0 28 28" fill="none" xmlns="http://www.w3.org/2000/svg">
<path d="M22.1665 1.16675H5.83317C5.55361 1.16997 5.2845 1.27347 5.07484 1.45841C5.90683 1.75113 6.63884 2.27363 7.18603 2.96536C7.73321 3.65709 8.07317 4.48971 8.1665 5.36675C8.18434 5.52179 8.18434 5.67837 8.1665 5.83342V25.6667C8.16595 25.8899 8.22941 26.1085 8.34934 26.2967C8.46928 26.4849 8.64066 26.6347 8.84317 26.7284C9.04616 26.8219 9.27171 26.855 9.49301 26.824C9.7143 26.793 9.92204 26.6991 10.0915 26.5534L13.4165 23.7067L16.7415 26.5534C16.9528 26.7342 17.2218 26.8335 17.4998 26.8335C17.7779 26.8335 18.0468 26.7342 18.2582 26.5534L21.5832 23.7067L24.9082 26.5534C25.1195 26.7341 25.3884 26.8334 25.6665 26.8334C25.8353 26.8322 26.002 26.7965 26.1565 26.7284C26.359 26.6347 26.5304 26.4849 26.6503 26.2967C26.7703 26.1085 26.8337 25.8899 26.8332 25.6667V5.83342C26.8332 4.59574 26.3415 3.40875 25.4663 2.53358C24.5912 1.65841 23.4042 1.16675 22.1665 1.16675ZM20.9998 17.5001H13.9998C13.6904 17.5001 13.3937 17.3772 13.1749 17.1584C12.9561 16.9396 12.8332 16.6428 12.8332 16.3334C12.8332 16.024 12.9561 15.7273 13.1749 15.5085C13.3937 15.2897 13.6904 15.1667 13.9998 15.1667H20.9998C21.3093 15.1667 21.606 15.2897 21.8248 15.5085C22.0436 15.7273 22.1665 16.024 22.1665 16.3334C22.1665 16.6428 22.0436 16.9396 21.8248 17.1584C21.606 17.3772 21.3093 17.5001 20.9998 17.5001ZM20.9998 12.8334H13.9998C13.6904 12.8334 13.3937 12.7105 13.1749 12.4917C12.9561 12.2729 12.8332 11.9762 12.8332 11.6667C12.8332 11.3573 12.9561 11.0606 13.1749 10.8418C13.3937 10.623 13.6904 10.5001 13.9998 10.5001H20.9998C21.3093 10.5001 21.606 10.623 21.8248 10.8418C22.0436 11.0606 22.1665 11.3573 22.1665 11.6667C22.1665 11.9762 22.0436 12.2729 21.8248 12.4917C21.606 12.7105 21.3093 12.8334 20.9998 12.8334ZM20.9998 8.16675H13.9998C13.6904 8.16675 13.3937 8.04383 13.1749 7.82504C12.9561 7.60625 12.8332 7.3095 12.8332 7.00008C12.8332 6.69066 12.9561 6.39392 13.1749 6.17512C13.3937 5.95633 13.6904 5.83342 13.9998 5.83342H20.9998C21.3093 5.83342 21.606 5.95633 21.8248 6.17512C22.0436 6.39392 22.1665 6.69066 22.1665 7.00008C22.1665 7.3095 22.0436 7.60625 21.8248 7.82504C21.606 8.04383 21.3093 8.16675 20.9998 8.16675ZM5.83317 5.83342V15.1667H2.33317C2.02375 15.1667 1.72701 15.0438 1.50821 14.825C1.28942 14.6062 1.1665 14.3095 1.1665 14.0001V5.83342C1.1665 5.67008 1.1665 5.51841 1.1665 5.36675C1.22839 4.74791 1.53357 4.179 2.01491 3.78517C2.49626 3.39135 3.11433 3.20486 3.73317 3.26675C4.35201 3.32863 4.92092 3.63381 5.31474 4.11516C5.70857 4.5965 5.89505 5.21458 5.83317 5.83342Z" fill="white"/>
</svg>
