<svg width="12" height="13" viewBox="0 0 12 13" fill="none" xmlns="http://www.w3.org/2000/svg">
<path fill-rule="evenodd" clip-rule="evenodd" d="M0 2.5C0 1.94772 0.447715 1.5 1 1.5H11C11.5523 1.5 12 1.94772 12 2.5C12 3.05228 11.5523 3.5 11 3.5H1C0.447715 3.5 0 3.05228 0 2.5ZM2 6.5C2 5.94772 2.44772 5.5 3 5.5H9C9.55229 5.5 10 5.94772 10 6.5C10 7.05228 9.55229 7.5 9 7.5H3C2.44772 7.5 2 7.05228 2 6.5ZM5 9.5C4.44772 9.5 4 9.94771 4 10.5C4 11.0523 4.44772 11.5 5 11.5H7C7.55228 11.5 8 11.0523 8 10.5C8 9.94771 7.55228 9.5 7 9.5H5Z" fill="white"/>
</svg>
