<svg width="300" height="51" viewBox="0 0 300 51" fill="none" xmlns="http://www.w3.org/2000/svg">
<path d="M70.507 36.4217C68.306 36.4217 66.4057 35.9428 64.806 34.985C63.2165 34.0272 61.9886 32.6875 61.1225 30.9654C60.2668 29.2436 59.8389 27.2413 59.8389 24.959C59.8389 22.6766 60.2668 20.6744 61.1225 18.9524C61.9886 17.2304 63.2165 15.8906 64.806 14.9328C66.4057 13.975 68.306 13.4961 70.507 13.4961C73.0338 13.4961 75.1532 14.1227 76.865 15.376C78.5869 16.6293 79.7994 18.3258 80.5024 20.4655L76.3147 21.6271C75.9072 20.2923 75.2193 19.2581 74.2514 18.5245C73.2833 17.7807 72.0354 17.4088 70.507 17.4088C69.111 17.4088 67.9444 17.7195 67.007 18.3411C66.0796 18.9626 65.3816 19.8389 64.913 20.9699C64.4444 22.1009 64.21 23.4306 64.21 24.959C64.21 26.4873 64.4444 27.8169 64.913 28.9481C65.3816 30.079 66.0796 30.9554 67.007 31.5767C67.9444 32.1983 69.111 32.5091 70.507 32.5091C72.0354 32.5091 73.2833 32.1373 74.2514 31.3933C75.2193 30.6496 75.9072 29.6154 76.3147 28.2908L80.5024 29.4524C79.7994 31.592 78.5869 33.2885 76.865 34.5418C75.1532 35.7951 73.0338 36.4217 70.507 36.4217Z" fill="#63778A"/>
<path d="M84.1738 35.9634V13.4961H88.3309V35.9634H84.1738Z" fill="#63778A"/>
<path d="M100.341 36.4215C98.6803 36.4215 97.2232 36.0496 95.97 35.3059C94.7167 34.5619 93.7386 33.538 93.0353 32.2338C92.3426 30.9195 91.9961 29.4114 91.9961 27.7099C91.9961 25.9878 92.3526 24.4747 93.0659 23.1705C93.7793 21.8561 94.7624 20.8321 96.0157 20.0985C97.269 19.3649 98.7107 18.998 100.341 18.998C102.002 18.998 103.459 19.3699 104.712 20.1137C105.976 20.8576 106.959 21.8867 107.662 23.2011C108.365 24.5053 108.716 26.0081 108.716 27.7099C108.716 29.4215 108.36 30.9348 107.647 32.2491C106.944 33.5534 105.96 34.5772 104.697 35.3212C103.444 36.0549 101.992 36.4215 100.341 36.4215ZM100.341 32.5396C101.676 32.5396 102.669 32.0911 103.321 31.1946C103.984 30.2878 104.315 29.126 104.315 27.7099C104.315 26.2426 103.979 25.0708 103.306 24.1945C102.644 23.3182 101.655 22.8801 100.341 22.8801C99.4343 22.8801 98.6903 23.0839 98.1097 23.4915C97.5288 23.8991 97.0958 24.4646 96.8104 25.188C96.5353 25.9114 96.3978 26.7521 96.3978 27.7099C96.3978 29.1873 96.729 30.3642 97.3913 31.2403C98.0637 32.1064 99.0471 32.5396 100.341 32.5396Z" fill="#63778A"/>
<path d="M118.221 36.4516C116.927 36.4516 115.872 36.2325 115.057 35.7943C114.242 35.3564 113.605 34.8009 113.147 34.1285C112.699 33.4559 112.378 32.7582 112.184 32.0345C111.991 31.3011 111.873 30.6335 111.833 30.0325C111.792 29.4313 111.771 28.9931 111.771 28.718V19.4561H115.99V27.2509C115.99 27.6278 116.01 28.1117 116.051 28.7029C116.092 29.2835 116.219 29.8695 116.433 30.4604C116.647 31.0514 116.993 31.5456 117.472 31.9428C117.961 32.3403 118.649 32.5391 119.536 32.5391C119.892 32.5391 120.274 32.483 120.682 32.371C121.089 32.2589 121.471 32.0448 121.828 31.729C122.185 31.4029 122.475 30.929 122.699 30.3077C122.934 29.6758 123.051 28.8506 123.051 27.8315L125.435 28.9627C125.435 30.2667 125.17 31.4896 124.64 32.6308C124.11 33.772 123.311 34.6941 122.241 35.3971C121.181 36.1001 119.841 36.4516 118.221 36.4516ZM123.57 35.9627V30.4911H123.051V19.4561H127.239V35.9627H123.57Z" fill="#63778A"/>
<path d="M138.204 36.4212C136.686 36.4212 135.356 36.0393 134.215 35.275C133.074 34.5109 132.182 33.4714 131.541 32.1571C130.909 30.8428 130.593 29.3601 130.593 27.7096C130.593 26.0282 130.914 24.5356 131.556 23.2314C132.208 21.917 133.12 20.8828 134.292 20.1287C135.463 19.3748 136.839 18.9978 138.418 18.9978C139.987 18.9978 141.307 19.3799 142.377 20.1441C143.447 20.9082 144.257 21.9475 144.807 23.2619C145.357 24.5763 145.632 26.0589 145.632 27.7096C145.632 29.3601 145.352 30.8428 144.792 32.1571C144.241 33.4714 143.416 34.5109 142.315 35.275C141.215 36.0393 139.845 36.4212 138.204 36.4212ZM138.877 32.7227C139.804 32.7227 140.543 32.5137 141.093 32.0961C141.653 31.6782 142.056 31.0923 142.3 30.3383C142.545 29.5843 142.667 28.7081 142.667 27.7096C142.667 26.7109 142.545 25.8348 142.3 25.0807C142.056 24.3267 141.663 23.7408 141.123 23.3231C140.594 22.9053 139.896 22.6964 139.029 22.6964C138.102 22.6964 137.338 22.9257 136.737 23.3842C136.146 23.8325 135.708 24.4388 135.422 25.2031C135.137 25.9569 134.995 26.7925 134.995 27.7096C134.995 28.6368 135.132 29.4825 135.407 30.2466C135.682 31.0006 136.105 31.6018 136.676 32.0501C137.246 32.4986 137.98 32.7227 138.877 32.7227ZM142.667 35.9629V24.6528H142.147V13.9541H146.335V35.9629H142.667Z" fill="#63778A"/>
<path d="M150.615 35.9629V13.9541H164.371V16.1091H152.862V23.7205H162.537V25.8755H152.862V33.8079H164.371V35.9629H150.615Z" fill="#63778A"/>
<path d="M174.452 36.4215C172.913 36.4215 171.599 36.0396 170.508 35.2752C169.418 34.5009 168.583 33.4564 168.002 32.1421C167.421 30.8277 167.131 29.3451 167.131 27.6946C167.131 26.0541 167.416 24.5766 167.987 23.2622C168.568 21.9478 169.398 20.9085 170.478 20.1443C171.558 19.3801 172.852 18.998 174.36 18.998C175.909 18.998 177.213 19.375 178.273 20.129C179.332 20.883 180.132 21.9172 180.672 23.2316C181.223 24.5359 181.498 26.0235 181.498 27.6946C181.498 29.335 181.228 30.8174 180.688 32.1421C180.147 33.4564 179.353 34.5009 178.303 35.2752C177.254 36.0396 175.97 36.4215 174.452 36.4215ZM174.681 34.3277C175.853 34.3277 176.821 34.0423 177.585 33.4717C178.349 32.9011 178.92 32.1167 179.297 31.1182C179.674 30.1094 179.862 28.9682 179.862 27.6946C179.862 26.4006 179.674 25.2594 179.297 24.2709C178.92 23.2724 178.349 22.4929 177.585 21.9325C176.831 21.3721 175.878 21.0919 174.727 21.0919C173.545 21.0919 172.567 21.3823 171.792 21.9631C171.018 22.5439 170.442 23.3335 170.065 24.3321C169.698 25.3305 169.515 26.4514 169.515 27.6946C169.515 28.9478 169.703 30.0787 170.081 31.0875C170.468 32.086 171.043 32.8757 171.808 33.4564C172.572 34.0373 173.53 34.3277 174.681 34.3277ZM179.618 43.2994V31.8823H179.862V19.4565H181.88V43.2994H179.618Z" fill="#63778A"/>
<path d="M192.48 36.3752C191.492 36.3752 190.626 36.2225 189.882 35.9167C189.148 35.6109 188.522 35.1984 188.002 34.6788C187.493 34.1592 187.08 33.5682 186.764 32.9059C186.448 32.2333 186.219 31.5253 186.076 30.7813C185.934 30.0273 185.862 29.2785 185.862 28.5345V19.4561H188.124V27.8775C188.124 28.7843 188.211 29.625 188.384 30.3994C188.557 31.1737 188.832 31.8511 189.21 32.432C189.597 33.0026 190.091 33.4459 190.692 33.7617C191.303 34.0775 192.042 34.2356 192.908 34.2356C193.703 34.2356 194.401 34.0979 195.002 33.8227C195.613 33.5476 196.123 33.1554 196.53 32.6461C196.948 32.1263 197.264 31.4996 197.478 30.766C197.692 30.0222 197.799 29.1868 197.799 28.2594L199.388 28.6112C199.388 30.3024 199.093 31.7237 198.502 32.8753C197.911 34.0265 197.096 34.8979 196.057 35.4888C195.017 36.0798 193.825 36.3752 192.48 36.3752ZM198.028 35.9627V31.8971H197.799V19.4561H200.046V35.9627H198.028Z" fill="#63778A"/>
<path d="M204.623 16.3236V13.8018H206.87V16.3236H204.623ZM204.623 35.9634V19.4568H206.87V35.9634H204.623Z" fill="#63778A"/>
<path d="M218.864 36.4215C217.346 36.4215 216.062 36.0396 215.013 35.2752C213.963 34.5009 213.169 33.4564 212.629 32.1421C212.089 30.8174 211.819 29.335 211.819 27.6946C211.819 26.0235 212.089 24.5359 212.629 23.2316C213.179 21.9172 213.984 20.883 215.044 20.129C216.103 19.375 217.407 18.998 218.956 18.998C220.464 18.998 221.758 19.3801 222.838 20.1443C223.918 20.9085 224.744 21.9478 225.314 23.2622C225.895 24.5766 226.186 26.0541 226.186 27.6946C226.186 29.3451 225.895 30.8277 225.314 32.1421C224.734 33.4564 223.898 34.5009 222.808 35.2752C221.717 36.0396 220.403 36.4215 218.864 36.4215ZM211.437 43.2994V19.4565H213.454V31.8823H213.699V43.2994H211.437ZM218.635 34.3277C219.787 34.3277 220.744 34.0373 221.509 33.4564C222.273 32.8757 222.843 32.086 223.22 31.0875C223.608 30.0787 223.801 28.9478 223.801 27.6946C223.801 26.4514 223.613 25.3305 223.236 24.3321C222.859 23.3335 222.283 22.5439 221.509 21.9631C220.744 21.3823 219.771 21.0919 218.589 21.0919C217.438 21.0919 216.48 21.3721 215.716 21.9325C214.962 22.4929 214.397 23.2724 214.019 24.2709C213.643 25.2594 213.454 26.4006 213.454 27.6946C213.454 28.9682 213.643 30.1094 214.019 31.1182C214.397 32.1167 214.967 32.9011 215.731 33.4717C216.496 34.0423 217.463 34.3277 218.635 34.3277Z" fill="#63778A"/>
<path d="M249.227 35.9635L249.243 25.1271C249.243 23.8535 248.886 22.855 248.173 22.1316C247.47 21.3979 246.573 21.0311 245.483 21.0311C244.861 21.0311 244.255 21.1738 243.664 21.4591C243.073 21.7444 242.584 22.2029 242.197 22.8346C241.82 23.4664 241.631 24.2917 241.631 25.3105L240.301 24.9285C240.271 23.7466 240.5 22.7123 240.989 21.8259C241.489 20.9394 242.171 20.2517 243.037 19.7626C243.914 19.2633 244.902 19.0137 246.003 19.0137C247.663 19.0137 248.993 19.5282 249.991 20.5573C250.99 21.5763 251.49 22.9569 251.49 24.6993L251.475 35.9635H249.227ZM229.526 35.9635V19.4569H231.544V23.5224H231.788V35.9635H229.526ZM239.4 35.9635L239.415 25.2801C239.415 23.9656 239.064 22.9314 238.361 22.1774C237.668 21.4132 236.751 21.0311 235.61 21.0311C234.468 21.0311 233.546 21.4234 232.843 22.208C232.14 22.9824 231.788 24.0166 231.788 25.3105L230.443 24.577C230.443 23.5173 230.693 22.5697 231.192 21.7342C231.692 20.8885 232.374 20.2262 233.24 19.7473C234.107 19.2582 235.09 19.0137 236.19 19.0137C237.24 19.0137 238.172 19.2378 238.987 19.6862C239.813 20.1345 240.46 20.7866 240.928 21.6425C241.397 22.4984 241.631 23.5377 241.631 24.7604L241.616 35.9635H239.4Z" fill="#63778A"/>
<path d="M262.316 36.4215C260.708 36.4215 259.311 36.0649 258.131 35.3516C256.957 34.6385 256.045 33.6348 255.394 32.3408C254.741 31.0468 254.417 29.5285 254.417 27.7863C254.417 25.9828 254.736 24.4238 255.379 23.1094C256.02 21.795 256.922 20.7811 258.083 20.0679C259.256 19.3547 260.636 18.998 262.226 18.998C263.857 18.998 265.246 19.375 266.399 20.129C267.55 20.8728 268.422 21.9427 269.012 23.3386C269.603 24.7346 269.872 26.4006 269.822 28.3365H267.53V27.5416C267.487 25.4019 267.025 23.787 266.138 22.6967C265.261 21.6065 263.977 21.0613 262.286 21.0613C260.515 21.0613 259.153 21.637 258.206 22.7884C257.269 23.9398 256.799 25.5803 256.799 27.7099C256.799 29.7883 257.269 31.4034 258.206 32.5549C259.153 33.6958 260.495 34.2664 262.226 34.2664C263.407 34.2664 264.437 33.9966 265.314 33.4564C266.198 32.9064 266.897 32.1167 267.407 31.0875L269.5 31.8976C268.849 33.3343 267.887 34.4499 266.613 35.2448C265.349 36.0293 263.917 36.4215 262.316 36.4215ZM256.005 28.3365V26.4566H268.615V28.3365H256.005Z" fill="#63778A"/>
<path d="M284.688 35.9632V27.5416C284.688 26.6248 284.6 25.7841 284.427 25.0199C284.253 24.2455 283.975 23.573 283.588 23.0024C283.211 22.4217 282.716 21.9733 282.105 21.6575C281.502 21.3416 280.769 21.1837 279.904 21.1837C279.108 21.1837 278.404 21.3212 277.794 21.5963C277.193 21.8714 276.683 22.2688 276.266 22.7885C275.859 23.2979 275.547 23.9195 275.334 24.6531C275.12 25.3866 275.012 26.2223 275.012 27.1597L273.422 26.8082C273.422 25.1167 273.718 23.6953 274.309 22.5439C274.899 21.3925 275.716 20.5214 276.756 19.9304C277.794 19.3394 278.987 19.0439 280.331 19.0439C281.319 19.0439 282.181 19.1968 282.914 19.5024C283.658 19.8081 284.284 20.2208 284.794 20.7404C285.314 21.2601 285.731 21.8562 286.047 22.5286C286.364 23.1909 286.593 23.8991 286.736 24.6531C286.877 25.3969 286.949 26.1406 286.949 26.8846V35.9632H284.688ZM272.751 35.9632V19.4566H274.784V23.5221H275.012V35.9632H272.751Z" fill="#63778A"/>
<path d="M299.902 35.9629C298.975 36.1563 298.057 36.2327 297.15 36.192C296.253 36.1513 295.449 35.9576 294.736 35.6111C294.032 35.2649 293.497 34.7247 293.13 33.9912C292.836 33.3797 292.673 32.7634 292.643 32.1417C292.623 31.5101 292.613 30.7917 292.613 29.9867V14.8711H294.844V29.895C294.844 30.588 294.849 31.1686 294.859 31.6375C294.879 32.096 294.985 32.5036 295.181 32.8601C295.547 33.5427 296.128 33.9503 296.922 34.083C297.726 34.2154 298.721 34.1847 299.902 33.9912V35.9629ZM289.08 21.382V19.4562H299.902V21.382H289.08Z" fill="#63778A"/>
<mask id="mask0_1744_13397" style="mask-type:luminance" maskUnits="userSpaceOnUse" x="0" y="0" width="51" height="51">
<path d="M50.2513 0H0V50.2513H50.2513V0Z" fill="white"/>
</mask>
<g mask="url(#mask0_1744_13397)">
<mask id="mask1_1744_13397" style="mask-type:luminance" maskUnits="userSpaceOnUse" x="1" y="1" width="49" height="49">
<path d="M25.1259 49.083C38.3571 49.083 49.083 38.3571 49.083 25.1259C49.083 11.8949 38.3571 1.16895 25.1259 1.16895C11.8949 1.16895 1.16895 11.8949 1.16895 25.1259C1.16895 38.3571 11.8949 49.083 25.1259 49.083Z" fill="white"/>
</mask>
<g mask="url(#mask1_1744_13397)">
<path d="M-10.3848 45.2262L-10.5918 42.7403C-8.33795 42.5415 -6.15313 42.3177 -4.01428 42.0941C5.668 41.1493 14.8213 40.2297 25.2625 40.2049C38.0265 40.1302 46.858 41.1991 57.0233 42.4172L59.76 42.7403L59.5069 45.2013L56.7703 44.8782C46.674 43.685 37.9346 42.5913 25.2625 42.6908C14.9133 42.7154 5.82898 43.6104 -3.8073 44.58C-5.96913 44.8036 -8.15398 45.0026 -10.3848 45.2262Z" fill="#52D4BE"/>
<path d="M-10.3849 45.2265L-10.5918 42.7935C-4.95906 42.2825 0.489763 39.9224 5.75466 37.6355C11.9162 34.9591 18.2846 32.1855 25.2509 32.1611C33.2057 32.2099 39.5512 35.0807 45.6667 37.9518C50.3798 40.1659 54.8399 42.234 59.76 42.8179L59.5072 45.2265C54.2193 44.6182 49.621 42.4528 44.724 40.1659C38.8384 37.4164 32.7228 34.6184 25.2509 34.5943C18.7444 34.5943 12.8358 37.1732 6.60531 39.8739C1.17949 42.234 -4.40727 44.6669 -10.4079 45.2265H-10.3849Z" fill="#52D4BE"/>
<path d="M-10.3848 45.2265L-10.5918 42.924C-4.93421 42.4405 0.378394 38.4802 5.98999 34.3129C12.0615 29.8001 18.3171 25.1491 25.2625 25.126H25.3085C33.1969 25.126 39.3836 30.0762 45.363 34.8654C50.2157 38.7335 54.7924 42.3946 59.76 42.9471L59.5069 45.2265C53.8725 44.6049 49.0429 40.7596 43.9142 36.6614C38.2336 32.1255 32.369 27.4285 25.2856 27.4285H25.2396C19.053 27.4285 13.0964 31.8722 7.32388 36.1777C1.71229 40.3684 -4.10627 44.674 -10.4078 45.2265H-10.3848Z" fill="#52D4BE"/>
<path d="M-10.3849 45.2269L-10.5918 42.895C-5.00504 42.4053 0.581729 35.8296 5.98456 29.4869C12.0082 22.4215 18.2386 15.0995 25.2509 15.0762H25.2969C33.2517 15.0762 39.3901 22.8179 45.3218 30.3264C50.2188 36.5058 54.8399 42.3588 59.76 42.895L59.5072 45.2035C53.6444 44.5507 48.7245 38.348 43.5286 31.7721C37.9188 24.7067 32.125 17.3847 25.2969 17.3847H25.2738C19.2962 17.3847 13.4336 24.3103 7.73185 30.9794C2.03015 37.6718 -3.87848 44.5972 -10.3849 45.1804V45.2269Z" fill="#52D4BE"/>
<path d="M-10.3849 46.2315L-10.5918 43.882C-5.5568 43.4355 -1.21155 35.2119 3.40958 26.5184C9.41019 15.2639 15.5947 3.58648 25.3198 4.03292C35.6427 4.52633 41.8271 16.7912 47.2761 27.5993C51.3683 35.7054 55.2308 43.3885 59.76 43.882L59.507 46.2081C53.7364 45.5737 49.805 37.726 45.2298 28.6566C40.057 18.4359 34.1942 6.80543 25.205 6.38249C16.9742 5.98307 11.0885 17.0026 5.43278 27.6463C0.512756 36.9036 -4.13137 45.6677 -10.3849 46.2315Z" fill="#52D4BE"/>
<path d="M25.6875 49.0358C19.9143 49.0358 14.9359 48.0074 10.0978 47.0257C4.02088 45.787 -2.26637 44.5014 -10.4468 45.1325L-10.6338 42.7953C-2.12613 42.1174 4.30136 43.4496 10.5419 44.7119C15.4969 45.7403 20.2181 46.675 25.7809 46.675C32.0448 46.675 36.7191 45.6232 41.2535 44.6182C46.7694 43.4029 52.4724 42.1408 60.8164 42.7953L60.6294 45.1325C52.636 44.5014 47.3538 45.67 41.7442 46.9089C37.0932 47.9373 32.2784 49.0124 25.7809 49.0124H25.6405L25.6875 49.0358Z" fill="#52D4BE"/>
</g>
<path d="M25.126 50.126C11.3353 50.126 0.125977 38.9167 0.125977 25.126C0.125977 11.3353 11.3353 0.125977 25.126 0.125977C38.9167 0.125977 50.126 11.3353 50.126 25.126C50.126 38.9167 38.9167 50.126 25.126 50.126ZM25.126 2.21199C12.4821 2.21199 2.21199 12.4821 2.21199 25.126C2.21199 37.7699 12.4821 48.04 25.126 48.04C37.7699 48.04 48.04 37.7699 48.04 25.126C48.04 12.4821 37.7699 2.21199 25.126 2.21199Z" fill="#52D4BE" stroke="#52D4BE"/>
</g>
</svg>
