<svg width="18" height="18" viewBox="0 0 18 18" fill="none" xmlns="http://www.w3.org/2000/svg">
<path d="M2.4375 6.75C2.4375 5.60625 2.89185 4.50935 3.7006 3.7006C4.50935 2.89185 5.60625 2.4375 6.75 2.4375H12.0098C12.1589 2.4375 12.302 2.49676 12.4075 2.60225C12.513 2.70774 12.5723 2.85082 12.5723 3C12.5723 3.14918 12.513 3.29226 12.4075 3.39775C12.302 3.50324 12.1589 3.5625 12.0098 3.5625H6.75C5.90462 3.5625 5.09387 3.89832 4.4961 4.4961C3.89832 5.09387 3.5625 5.90462 3.5625 6.75V12.0802C3.5625 12.2294 3.50324 12.3725 3.39775 12.478C3.29226 12.5835 3.14918 12.6427 3 12.6427C2.85082 12.6427 2.70774 12.5835 2.60225 12.478C2.49676 12.3725 2.4375 12.2294 2.4375 12.0802V6.75Z" fill="#9D99AC"/>
<path d="M13.8016 5.0949C11.3576 4.82318 8.89108 4.82318 6.4471 5.0949C6.10895 5.1326 5.79348 5.28352 5.55194 5.52316C5.3104 5.76279 5.15698 6.07706 5.1166 6.4149C4.82832 8.87975 4.82832 11.3698 5.1166 13.8347C5.15685 14.1725 5.31023 14.4869 5.55179 14.7265C5.79336 14.9662 6.1089 15.1171 6.4471 15.1547C8.87785 15.4269 11.3709 15.4269 13.8016 15.1547C14.1398 15.1171 14.4554 14.9662 14.6969 14.7265C14.9385 14.4869 15.0919 14.1725 15.1321 13.8347C15.4204 11.3698 15.4204 8.87975 15.1321 6.4149C15.0917 6.07706 14.9383 5.76279 14.6968 5.52316C14.4552 5.28352 14.1398 5.1326 13.8016 5.0949Z" fill="#9D99AC"/>
</svg>
