<svg width="32" height="32" viewBox="0 0 32 32" fill="none" xmlns="http://www.w3.org/2000/svg">
<rect width="36" height="36" transform="translate(-2 -2)" fill="#EEFFFC"/>
<path d="M23.5583 10.3587C22.2167 10.2253 20.875 10.1253 19.525 10.0503V10.042L19.3417 8.95866C19.2167 8.19199 19.0333 7.04199 17.0833 7.04199H14.9C12.9583 7.04199 12.775 8.14199 12.6417 8.95033L12.4667 10.017C11.6917 10.067 10.9167 10.117 10.1417 10.192L8.44166 10.3587C8.09166 10.392 7.84166 10.7003 7.875 11.042C7.90833 11.3837 8.20833 11.6337 8.55833 11.6003L10.2583 11.4337C14.625 11.0003 19.025 11.167 23.4417 11.6087C23.4667 11.6087 23.4833 11.6087 23.5083 11.6087C23.825 11.6087 24.1 11.367 24.1333 11.042C24.1583 10.7003 23.9083 10.392 23.5583 10.3587Z" fill="#FF4242"/>
<path d="M22.025 12.783C21.825 12.5747 21.55 12.458 21.2667 12.458H10.7333C10.45 12.458 10.1667 12.5747 9.975 12.783C9.78333 12.9913 9.675 13.2747 9.69167 13.5663L10.2083 22.1163C10.3 23.383 10.4167 24.9663 13.325 24.9663H18.675C21.5833 24.9663 21.7 23.3913 21.7917 22.1163L22.3083 13.5747C22.325 13.2747 22.2167 12.9913 22.025 12.783ZM17.3833 20.7913H14.6083C14.2667 20.7913 13.9833 20.508 13.9833 20.1663C13.9833 19.8247 14.2667 19.5413 14.6083 19.5413H17.3833C17.725 19.5413 18.0083 19.8247 18.0083 20.1663C18.0083 20.508 17.725 20.7913 17.3833 20.7913ZM18.0833 17.458H13.9167C13.575 17.458 13.2917 17.1747 13.2917 16.833C13.2917 16.4913 13.575 16.208 13.9167 16.208H18.0833C18.425 16.208 18.7083 16.4913 18.7083 16.833C18.7083 17.1747 18.425 17.458 18.0833 17.458Z" fill="#FF4242"/>
</svg>
