<svg width="45" height="44" viewBox="0 0 45 44" fill="none" xmlns="http://www.w3.org/2000/svg">
<rect x="0.5" width="44" height="44" rx="22" fill="#EEFFFC"/>
<path d="M20.7908 11.86L12.3208 26C12.1461 26.3024 12.0537 26.6453 12.0527 26.9945C12.0518 27.3437 12.1422 27.6871 12.3152 27.9905C12.4881 28.2939 12.7375 28.5467 13.0385 28.7238C13.3394 28.9009 13.6816 28.9961 14.0308 29H30.9708C31.32 28.9961 31.6621 28.9009 31.963 28.7238C32.264 28.5467 32.5134 28.2939 32.6863 27.9905C32.8593 27.6871 32.9497 27.3437 32.9488 26.9945C32.9478 26.6453 32.8554 26.3024 32.6808 26L24.2108 11.86C24.0325 11.5661 23.7815 11.3231 23.4819 11.1544C23.1824 10.9858 22.8445 10.8972 22.5008 10.8972C22.157 10.8972 21.8191 10.9858 21.5196 11.1544C21.22 11.3231 20.969 11.5661 20.7908 11.86Z" stroke="#54D4BD" stroke-width="2" stroke-linecap="round" stroke-linejoin="round"/>
<path d="M22.5 17V21" stroke="#54D4BD" stroke-width="2" stroke-linecap="round" stroke-linejoin="round"/>
<path d="M22.5 25H22.51" stroke="#54D4BD" stroke-width="2" stroke-linecap="round" stroke-linejoin="round"/>
</svg>
