<svg width="49" height="49" viewBox="0 0 49 49" fill="none" xmlns="http://www.w3.org/2000/svg">
<mask id="mask0_1744_13416" style="mask-type:luminance" maskUnits="userSpaceOnUse" x="0" y="0" width="49" height="49">
<path d="M24.1259 48.083C37.3571 48.083 48.083 37.3571 48.083 24.1259C48.083 10.8949 37.3571 0.168945 24.1259 0.168945C10.8949 0.168945 0.168945 10.8949 0.168945 24.1259C0.168945 37.3571 10.8949 48.083 24.1259 48.083Z" fill="white"/>
</mask>
<g mask="url(#mask0_1744_13416)">
<path d="M-11.3848 44.2262L-11.5918 41.7403C-9.33795 41.5415 -7.15313 41.3177 -5.01428 41.0941C4.668 40.1493 13.8213 39.2297 24.2625 39.2049C37.0265 39.1302 45.858 40.1991 56.0233 41.4172L58.76 41.7403L58.5069 44.2013L55.7703 43.8782C45.674 42.685 36.9346 41.5913 24.2625 41.6908C13.9133 41.7154 4.82898 42.6104 -4.8073 43.58C-6.96913 43.8036 -9.15398 44.0026 -11.3848 44.2262Z" fill="#52D4BE"/>
<path d="M-11.3849 44.2265L-11.5918 41.7935C-5.95906 41.2825 -0.510237 38.9224 4.75466 36.6355C10.9162 33.9591 17.2846 31.1855 24.2509 31.1611C32.2057 31.2099 38.5512 34.0807 44.6667 36.9518C49.3798 39.1659 53.8399 41.234 58.76 41.8179L58.5072 44.2265C53.2193 43.6182 48.621 41.4528 43.724 39.1659C37.8384 36.4164 31.7228 33.6184 24.2509 33.5943C17.7444 33.5943 11.8358 36.1732 5.60531 38.8739C0.179488 41.234 -5.40727 43.6669 -11.4079 44.2265H-11.3849Z" fill="#52D4BE"/>
<path d="M-11.3848 44.2265L-11.5918 41.924C-5.93421 41.4405 -0.621606 37.4802 4.98999 33.3129C11.0615 28.8001 17.3171 24.1491 24.2625 24.126H24.3085C32.1969 24.126 38.3836 29.0762 44.363 33.8654C49.2157 37.7335 53.7924 41.3946 58.76 41.9471L58.5069 44.2265C52.8725 43.6049 48.0429 39.7596 42.9142 35.6614C37.2336 31.1255 31.369 26.4285 24.2856 26.4285H24.2396C18.053 26.4285 12.0964 30.8722 6.32388 35.1777C0.712294 39.3684 -5.10627 43.674 -11.4078 44.2265H-11.3848Z" fill="#52D4BE"/>
<path d="M-11.3849 44.2269L-11.5918 41.895C-6.00504 41.4053 -0.418271 34.8296 4.98456 28.4869C11.0082 21.4215 17.2386 14.0995 24.2509 14.0762H24.2969C32.2517 14.0762 38.3901 21.8179 44.3218 29.3264C49.2188 35.5058 53.8399 41.3588 58.76 41.895L58.5072 44.2035C52.6444 43.5507 47.7245 37.348 42.5286 30.7721C36.9188 23.7067 31.125 16.3847 24.2969 16.3847H24.2738C18.2962 16.3847 12.4336 23.3103 6.73185 29.9794C1.03015 36.6718 -4.87848 43.5972 -11.3849 44.1804V44.2269Z" fill="#52D4BE"/>
<path d="M-11.3849 45.2315L-11.5918 42.882C-6.5568 42.4355 -2.21155 34.2119 2.40958 25.5184C8.41019 14.2639 14.5947 2.58648 24.3198 3.03292C34.6427 3.52633 40.8271 15.7912 46.2761 26.5993C50.3683 34.7054 54.2308 42.3885 58.76 42.882L58.507 45.2081C52.7364 44.5737 48.805 36.726 44.2298 27.6566C39.057 17.4359 33.1942 5.80543 24.205 5.38249C15.9742 4.98307 10.0885 16.0026 4.43278 26.6463C-0.487244 35.9036 -5.13137 44.6677 -11.3849 45.2315Z" fill="#52D4BE"/>
<path d="M24.6875 48.0358C18.9143 48.0358 13.9359 47.0074 9.09776 46.0257C3.02088 44.787 -3.26637 43.5014 -11.4468 44.1325L-11.6338 41.7953C-3.12613 41.1174 3.30136 42.4496 9.54186 43.7119C14.4969 44.7403 19.2181 45.675 24.7809 45.675C31.0448 45.675 35.7191 44.6232 40.2535 43.6182C45.7694 42.4029 51.4724 41.1408 59.8164 41.7953L59.6294 44.1325C51.636 43.5014 46.3538 44.67 40.7442 45.9089C36.0932 46.9373 31.2784 48.0124 24.7809 48.0124H24.6405L24.6875 48.0358Z" fill="#52D4BE"/>
</g>
</svg>
