<svg width="82" height="57" viewBox="0 0 82 57" fill="none" xmlns="http://www.w3.org/2000/svg">
<path d="M20.6963 47.1621C17.2605 47.1621 14.4746 44.3762 14.4746 40.9403V6.72174C14.4746 3.28591 17.2605 0.5 20.6963 0.5H30.903C39.3612 0.5 38.4869 8.27689 44.0274 8.27689H58.026C61.4618 8.27689 64.2478 11.0628 64.2478 14.4986V40.9403C64.2478 44.3762 61.4618 47.1621 58.026 47.1621H20.6963Z" fill="#54D4BD"/>
<path d="M50.93 11.3877H61.1367C64.5725 11.3877 67.3581 14.1736 67.3581 17.6094V40.9405C67.3581 44.3763 64.5725 47.1622 61.1367 47.1622H20.696C17.2602 47.1622 14.4746 44.3763 14.4746 40.9405C14.4746 41.8006 15.1712 42.496 16.0298 42.496C16.8883 42.496 17.5853 41.8006 17.5853 40.9405V25.3863C17.5853 21.9505 20.3712 19.165 23.807 19.165H37.8057C43.3461 19.165 42.4719 11.3877 50.93 11.3877Z" fill="#D8E9FD"/>
<path d="M82 52.2227V56.9699H0.00488281V52.2227H82Z" fill="#D2DADE"/>
<path d="M12.974 52.2227V56.9699H0V52.2227H12.974Z" fill="#54D4BD"/>
</svg>
