<svg width="13" height="11" viewBox="0 0 13 11" fill="none" xmlns="http://www.w3.org/2000/svg">
<path fill-rule="evenodd" clip-rule="evenodd" d="M0.666992 1.5C0.666992 0.947715 1.11471 0.5 1.66699 0.5H11.667C12.2193 0.5 12.667 0.947715 12.667 1.5C12.667 2.05228 12.2193 2.5 11.667 2.5H1.66699C1.11471 2.5 0.666992 2.05228 0.666992 1.5ZM2.66699 5.5C2.66699 4.94772 3.11471 4.5 3.66699 4.5H9.66699C10.2193 4.5 10.667 4.94772 10.667 5.5C10.667 6.05228 10.2193 6.5 9.66699 6.5H3.66699C3.11471 6.5 2.66699 6.05228 2.66699 5.5ZM5.66699 8.5C5.11471 8.5 4.66699 8.94771 4.66699 9.5C4.66699 10.0523 5.11471 10.5 5.66699 10.5H7.66699C8.21928 10.5 8.66699 10.0523 8.66699 9.5C8.66699 8.94771 8.21928 8.5 7.66699 8.5H5.66699Z" fill="#32324D"/>
</svg>
