<svg width="18" height="14" viewBox="0 0 18 14" fill="none" xmlns="http://www.w3.org/2000/svg">
<path d="M14.8332 0.333252H3.1665C2.50346 0.333252 1.86758 0.596644 1.39874 1.06549C0.929896 1.53433 0.666504 2.17021 0.666504 2.83325V11.1666C0.666504 11.8296 0.929896 12.4655 1.39874 12.9344C1.86758 13.4032 2.50346 13.6666 3.1665 13.6666H14.8332C15.4962 13.6666 16.1321 13.4032 16.6009 12.9344C17.0698 12.4655 17.3332 11.8296 17.3332 11.1666V2.83325C17.3332 2.17021 17.0698 1.53433 16.6009 1.06549C16.1321 0.596644 15.4962 0.333252 14.8332 0.333252ZM14.8332 1.99992L9.4165 5.72492C9.28982 5.79806 9.14612 5.83656 8.99984 5.83656C8.85356 5.83656 8.70985 5.79806 8.58317 5.72492L3.1665 1.99992H14.8332Z" fill="#9799A1"/>
</svg>
