<svg width="87" height="87" viewBox="0 0 87 87" fill="none" xmlns="http://www.w3.org/2000/svg">
<rect width="87" height="87" rx="43.5" fill="#EEFFFC"/>
<path d="M41.72 32.6469L30.4267 51.5003C30.1939 51.9035 30.0707 52.3607 30.0693 52.8263C30.068 53.2919 30.1887 53.7498 30.4193 54.1543C30.6498 54.5588 30.9823 54.8959 31.3836 55.1321C31.7849 55.3682 32.2411 55.4952 32.7067 55.5003H55.2934C55.759 55.4952 56.2151 55.3682 56.6164 55.1321C57.0177 54.8959 57.3502 54.5588 57.5808 54.1543C57.8114 53.7498 57.932 53.2919 57.9307 52.8263C57.9294 52.3607 57.8062 51.9035 57.5734 51.5003L46.28 32.6469C46.0423 32.2551 45.7077 31.9311 45.3083 31.7063C44.9089 31.4814 44.4583 31.3633 44 31.3633C43.5417 31.3633 43.0911 31.4814 42.6918 31.7063C42.2924 31.9311 41.9577 32.2551 41.72 32.6469Z" stroke="#54D4BD" stroke-width="2" stroke-linecap="round" stroke-linejoin="round"/>
<path d="M44 39.5V44.8333" stroke="#54D4BD" stroke-width="2" stroke-linecap="round" stroke-linejoin="round"/>
<path d="M44 50.167H44.0133" stroke="#54D4BD" stroke-width="2" stroke-linecap="round" stroke-linejoin="round"/>
</svg>
