<svg width="159" height="137" viewBox="0 0 159 137" fill="none" xmlns="http://www.w3.org/2000/svg">
<rect x="63.0312" y="0.5" width="95.2384" height="100.801" rx="7.5" fill="white" stroke="#D5EBFA"/>
<rect x="66.9805" y="4.4502" width="87.3377" height="43.947" rx="8" fill="#FEF7EF"/>
<rect width="87.3377" height="6.6755" rx="3.33775" transform="matrix(1 0 0 -1 66.9805 61.7485)" fill="#E9F4FB"/>
<rect width="87.3377" height="4.45033" rx="2" transform="matrix(1 0 0 -1 66.9805 79.5498)" fill="#F2F8FD"/>
<rect width="87.3377" height="4.45033" rx="2" transform="matrix(1 0 0 -1 66.9805 92.9009)" fill="#F2F8FD"/>
<rect width="76.7682" height="6.6755" rx="3.33775" transform="matrix(1 0 0 -1 66.9805 70.6489)" fill="#E9F4FB"/>
<rect width="87.3377" height="4.45033" rx="2" transform="matrix(1 0 0 -1 66.9805 86.2251)" fill="#F2F8FD"/>
<rect x="0.726562" y="34.9902" width="95.2384" height="100.801" rx="7.5" fill="white" stroke="#D5EBFA"/>
<rect x="4.67578" y="38.9404" width="87.3377" height="43.947" rx="8" fill="#FEF7EF"/>
<rect width="87.3377" height="6.6755" rx="3.33775" transform="matrix(1 0 0 -1 4.67578 96.2388)" fill="#E9F4FB"/>
<rect width="87.3377" height="4.45033" rx="2" transform="matrix(1 0 0 -1 4.67578 114.04)" fill="#F2F8FD"/>
<rect width="87.3377" height="4.45033" rx="2" transform="matrix(1 0 0 -1 4.67578 127.391)" fill="#F2F8FD"/>
<rect width="76.7682" height="6.6755" rx="3.33775" transform="matrix(1 0 0 -1 4.67578 105.139)" fill="#E9F4FB"/>
<rect width="87.3377" height="4.45033" rx="2" transform="matrix(1 0 0 -1 4.67578 120.715)" fill="#F2F8FD"/>
</svg>
