<svg width="24" height="25" viewBox="0 0 24 25" fill="none" xmlns="http://www.w3.org/2000/svg">
<path d="M12 2.75C6.49 2.75 2 7.24 2 12.75C2 18.26 6.49 22.75 12 22.75C17.51 22.75 22 18.26 22 12.75C22 7.24 17.51 2.75 12 2.75ZM16 13.5H12.75V16.75C12.75 17.16 12.41 17.5 12 17.5C11.59 17.5 11.25 17.16 11.25 16.75V13.5H8C7.59 13.5 7.25 13.16 7.25 12.75C7.25 12.34 7.59 12 8 12H11.25V8.75C11.25 8.34 11.59 8 12 8C12.41 8 12.75 8.34 12.75 8.75V12H16C16.41 12 16.75 12.34 16.75 12.75C16.75 13.16 16.41 13.5 16 13.5Z" fill="#344054"/>
</svg>
