<svg width="18" height="18" viewBox="0 0 18 18" fill="none" xmlns="http://www.w3.org/2000/svg">
<path d="M15 0C14.2044 0 13.4413 0.31607 12.8787 0.87868C12.3161 1.44129 12 2.20435 12 3C12.0015 3.17774 12.0187 3.355 12.0516 3.52969L5.19375 6.96094C4.91368 6.6587 4.57436 6.41739 4.19693 6.25206C3.81949 6.08673 3.41205 6.00093 3 6C2.20435 6 1.44129 6.31607 0.87868 6.87868C0.31607 7.44129 0 8.20435 0 9C0 9.79565 0.31607 10.5587 0.87868 11.1213C1.44129 11.6839 2.20435 12 3 12C3.41205 11.9991 3.81949 11.9133 4.19693 11.7479C4.57436 11.5826 4.91368 11.3413 5.19375 11.0391L12.0469 14.4703C12.0156 14.6451 11.9999 14.8224 12 15C12 15.7956 12.3161 16.5587 12.8787 17.1213C13.4413 17.6839 14.2044 18 15 18C15.7956 18 16.5587 17.6839 17.1213 17.1213C17.6839 16.5587 18 15.7956 18 15C18 14.2044 17.6839 13.4413 17.1213 12.8787C16.5587 12.3161 15.7956 12 15 12C14.5879 12.0009 14.1805 12.0867 13.8031 12.2521C13.4256 12.4174 13.0863 12.6587 12.8063 12.9609L5.95312 9.53437C5.98468 9.35801 6.00036 9.17917 6 9C5.99882 8.82069 5.98156 8.64185 5.94844 8.46563L12.8063 5.03906C13.0863 5.3413 13.4256 5.58261 13.8031 5.74794C14.1805 5.91327 14.5879 5.99907 15 6C15.7956 6 16.5587 5.68393 17.1213 5.12132C17.6839 4.55871 18 3.79565 18 3C18 2.20435 17.6839 1.44129 17.1213 0.87868C16.5587 0.31607 15.7956 0 15 0Z" fill="#42526B"/>
</svg>
