<svg width="24" height="24" viewBox="0 0 24 24" fill="none" xmlns="http://www.w3.org/2000/svg">
<path d="M18 3C17.2044 3 16.4413 3.31607 15.8787 3.87868C15.3161 4.44129 15 5.20435 15 6C15.0015 6.17774 15.0187 6.355 15.0516 6.52969L8.19375 9.96094C7.91368 9.6587 7.57436 9.41739 7.19693 9.25206C6.81949 9.08673 6.41205 9.00093 6 9C5.20435 9 4.44129 9.31607 3.87868 9.87868C3.31607 10.4413 3 11.2044 3 12C3 12.7956 3.31607 13.5587 3.87868 14.1213C4.44129 14.6839 5.20435 15 6 15C6.41205 14.9991 6.81949 14.9133 7.19693 14.7479C7.57436 14.5826 7.91368 14.3413 8.19375 14.0391L15.0469 17.4703C15.0156 17.6451 14.9999 17.8224 15 18C15 18.7956 15.3161 19.5587 15.8787 20.1213C16.4413 20.6839 17.2044 21 18 21C18.7956 21 19.5587 20.6839 20.1213 20.1213C20.6839 19.5587 21 18.7956 21 18C21 17.2044 20.6839 16.4413 20.1213 15.8787C19.5587 15.3161 18.7956 15 18 15C17.5879 15.0009 17.1805 15.0867 16.8031 15.2521C16.4256 15.4174 16.0863 15.6587 15.8063 15.9609L8.95312 12.5344C8.98468 12.358 9.00036 12.1792 9 12C8.99882 11.8207 8.98156 11.6419 8.94844 11.4656L15.8063 8.03906C16.0863 8.3413 16.4256 8.58261 16.8031 8.74794C17.1805 8.91327 17.5879 8.99907 18 9C18.7956 9 19.5587 8.68393 20.1213 8.12132C20.6839 7.55871 21 6.79565 21 6C21 5.20435 20.6839 4.44129 20.1213 3.87868C19.5587 3.31607 18.7956 3 18 3Z" fill="#42526B"/>
</svg>
