<svg width="117" height="139" viewBox="0 0 117 139" fill="none" xmlns="http://www.w3.org/2000/svg">
<path d="M113.707 17.354L59.6815 1.15284C58.9248 0.925615 58.1188 0.925615 57.3621 1.15284L3.33462 17.354C1.62905 17.8655 0.459961 19.436 0.459961 21.2168V80.6205C0.459961 88.3474 3.58922 96.2561 9.76072 104.129C14.4741 110.142 20.995 116.179 29.1423 122.074C42.8284 131.977 56.3061 138.052 56.8731 138.305C57.3972 138.54 57.9597 138.658 58.5215 138.658C59.084 138.658 59.6464 138.541 60.1706 138.305C60.7369 138.052 74.2139 131.977 87.9014 122.074C96.048 116.179 102.569 110.142 107.282 104.129C113.454 96.2568 116.583 88.3474 116.583 80.6205V21.2168C116.583 19.436 115.415 17.8655 113.707 17.354Z" fill="#54D4BD"/>
<path d="M89.0757 45.9375C91.4405 43.4215 94.2577 40.4238 95.449 39.1566" stroke="white" stroke-width="6" stroke-linecap="round"/>
<path d="M96.3618 71.472C99.5592 72.7779 103.369 74.3334 104.979 74.9914" stroke="white" stroke-width="6" stroke-linecap="round"/>
<path d="M98.87 57.033C102.209 56.1518 106.188 55.1014 107.87 54.6577" stroke="white" stroke-width="6" stroke-linecap="round"/>
<path d="M74.6329 57.6172H39.9392C35.2507 57.6172 31.4141 61.4521 31.4141 66.138V88.7428C31.4141 93.4292 35.2507 97.2642 39.9392 97.2642H74.6329C79.3214 97.2642 83.158 93.4292 83.158 88.7428V66.138C83.158 61.4521 79.3214 57.6172 74.6329 57.6172ZM57.286 84.4949C53.8894 84.4949 51.1346 81.7413 51.1346 78.3455C51.1346 74.9492 53.8894 72.1967 57.286 72.1967C60.6844 72.1967 63.4375 74.9492 63.4375 78.3455C63.4375 81.7413 60.6844 84.4949 57.286 84.4949Z" fill="white"/>
<path d="M43.192 60.0882C41.8534 59.7082 40.8843 58.4642 40.9128 57.0077L41.0645 49.1034C41.2412 39.9848 48.8063 32.7085 57.928 32.8828C67.0496 33.0576 74.3277 40.6179 74.151 49.7366L74.0073 57.1284C73.9742 58.8623 72.5408 60.2408 70.8066 60.2074C69.074 60.1745 67.6946 58.7423 67.7283 57.0086L67.8709 49.6165C67.9801 43.9593 63.4659 39.2684 57.807 39.1598C52.148 39.0518 47.4544 43.5665 47.3447 49.2235L47.1922 57.1282C47.1592 58.8615 45.7259 60.24 43.9916 60.2067C43.7149 60.2016 43.4466 60.1605 43.192 60.0882Z" fill="white"/>
</svg>
