<svg width="73" height="76" viewBox="0 0 73 76" fill="none" xmlns="http://www.w3.org/2000/svg">
<rect x="0.190964" y="0.398438" width="72.0502" height="75.459" rx="4" fill="#BDBDBA"/>
<g clip-path="url(#clip0_1931_55628)">
<path d="M44.4704 35.2453C44.1035 35.2453 43.7824 35.1011 43.5072 34.8129L36.2146 27.1753L28.9221 34.8129C28.3717 35.3894 27.5002 35.3894 26.9957 34.8129C26.4453 34.2365 26.4453 33.3238 26.9957 32.7955L35.2515 24.1491C35.8019 23.5727 36.6733 23.5727 37.1778 24.1491L45.4336 32.7955C45.9839 33.3719 45.9839 34.2845 45.4336 34.8129C45.1584 35.1011 44.8373 35.2453 44.4704 35.2453Z" fill="#1A1A1A"/>
<path d="M45.7536 52.5376H26.6737C24.3345 52.5376 22.4541 50.5682 22.4541 48.1184V42.3541C22.4541 41.5375 23.0503 40.9131 23.83 40.9131C24.6097 40.9131 25.206 41.5375 25.206 42.3541V48.1184C25.206 48.983 25.8481 49.6555 26.6737 49.6555H45.7536C46.5792 49.6555 47.2213 48.983 47.2213 48.1184V42.3541C47.2213 41.5375 47.8176 40.9131 48.5973 40.9131C49.377 40.9131 49.9732 41.5375 49.9732 42.3541V48.1184C49.9732 50.5682 48.0927 52.5376 45.7536 52.5376Z" fill="#1A1A1A"/>
<path d="M36.2129 45.1885C35.4332 45.1885 34.837 44.5641 34.837 43.7475V26.695C34.837 25.8784 35.4332 25.2539 36.2129 25.2539C36.9926 25.2539 37.5889 25.8784 37.5889 26.695V43.7475C37.5889 44.5641 36.9926 45.1885 36.2129 45.1885Z" fill="#1A1A1A"/>
</g>
<defs>
<clipPath id="clip0_1931_55628">
<rect width="27.5192" height="28.8211" fill="white" transform="translate(22.4541 23.7168)"/>
</clipPath>
</defs>
</svg>
