<svg width="73" height="76" viewBox="0 0 73 76" fill="none" xmlns="http://www.w3.org/2000/svg">
<rect x="0.190918" y="0.148438" width="72.0502" height="75.459" rx="4" fill="#BDBDBA"/>
<g clip-path="url(#clip0_2052_11798)">
<path d="M44.4705 34.9953C44.1035 34.9953 43.7825 34.8511 43.5073 34.5629L36.2147 26.9253L28.9221 34.5629C28.3718 35.1394 27.5003 35.1394 26.9958 34.5629C26.4454 33.9865 26.4454 33.0738 26.9958 32.5455L35.2515 23.8991C35.8019 23.3227 36.6734 23.3227 37.1779 23.8991L45.4336 32.5455C45.984 33.1219 45.984 34.0345 45.4336 34.5629C45.1584 34.8511 44.8374 34.9953 44.4705 34.9953Z" fill="#1A1A1A"/>
<path d="M45.7537 52.2876H26.6737C24.3346 52.2876 22.4541 50.3182 22.4541 47.8684V42.1041C22.4541 41.2875 23.0503 40.6631 23.8301 40.6631C24.6098 40.6631 25.206 41.2875 25.206 42.1041V47.8684C25.206 48.733 25.8481 49.4055 26.6737 49.4055H45.7537C46.5792 49.4055 47.2213 48.733 47.2213 47.8684V42.1041C47.2213 41.2875 47.8176 40.6631 48.5973 40.6631C49.377 40.6631 49.9733 41.2875 49.9733 42.1041V47.8684C49.9733 50.3182 48.0928 52.2876 45.7537 52.2876Z" fill="#1A1A1A"/>
<path d="M36.213 44.9385C35.4333 44.9385 34.837 44.3141 34.837 43.4975V26.445C34.837 25.6284 35.4333 25.0039 36.213 25.0039C36.9927 25.0039 37.5889 25.6284 37.5889 26.445V43.4975C37.5889 44.3141 36.9927 44.9385 36.213 44.9385Z" fill="#1A1A1A"/>
</g>
<defs>
<clipPath id="clip0_2052_11798">
<rect width="27.5192" height="28.8211" fill="white" transform="translate(22.4541 23.4668)"/>
</clipPath>
</defs>
</svg>
