<svg width="31" height="32" viewBox="0 0 31 32" fill="none" xmlns="http://www.w3.org/2000/svg">
<g clip-path="url(#clip0_2011_33654)">
<path d="M15.5039 10.832C15.5039 11.6028 15.1977 12.342 14.6527 12.8871C14.1077 13.4321 13.3684 13.7383 12.5977 13.7383C11.8269 13.7383 11.0877 13.4321 10.5426 12.8871C9.9976 12.342 9.69141 11.6028 9.69141 10.832C9.69141 10.0612 9.9976 9.32203 10.5426 8.777C11.0877 8.23197 11.8269 7.92578 12.5977 7.92578C13.3684 7.92578 14.1077 8.23197 14.6527 8.777C15.1977 9.32203 15.5039 10.0612 15.5039 10.832Z" fill="#54D4BD"/>
<path d="M23.25 0.175781H7.75C6.72229 0.175781 5.73666 0.584039 5.00996 1.31074C4.28326 2.03745 3.875 3.02307 3.875 4.05078V27.3008C3.875 28.3285 4.28326 29.3141 5.00996 30.0408C5.73666 30.7675 6.72229 31.1758 7.75 31.1758H23.25C24.2777 31.1758 25.2633 30.7675 25.99 30.0408C26.7167 29.3141 27.125 28.3285 27.125 27.3008V4.05078C27.125 3.02307 26.7167 2.03745 25.99 1.31074C25.2633 0.584039 24.2777 0.175781 23.25 0.175781V0.175781ZM5.8125 4.05078C5.8125 3.53692 6.01663 3.04411 6.37998 2.68076C6.74333 2.31741 7.23614 2.11328 7.75 2.11328H23.25C23.7639 2.11328 24.2567 2.31741 24.62 2.68076C24.9834 3.04411 25.1875 3.53692 25.1875 4.05078V19.5508L21.1517 15.515C21.0522 15.4156 20.9323 15.3391 20.8003 15.2908C20.6682 15.2425 20.5273 15.2235 20.3872 15.2351C20.2471 15.2467 20.1112 15.2887 19.9889 15.3581C19.8666 15.4275 19.761 15.5227 19.6792 15.637L15.5 21.4883L11.3053 18.9695C11.1198 18.8585 10.9026 18.8126 10.6881 18.8393C10.4735 18.866 10.2741 18.9637 10.1215 19.1168L5.8125 23.4258V4.05078Z" fill="#54D4BD"/>
</g>
<defs>
<clipPath id="clip0_2011_33654">
<rect width="31" height="31" fill="white" transform="translate(0 0.175781)"/>
</clipPath>
</defs>
</svg>
