<svg width="24" height="24" viewBox="0 0 24 24" fill="none" xmlns="http://www.w3.org/2000/svg">
<path d="M16.5 19.5C17.3284 19.5 18 18.8284 18 18C18 17.1716 17.3284 16.5 16.5 16.5C15.6716 16.5 15 17.1716 15 18C15 18.8284 15.6716 19.5 16.5 19.5Z" fill="#42526B"/>
<path d="M22.3328 17.6093C21.8693 16.4287 21.0697 15.41 20.0329 14.6796C18.9961 13.9491 17.7677 13.539 16.5 13.5C15.2323 13.539 14.0039 13.9491 12.9671 14.6796C11.9303 15.41 11.1307 16.4287 10.6672 17.6093L10.5 18L10.6672 18.3915C11.1308 19.5719 11.9305 20.5904 12.9673 21.3207C14.0041 22.051 15.2324 22.4611 16.5 22.5C17.7676 22.4611 18.9959 22.051 20.0327 21.3207C21.0695 20.5904 21.8692 19.5719 22.3328 18.3915L22.5 18L22.3328 17.6093ZM16.5 21C15.9067 21 15.3266 20.8241 14.8333 20.4944C14.3399 20.1648 13.9554 19.6962 13.7284 19.148C13.5013 18.5999 13.4419 17.9967 13.5576 17.4147C13.6734 16.8328 13.9591 16.2982 14.3787 15.8787C14.7982 15.4591 15.3328 15.1734 15.9147 15.0576C16.4967 14.9419 17.0999 15.0013 17.648 15.2284C18.1962 15.4554 18.6648 15.8399 18.9944 16.3333C19.3241 16.8266 19.5 17.4067 19.5 18C19.499 18.7953 19.1826 19.5578 18.6202 20.1202C18.0578 20.6826 17.2953 20.999 16.5 21Z" fill="#42526B"/>
<path d="M6 6.75C6.41421 6.75 6.75 6.41421 6.75 6C6.75 5.58579 6.41421 5.25 6 5.25C5.58579 5.25 5.25 5.58579 5.25 6C5.25 6.41421 5.58579 6.75 6 6.75Z" fill="#42526B"/>
<path d="M6 12.75C6.41421 12.75 6.75 12.4142 6.75 12C6.75 11.5858 6.41421 11.25 6 11.25C5.58579 11.25 5.25 11.5858 5.25 12C5.25 12.4142 5.58579 12.75 6 12.75Z" fill="#42526B"/>
<path d="M6 18.75C6.41421 18.75 6.75 18.4142 6.75 18C6.75 17.5858 6.41421 17.25 6 17.25C5.58579 17.25 5.25 17.5858 5.25 18C5.25 18.4142 5.58579 18.75 6 18.75Z" fill="#42526B"/>
<path d="M3.75 15.75H9V14.25H3.75V9.75H15.75V12H17.25V3.75C17.25 3.35218 17.092 2.97064 16.8107 2.68934C16.5294 2.40804 16.1478 2.25 15.75 2.25H3.75C3.35218 2.25 2.97064 2.40804 2.68934 2.68934C2.40804 2.97064 2.25 3.35218 2.25 3.75V20.25C2.25 20.6478 2.40804 21.0294 2.68934 21.3107C2.97064 21.592 3.35218 21.75 3.75 21.75H9V20.25H3.75V15.75ZM3.75 3.75H15.75V8.25H3.75V3.75Z" fill="#42526B"/>
</svg>
