<svg width="32" height="32" viewBox="0 0 32 32" fill="none" xmlns="http://www.w3.org/2000/svg">
<rect width="40" height="40" transform="translate(-4 -4)" fill="white"/>
<path d="M20.5 23.5C21.3284 23.5 22 22.8284 22 22C22 21.1716 21.3284 20.5 20.5 20.5C19.6716 20.5 19 21.1716 19 22C19 22.8284 19.6716 23.5 20.5 23.5Z" fill="#42526B"/>
<path d="M26.3328 21.6093C25.8693 20.4287 25.0697 19.41 24.0329 18.6796C22.9961 17.9491 21.7677 17.539 20.5 17.5C19.2323 17.539 18.0039 17.9491 16.9671 18.6796C15.9303 19.41 15.1307 20.4287 14.6672 21.6093L14.5 22L14.6672 22.3915C15.1308 23.5719 15.9305 24.5904 16.9673 25.3207C18.0041 26.051 19.2324 26.4611 20.5 26.5C21.7676 26.4611 22.9959 26.051 24.0327 25.3207C25.0695 24.5904 25.8692 23.5719 26.3328 22.3915L26.5 22L26.3328 21.6093ZM20.5 25C19.9067 25 19.3266 24.8241 18.8333 24.4944C18.3399 24.1648 17.9554 23.6962 17.7284 23.148C17.5013 22.5999 17.4419 21.9967 17.5576 21.4147C17.6734 20.8328 17.9591 20.2982 18.3787 19.8787C18.7982 19.4591 19.3328 19.1734 19.9147 19.0576C20.4967 18.9419 21.0999 19.0013 21.648 19.2284C22.1962 19.4554 22.6648 19.8399 22.9944 20.3333C23.3241 20.8266 23.5 21.4067 23.5 22C23.499 22.7953 23.1826 23.5578 22.6202 24.1202C22.0578 24.6826 21.2953 24.999 20.5 25Z" fill="#42526B"/>
<path d="M10 10.75C10.4142 10.75 10.75 10.4142 10.75 10C10.75 9.58579 10.4142 9.25 10 9.25C9.58579 9.25 9.25 9.58579 9.25 10C9.25 10.4142 9.58579 10.75 10 10.75Z" fill="#42526B"/>
<path d="M10 16.75C10.4142 16.75 10.75 16.4142 10.75 16C10.75 15.5858 10.4142 15.25 10 15.25C9.58579 15.25 9.25 15.5858 9.25 16C9.25 16.4142 9.58579 16.75 10 16.75Z" fill="#42526B"/>
<path d="M10 22.75C10.4142 22.75 10.75 22.4142 10.75 22C10.75 21.5858 10.4142 21.25 10 21.25C9.58579 21.25 9.25 21.5858 9.25 22C9.25 22.4142 9.58579 22.75 10 22.75Z" fill="#42526B"/>
<path d="M7.75 19.75H13V18.25H7.75V13.75H19.75V16H21.25V7.75C21.25 7.35218 21.092 6.97064 20.8107 6.68934C20.5294 6.40804 20.1478 6.25 19.75 6.25H7.75C7.35218 6.25 6.97064 6.40804 6.68934 6.68934C6.40804 6.97064 6.25 7.35218 6.25 7.75V24.25C6.25 24.6478 6.40804 25.0294 6.68934 25.3107C6.97064 25.592 7.35218 25.75 7.75 25.75H13V24.25H7.75V19.75ZM7.75 7.75H19.75V12.25H7.75V7.75Z" fill="#42526B"/>
</svg>
