<svg width="36" height="36" viewBox="0 0 36 36" fill="none" xmlns="http://www.w3.org/2000/svg">
<path d="M9.05631 27.2818C8.77506 27.2256 8.55006 27.1693 8.26881 27.0568C7.98756 26.9443 7.76256 26.8881 7.53756 26.7756C7.03131 26.5506 6.58131 26.2693 6.13131 25.9318C5.23131 25.3131 4.50006 24.4693 3.93756 23.4568C3.37506 22.5006 3.03756 21.3756 2.98131 20.3068C2.92506 19.7443 2.98131 19.2381 3.03756 18.6756C3.09381 18.3943 3.15006 18.1693 3.20631 17.8881C3.26256 17.6068 3.37506 17.3818 3.43131 17.1006L3.48756 17.8881C3.48756 18.1693 3.54381 18.3943 3.60006 18.6756C3.65631 19.1818 3.76881 19.6881 3.88131 20.1381C4.10631 21.0943 4.44381 21.9943 4.95006 22.8381C5.45631 23.6818 6.01881 24.4693 6.75006 25.2006C7.08756 25.5381 7.48131 25.8756 7.87506 26.2131C8.04381 26.3818 8.26881 26.5506 8.49381 26.7193L9.05631 27.2818Z" fill="#66BCE8"/>
<path d="M8.8875 29.3068C8.71875 29.4193 8.49375 29.4756 8.26875 29.5318C8.04375 29.5881 7.875 29.6443 7.65 29.6443C7.25625 29.7006 6.80625 29.7568 6.35625 29.7006C5.5125 29.6443 4.6125 29.4193 3.88125 29.0256C3.09375 28.6318 2.41875 28.0131 1.96875 27.2818C1.74375 26.9443 1.51875 26.5506 1.35 26.1568C1.29375 25.9881 1.2375 25.7631 1.18125 25.5381C1.18125 25.3693 1.125 25.2006 1.125 24.9756C1.29375 25.1443 1.40625 25.3131 1.51875 25.4256C1.6875 25.5943 1.8 25.7631 1.9125 25.8756C2.19375 26.1568 2.41875 26.4381 2.7 26.6631C3.2625 27.1693 3.825 27.6193 4.5 27.9568C5.11875 28.2943 5.85 28.5756 6.525 28.8006C6.8625 28.9131 7.25625 28.9693 7.65 29.0818C7.81875 29.1381 8.04375 29.1381 8.2125 29.1943C8.49375 29.2506 8.6625 29.2506 8.8875 29.3068Z" fill="#66BCE8"/>
<path d="M21.6006 1.96875C21.8818 2.025 22.1068 2.1375 22.3881 2.25C22.6693 2.3625 22.8943 2.475 23.1193 2.5875C23.6256 2.86875 24.0756 3.15 24.5256 3.4875C25.4256 4.1625 26.1568 5.0625 26.6631 6.075C27.1693 7.0875 27.4506 8.2125 27.4506 9.28125C27.4506 9.84375 27.3943 10.35 27.2818 10.9125C27.2256 11.1937 27.1693 11.4187 27.0568 11.7C26.9443 11.9812 26.8881 12.2063 26.7756 12.4313L26.7193 11.6438C26.7193 11.3625 26.7193 11.1375 26.6631 10.8562L26.4943 9.3375C26.3256 8.38125 25.9881 7.425 25.5381 6.525C25.0881 5.625 24.5256 4.8375 23.8506 4.10625C23.5131 3.7125 23.1193 3.375 22.7818 2.98125C22.6131 2.8125 22.3881 2.64375 22.1631 2.475L21.6006 1.96875Z" fill="#66BCE8"/>
<path d="M26.4932 1.74414C26.7182 1.80039 26.8869 1.85664 27.0557 1.96914C27.2244 2.02539 27.4494 2.13789 27.6182 2.25039C27.9557 2.47539 28.2932 2.70039 28.6307 2.98164C29.2494 3.54414 29.7557 4.21914 30.0369 5.00664C30.3744 5.79414 30.4869 6.63789 30.3744 7.48164C30.3182 7.87539 30.2057 8.26914 30.0932 8.66289C30.0369 8.83164 29.9244 9.05664 29.8682 9.22539C29.7557 9.39414 29.6994 9.56289 29.5307 9.73164V8.60664C29.5307 8.21289 29.4744 7.87539 29.4744 7.53789C29.3619 6.80664 29.2494 6.13164 28.9682 5.51289C28.6869 4.83789 28.3494 4.27539 27.9557 3.65664C27.7307 3.37539 27.5057 3.03789 27.2807 2.75664C27.1682 2.58789 27.0557 2.47539 26.8869 2.30664C26.7744 2.02539 26.6057 1.85664 26.4932 1.74414Z" fill="#66BCE8"/>
<path d="M5.62549 10.1246C4.50049 10.6308 4.10674 11.9808 4.61299 13.1058L11.7005 27.8996L15.638 26.0433L8.55049 11.1933C8.04424 10.0683 6.75049 9.56206 5.62549 10.1246Z" fill="#FFDD67"/>
<path d="M24.2441 21.8808L28.4066 19.9121L20.3066 3.03706C19.7441 1.91206 18.3941 1.40581 17.2128 1.96831C16.0878 2.53081 15.5816 3.88081 16.1441 5.06206L24.2441 21.8808Z" fill="#FFDD67"/>
<path d="M17.2682 1.91241C17.1557 1.96866 17.0432 2.02491 16.9307 2.13741C17.9994 1.85616 19.1244 2.36241 19.6307 3.37491L27.7307 20.2499L28.4619 19.9124L20.3619 3.03741C19.7994 1.85616 18.4494 1.34991 17.2682 1.91241Z" fill="#EBA352"/>
<path d="M15.6372 25.9876L19.9685 23.9063L11.6997 6.69382C11.1372 5.51257 9.67472 4.95007 8.49347 5.51257C7.31222 6.07507 6.80597 7.53757 7.36847 8.71882L15.6372 25.9876Z" fill="#FFDD67"/>
<path d="M8.49375 5.56845C8.38125 5.6247 8.26875 5.68095 8.15625 5.79345C9.225 5.5122 10.4625 6.01845 10.9687 7.0872L16.0875 17.831L17.325 18.5622L11.7 6.7497C11.1375 5.5122 9.73125 5.00595 8.49375 5.56845Z" fill="#EBA352"/>
<path d="M19.2935 22.5558L23.6247 20.4746L15.356 3.26208C14.7935 2.08083 13.331 1.51833 12.1497 2.13708C10.9685 2.69958 10.4622 4.16208 11.0247 5.34333L19.2935 22.5558Z" fill="#FFDD67"/>
<path d="M12.15 2.08115C12.0375 2.1374 11.925 2.2499 11.8125 2.30615C12.8813 2.0249 14.1188 2.53115 14.625 3.5999L20.4187 15.7499L21.6562 16.4811L15.3562 3.2624C14.7937 2.0249 13.3313 1.51865 12.15 2.08115Z" fill="#EBA352"/>
<path d="M5.62559 10.1253C5.51309 10.1816 5.40059 10.2378 5.28809 10.3503C6.30059 10.0691 7.36934 10.5753 7.81934 11.5878L12.0381 20.4191L13.2756 21.1503L8.55059 11.2503C8.04434 10.0691 6.75059 9.5628 5.62559 10.1253Z" fill="#EBA352"/>
<path d="M34.1999 8.43764C32.6812 7.25639 30.2062 8.55014 28.9687 12.6001C28.1249 15.4126 28.0124 16.2564 26.2124 17.1001L25.1999 15.0189C25.1999 15.0189 9.22494 22.7251 9.84369 23.9626C9.84369 23.9626 11.7562 29.9251 15.0187 32.6814C19.8562 36.8439 31.1624 32.4001 31.6687 21.6564C31.9499 15.4126 35.8312 9.73139 34.1999 8.43764Z" fill="#FFDD67"/>
<path d="M34.2006 8.4377C33.9193 8.2127 33.5818 8.1002 33.2443 8.04395C33.3006 8.1002 33.4131 8.1002 33.4693 8.15645C35.1568 9.4502 33.4131 12.4314 32.4568 15.1314C31.6693 17.2689 30.9943 19.4627 31.1068 21.6002C31.5568 30.9377 22.1631 35.3814 16.5381 33.6939C22.0506 36.0002 32.2881 31.6127 31.8381 21.8814C31.7256 19.7439 32.3443 17.6627 33.1881 15.4127C34.0881 12.7127 35.8318 9.73144 34.2006 8.4377Z" fill="#EBA352"/>
<path d="M26.7191 16.875C23.2316 17.2687 18.1129 22.275 21.7129 27.7312C19.0691 22.2187 23.4004 18.5063 26.1566 17.2125C26.4379 16.9875 26.7191 16.875 26.7191 16.875Z" fill="#EBA352"/>
</svg>
